{"glyphs":{"0":{"ha":694,"x_min":46,"x_max":648,"o":"m 351 -26 q 219 19 277 -26 q 122 136 161 64 q 65 289 84 208 q 46 437 46 369 q 81 639 46 530 q 184 824 115 749 q 350 900 252 900 q 444 877 399 900 q 524 816 488 854 q 583 730 559 777 q 648 437 648 608 q 587 151 648 271 q 487 25 549 76 q 351 -26 425 -26 m 351 8 q 430 34 396 8 q 484 98 463 60 q 518 183 505 136 q 543 437 543 275 q 513 710 543 610 q 452 822 492 777 q 351 867 412 867 q 246 822 287 867 q 185 711 205 777 q 158 572 165 645 q 151 437 151 499 q 158 303 151 376 q 185 164 165 231 q 246 53 205 98 q 351 8 287 8 z "},"1":{"ha":694,"x_min":118,"x_max":574,"o":"m 424 878 l 424 157 q 438 63 424 88 q 510 37 452 37 l 551 37 q 574 18 574 37 q 551 0 574 0 l 172 0 q 155 4 161 0 q 149 21 149 9 q 161 35 149 32 q 221 37 173 37 q 290 47 269 37 q 315 78 311 56 q 319 154 319 100 l 319 779 q 315 799 319 792 q 298 806 311 806 q 258 791 287 806 l 178 754 q 157 746 172 752 q 134 739 141 739 q 118 757 118 739 q 160 789 118 777 l 392 890 q 411 896 403 896 q 424 878 424 892 z "},"2":{"ha":694,"x_min":66,"x_max":624,"o":"m 229 109 l 489 109 q 547 113 528 109 q 577 135 566 118 q 593 187 587 151 q 610 220 598 220 q 622 214 619 220 q 624 187 624 208 l 624 24 q 595 0 624 0 l 111 0 q 77 2 88 0 q 66 14 66 5 q 70 24 66 16 q 78 38 73 31 q 86 50 82 44 l 271 277 q 440 490 380 401 q 501 665 501 578 q 450 798 501 747 q 317 848 399 848 q 202 814 253 848 q 119 720 151 779 q 93 694 105 694 q 81 707 81 694 q 98 750 81 720 q 129 794 116 780 q 357 896 214 896 q 454 881 408 896 q 537 837 500 866 q 594 767 574 808 q 615 675 615 726 q 592 569 615 618 q 533 479 568 519 q 446 392 498 439 l 212 161 q 194 138 204 155 q 183 115 183 122 q 192 110 183 111 q 229 109 201 109 z "},"3":{"ha":694,"x_min":58,"x_max":633,"o":"m 304 519 l 378 526 q 479 508 433 526 q 560 458 526 490 q 614 380 594 425 q 633 279 633 334 q 599 132 633 202 q 505 7 565 61 q 412 -63 461 -33 q 307 -113 363 -94 q 200 -132 251 -132 q 104 -110 149 -132 q 58 -41 58 -88 q 73 -3 58 -19 q 110 12 87 12 q 176 -40 147 12 q 205 -78 192 -66 q 243 -89 218 -89 q 305 -77 270 -89 q 371 -47 340 -66 q 424 -9 402 -29 q 504 96 475 34 q 533 224 533 157 q 506 345 533 290 q 427 431 478 399 q 309 463 376 463 q 150 416 233 463 q 118 404 125 404 q 103 419 103 404 q 125 444 103 432 l 170 475 q 240 519 172 476 q 349 592 309 563 q 417 660 388 622 q 446 741 446 699 q 406 825 446 795 q 313 856 366 856 q 220 828 264 856 q 150 758 176 800 q 127 734 138 734 q 114 751 114 734 q 127 786 114 766 q 155 821 141 806 q 349 896 227 894 q 446 878 399 896 q 523 825 493 861 q 553 737 553 789 q 515 651 553 685 q 410 578 477 616 l 304 519 z "},"4":{"ha":694,"x_min":35,"x_max":657,"o":"m 525 233 l 525 114 q 529 60 525 78 q 549 35 533 43 q 602 28 565 28 q 633 9 633 28 q 611 -5 633 -5 q 546 -3 589 -5 q 481 0 503 0 q 404 -3 456 0 q 328 -5 353 -5 q 309 8 309 -5 q 338 28 309 28 q 392 33 374 28 q 418 56 412 39 q 424 114 424 73 l 424 233 q 422 268 424 260 q 411 279 420 277 q 376 281 403 281 l 82 281 q 64 280 70 281 q 53 279 59 280 q 39 285 43 279 q 35 307 35 290 q 39 322 36 317 q 50 338 41 328 q 61 354 58 349 l 530 982 q 544 997 538 994 q 561 1000 549 1000 q 579 989 579 1000 q 572 974 579 983 l 114 368 q 101 350 113 366 q 89 329 89 334 q 96 322 89 323 q 127 321 103 321 l 378 321 q 411 323 402 321 q 421 335 419 326 q 424 372 424 344 l 424 625 q 428 647 424 644 l 511 677 q 525 627 525 677 l 525 358 q 539 325 525 326 l 646 325 q 657 296 657 325 q 643 281 657 281 l 593 281 l 551 281 q 529 274 534 281 q 525 233 525 267 z "},"5":{"ha":694,"x_min":75,"x_max":618,"o":"m 498 808 l 239 774 q 191 767 199 768 q 176 755 182 765 q 161 715 170 746 l 144 657 q 142 650 144 654 q 139 636 141 646 q 136 623 136 627 q 140 613 136 616 q 151 608 143 610 q 164 605 158 606 q 172 604 170 605 l 225 599 q 322 587 278 594 q 409 566 366 579 q 489 532 452 553 q 558 470 530 507 q 603 389 587 433 q 618 298 618 345 q 556 122 618 203 q 403 -11 494 42 q 210 -85 332 -52 q 93 -106 113 -106 q 75 -92 75 -106 q 102 -75 75 -75 q 186 -59 139 -71 q 277 -31 233 -47 q 354 3 321 -14 q 440 70 402 29 q 503 162 479 111 q 526 267 526 214 q 343 479 526 430 q 222 504 289 494 q 100 515 156 514 q 79 528 79 515 q 87 558 79 534 l 163 818 q 175 855 171 847 q 189 866 178 863 q 228 872 199 869 l 546 917 q 568 915 563 917 q 572 907 572 913 q 567 885 572 905 q 562 865 562 865 l 553 828 q 525 811 549 813 l 498 808 z "},"6":{"ha":694,"x_min":45,"x_max":650,"o":"m 562 1029 q 585 1038 570 1032 q 609 1047 600 1044 q 623 1050 618 1050 q 634 1046 630 1050 q 639 1035 639 1042 q 634 1026 639 1030 q 622 1019 629 1022 q 607 1014 614 1016 q 435 921 523 985 q 289 785 348 857 q 211 663 242 727 q 164 529 179 598 q 149 383 149 460 q 171 218 149 307 q 243 67 193 130 q 371 4 293 4 q 497 79 448 4 q 549 273 549 155 q 497 478 549 401 q 443 532 475 513 q 372 551 410 551 q 317 539 338 551 q 280 510 296 526 q 258 493 264 493 q 251 497 255 493 q 248 507 248 502 q 282 553 248 524 q 406 595 332 595 q 536 552 480 595 q 621 442 592 510 q 650 300 650 374 q 629 178 650 237 q 572 75 609 120 q 481 2 534 29 q 364 -25 427 -25 q 229 12 289 -25 q 129 111 170 50 q 66 246 88 172 q 45 392 45 320 q 205 779 45 589 q 311 883 256 837 q 428 964 366 928 q 562 1029 490 1000 z "},"7":{"ha":694,"x_min":40,"x_max":654,"o":"m 203 -64 l 543 715 q 557 751 557 743 q 530 770 557 770 l 136 770 q 99 768 112 770 q 69 760 85 766 q 56 754 58 754 q 48 765 51 754 q 46 777 46 775 l 40 848 q 44 870 40 863 q 61 876 47 876 l 610 876 q 654 860 654 876 q 650 845 654 854 q 643 831 645 836 l 260 -37 q 254 -56 256 -48 q 247 -67 251 -63 q 232 -71 242 -71 l 212 -71 q 203 -64 203 -71 z "},"8":{"ha":694,"x_min":36,"x_max":657,"o":"m 224 424 l 265 440 q 122 524 176 472 q 68 661 68 576 q 96 760 68 711 q 164 839 123 808 q 256 884 205 869 q 361 900 307 900 q 458 886 410 900 q 546 848 507 873 q 607 782 584 823 q 631 689 631 742 q 591 583 631 618 q 469 510 551 547 l 428 488 q 513 457 472 477 q 587 407 553 437 q 638 337 620 376 q 657 250 657 298 q 632 142 657 193 q 566 53 607 90 q 334 -25 475 -25 q 136 36 220 -25 q 64 118 92 71 q 36 218 36 166 q 62 312 36 273 q 126 373 89 350 q 224 424 163 395 m 386 507 q 422 517 398 507 q 468 541 446 528 q 546 688 546 593 q 519 785 546 743 q 446 851 492 828 q 346 873 399 873 q 214 828 264 873 q 173 771 189 806 q 157 704 157 737 q 190 605 157 646 q 279 538 222 564 q 338 517 305 526 q 386 507 370 507 m 345 1 q 513 74 453 1 q 561 205 561 131 q 545 280 561 247 q 503 339 530 314 q 440 383 476 364 q 402 400 430 389 q 348 418 375 410 q 310 427 321 427 q 276 415 299 427 q 243 396 254 404 q 131 203 131 321 q 189 58 131 118 q 345 1 244 1 z "},"9":{"ha":694,"x_min":41,"x_max":652,"o":"m 74 -140 q 60 -126 60 -140 q 102 -98 60 -115 q 183 -53 143 -79 q 266 7 224 -27 q 340 75 308 42 q 404 150 372 108 q 481 268 450 210 q 531 392 513 326 q 549 529 549 458 q 503 736 549 642 q 431 830 476 791 q 328 868 385 868 q 260 852 294 868 q 205 810 227 836 q 147 621 147 735 q 159 533 147 578 q 193 448 170 488 q 250 383 215 408 q 329 358 285 358 q 395 376 363 358 q 427 393 427 393 q 435 388 432 393 q 439 379 439 383 q 421 357 439 368 q 293 315 363 315 q 163 351 220 315 q 73 449 105 387 q 41 583 41 511 q 63 702 41 644 q 126 805 85 759 q 220 875 167 850 q 336 900 273 900 q 460 869 401 900 q 562 787 519 839 q 602 728 584 762 q 630 663 621 693 q 646 594 640 632 q 652 524 652 557 q 588 275 652 391 q 416 62 524 159 q 192 -92 318 -24 q 74 -140 90 -140 z "},"­":{"ha":1042,"x_min":174,"x_max":868,"o":"m 174 0 l 174 868 l 868 868 l 868 0 l 174 0 m 846 22 l 846 846 l 196 846 l 196 22 l 846 22 z "},"·":{"ha":1042,"x_min":174,"x_max":868,"o":"m 174 0 l 174 868 l 868 868 l 868 0 l 174 0 m 846 22 l 846 846 l 196 846 l 196 22 l 846 22 z "},"Ŕ":{"ha":1042,"x_min":174,"x_max":868,"o":"m 174 0 l 174 868 l 868 868 l 868 0 l 174 0 m 846 22 l 846 846 l 196 846 l 196 22 l 846 22 z "},"ŕ":{"ha":1042,"x_min":174,"x_max":868,"o":"m 174 0 l 174 868 l 868 868 l 868 0 l 174 0 m 846 22 l 846 846 l 196 846 l 196 22 l 846 22 z "},"Ŗ":{"ha":1042,"x_min":174,"x_max":868,"o":"m 174 0 l 174 868 l 868 868 l 868 0 l 174 0 m 846 22 l 846 846 l 196 846 l 196 22 l 846 22 z "},"ŗ":{"ha":1042,"x_min":174,"x_max":868,"o":"m 174 0 l 174 868 l 868 868 l 868 0 l 174 0 m 846 22 l 846 846 l 196 846 l 196 22 l 846 22 z "},"Ř":{"ha":1042,"x_min":174,"x_max":868,"o":"m 174 0 l 174 868 l 868 868 l 868 0 l 174 0 m 846 22 l 846 846 l 196 846 l 196 22 l 846 22 z "},"ř":{"ha":1042,"x_min":174,"x_max":868,"o":"m 174 0 l 174 868 l 868 868 l 868 0 l 174 0 m 846 22 l 846 846 l 196 846 l 196 22 l 846 22 z "},"Ś":{"ha":1042,"x_min":174,"x_max":868,"o":"m 174 0 l 174 868 l 868 868 l 868 0 l 174 0 m 846 22 l 846 846 l 196 846 l 196 22 l 846 22 z "},"ś":{"ha":1042,"x_min":174,"x_max":868,"o":"m 174 0 l 174 868 l 868 868 l 868 0 l 174 0 m 846 22 l 846 846 l 196 846 l 196 22 l 846 22 z "},"Ŝ":{"ha":1042,"x_min":174,"x_max":868,"o":"m 174 0 l 174 868 l 868 868 l 868 0 l 174 0 m 846 22 l 846 846 l 196 846 l 196 22 l 846 22 z "},"ŝ":{"ha":1042,"x_min":174,"x_max":868,"o":"m 174 0 l 174 868 l 868 868 l 868 0 l 174 0 m 846 22 l 846 846 l 196 846 l 196 22 l 846 22 z "},"Ş":{"ha":1042,"x_min":174,"x_max":868,"o":"m 174 0 l 174 868 l 868 868 l 868 0 l 174 0 m 846 22 l 846 846 l 196 846 l 196 22 l 846 22 z "},"ş":{"ha":1042,"x_min":174,"x_max":868,"o":"m 174 0 l 174 868 l 868 868 l 868 0 l 174 0 m 846 22 l 846 846 l 196 846 l 196 22 l 846 22 z "},"―":{"ha":1042,"x_min":174,"x_max":868,"o":"m 174 0 l 174 868 l 868 868 l 868 0 l 174 0 m 846 22 l 846 846 l 196 846 l 196 22 l 846 22 z "},"‖":{"ha":1042,"x_min":174,"x_max":868,"o":"m 174 0 l 174 868 l 868 868 l 868 0 l 174 0 m 846 22 l 846 846 l 196 846 l 196 22 l 846 22 z "},"‗":{"ha":1042,"x_min":174,"x_max":868,"o":"m 174 0 l 174 868 l 868 868 l 868 0 l 174 0 m 846 22 l 846 846 l 196 846 l 196 22 l 846 22 z "},"‛":{"ha":1042,"x_min":174,"x_max":868,"o":"m 174 0 l 174 868 l 868 868 l 868 0 l 174 0 m 846 22 l 846 846 l 196 846 l 196 22 l 846 22 z "},"‟":{"ha":1042,"x_min":174,"x_max":868,"o":"m 174 0 l 174 868 l 868 868 l 868 0 l 174 0 m 846 22 l 846 846 l 196 846 l 196 22 l 846 22 z "},"‣":{"ha":1042,"x_min":174,"x_max":868,"o":"m 174 0 l 174 868 l 868 868 l 868 0 l 174 0 m 846 22 l 846 846 l 196 846 l 196 22 l 846 22 z "},"․":{"ha":1042,"x_min":174,"x_max":868,"o":"m 174 0 l 174 868 l 868 868 l 868 0 l 174 0 m 846 22 l 846 846 l 196 846 l 196 22 l 846 22 z "},"‥":{"ha":1042,"x_min":174,"x_max":868,"o":"m 174 0 l 174 868 l 868 868 l 868 0 l 174 0 m 846 22 l 846 846 l 196 846 l 196 22 l 846 22 z "},"‧":{"ha":1042,"x_min":174,"x_max":868,"o":"m 174 0 l 174 868 l 868 868 l 868 0 l 174 0 m 846 22 l 846 846 l 196 846 l 196 22 l 846 22 z "}," ":{"ha":1042,"x_min":174,"x_max":868,"o":"m 174 0 l 174 868 l 868 868 l 868 0 l 174 0 m 846 22 l 846 846 l 196 846 l 196 22 l 846 22 z "}," ":{"ha":1042,"x_min":174,"x_max":868,"o":"m 174 0 l 174 868 l 868 868 l 868 0 l 174 0 m 846 22 l 846 846 l 196 846 l 196 22 l 846 22 z "},"‪":{"ha":1042,"x_min":174,"x_max":868,"o":"m 174 0 l 174 868 l 868 868 l 868 0 l 174 0 m 846 22 l 846 846 l 196 846 l 196 22 l 846 22 z "},"‫":{"ha":1042,"x_min":174,"x_max":868,"o":"m 174 0 l 174 868 l 868 868 l 868 0 l 174 0 m 846 22 l 846 846 l 196 846 l 196 22 l 846 22 z "},"‬":{"ha":1042,"x_min":174,"x_max":868,"o":"m 174 0 l 174 868 l 868 868 l 868 0 l 174 0 m 846 22 l 846 846 l 196 846 l 196 22 l 846 22 z "},"‭":{"ha":1042,"x_min":174,"x_max":868,"o":"m 174 0 l 174 868 l 868 868 l 868 0 l 174 0 m 846 22 l 846 846 l 196 846 l 196 22 l 846 22 z "},"‮":{"ha":1042,"x_min":174,"x_max":868,"o":"m 174 0 l 174 868 l 868 868 l 868 0 l 174 0 m 846 22 l 846 846 l 196 846 l 196 22 l 846 22 z "}," ":{"ha":1042,"x_min":174,"x_max":868,"o":"m 174 0 l 174 868 l 868 868 l 868 0 l 174 0 m 846 22 l 846 846 l 196 846 l 196 22 l 846 22 z "},"‱":{"ha":1042,"x_min":174,"x_max":868,"o":"m 174 0 l 174 868 l 868 868 l 868 0 l 174 0 m 846 22 l 846 846 l 196 846 l 196 22 l 846 22 z "},"′":{"ha":1042,"x_min":174,"x_max":868,"o":"m 174 0 l 174 868 l 868 868 l 868 0 l 174 0 m 846 22 l 846 846 l 196 846 l 196 22 l 846 22 z "},"″":{"ha":1042,"x_min":174,"x_max":868,"o":"m 174 0 l 174 868 l 868 868 l 868 0 l 174 0 m 846 22 l 846 846 l 196 846 l 196 22 l 846 22 z "},"‴":{"ha":1042,"x_min":174,"x_max":868,"o":"m 174 0 l 174 868 l 868 868 l 868 0 l 174 0 m 846 22 l 846 846 l 196 846 l 196 22 l 846 22 z "},"‵":{"ha":1042,"x_min":174,"x_max":868,"o":"m 174 0 l 174 868 l 868 868 l 868 0 l 174 0 m 846 22 l 846 846 l 196 846 l 196 22 l 846 22 z "},"‶":{"ha":1042,"x_min":174,"x_max":868,"o":"m 174 0 l 174 868 l 868 868 l 868 0 l 174 0 m 846 22 l 846 846 l 196 846 l 196 22 l 846 22 z "},"‷":{"ha":1042,"x_min":174,"x_max":868,"o":"m 174 0 l 174 868 l 868 868 l 868 0 l 174 0 m 846 22 l 846 846 l 196 846 l 196 22 l 846 22 z "},"‸":{"ha":1042,"x_min":174,"x_max":868,"o":"m 174 0 l 174 868 l 868 868 l 868 0 l 174 0 m 846 22 l 846 846 l 196 846 l 196 22 l 846 22 z "},"∓":{"ha":1042,"x_min":174,"x_max":868,"o":"m 174 0 l 174 868 l 868 868 l 868 0 l 174 0 m 846 22 l 846 846 l 196 846 l 196 22 l 846 22 z "},"∔":{"ha":1042,"x_min":174,"x_max":868,"o":"m 174 0 l 174 868 l 868 868 l 868 0 l 174 0 m 846 22 l 846 846 l 196 846 l 196 22 l 846 22 z "},"∕":{"ha":1042,"x_min":174,"x_max":868,"o":"m 174 0 l 174 868 l 868 868 l 868 0 l 174 0 m 846 22 l 846 846 l 196 846 l 196 22 l 846 22 z "},"∖":{"ha":1042,"x_min":174,"x_max":868,"o":"m 174 0 l 174 868 l 868 868 l 868 0 l 174 0 m 846 22 l 846 846 l 196 846 l 196 22 l 846 22 z "},"∗":{"ha":1042,"x_min":174,"x_max":868,"o":"m 174 0 l 174 868 l 868 868 l 868 0 l 174 0 m 846 22 l 846 846 l 196 846 l 196 22 l 846 22 z "},"∘":{"ha":1042,"x_min":174,"x_max":868,"o":"m 174 0 l 174 868 l 868 868 l 868 0 l 174 0 m 846 22 l 846 846 l 196 846 l 196 22 l 846 22 z "}," ":{"ha":444,"x_min":0,"x_max":0,"o":""},"!":{"ha":306,"x_min":92,"x_max":214,"o":"m 151 -17 q 108 4 124 -17 q 92 53 92 24 q 109 104 92 83 q 154 125 125 125 q 198 104 182 125 q 214 53 214 83 q 196 4 214 24 q 151 -17 179 -17 m 134 298 l 92 814 q 108 871 92 847 q 157 896 124 896 q 214 818 214 896 l 168 307 q 163 252 168 262 q 149 241 158 241 q 139 253 142 241 q 135 277 136 264 q 134 298 134 290 z "},"\"":{"ha":472,"x_min":86,"x_max":379,"o":"m 176 783 l 144 497 q 144 486 144 492 q 142 473 143 480 q 137 459 141 465 q 126 453 133 453 q 116 460 119 453 q 112 478 113 468 q 110 497 111 489 l 87 783 q 86 822 87 808 q 131 896 86 896 q 179 818 179 896 q 176 783 179 802 m 376 783 l 345 497 q 344 486 345 492 q 342 473 343 480 q 337 459 341 465 q 326 453 333 453 q 316 460 319 453 q 312 478 313 468 q 310 497 311 489 l 288 783 q 286 822 288 808 q 330 896 286 896 q 379 818 379 896 q 376 783 379 802 z "},"#":{"ha":694,"x_min":4,"x_max":690,"o":"m 570 749 l 526 629 q 522 616 526 627 q 518 604 518 605 q 547 595 518 595 l 661 595 q 690 586 690 595 q 689 578 690 583 q 686 568 688 574 q 684 561 684 562 q 670 532 675 536 q 644 528 665 528 l 515 528 q 492 525 495 528 q 481 501 490 523 l 443 399 q 436 375 436 389 q 464 366 436 366 l 578 366 q 607 355 607 366 q 603 341 607 351 q 599 330 599 331 q 586 301 590 306 q 561 297 581 297 l 431 297 q 408 294 411 297 q 397 271 405 292 l 343 118 q 337 102 340 108 q 332 95 335 97 q 319 93 329 93 q 301 102 301 93 q 302 110 301 106 q 307 119 304 113 q 310 126 309 124 l 358 262 q 363 275 359 265 q 367 288 367 286 q 339 297 367 297 l 228 297 q 205 294 208 297 q 195 271 202 292 l 140 118 q 136 105 139 115 q 129 94 132 96 q 117 92 126 92 q 102 102 102 92 q 105 113 102 103 q 109 126 109 123 l 157 262 q 162 274 159 265 q 165 288 165 282 q 139 297 165 297 l 31 297 q 4 306 4 297 q 12 330 4 314 q 21 357 20 353 q 27 363 22 361 q 47 366 33 366 l 171 366 q 195 369 191 366 q 204 390 199 372 l 241 493 q 246 505 242 496 q 250 518 250 515 q 221 528 250 528 l 114 528 q 86 536 86 528 q 90 548 86 538 q 93 561 93 558 q 103 584 100 578 q 113 593 106 591 q 132 595 119 595 l 254 595 q 278 597 275 595 q 288 621 281 600 l 338 755 q 346 779 344 775 q 358 783 348 783 q 375 774 375 783 q 367 749 375 765 l 323 629 q 321 623 323 627 q 317 613 319 618 q 315 604 315 608 q 345 595 315 595 l 454 595 q 479 597 476 595 q 489 621 481 600 l 539 755 q 547 780 545 777 q 559 783 549 783 q 578 774 578 783 q 574 760 578 768 q 570 749 570 751 m 422 526 l 311 526 q 288 523 292 526 q 278 501 283 519 l 239 397 q 232 374 232 377 q 261 364 232 364 l 371 364 q 391 366 386 364 q 399 373 396 368 q 406 389 401 378 l 441 493 q 446 505 442 495 q 450 517 450 514 q 422 526 450 526 z "},"$":{"ha":694,"x_min":93,"x_max":599,"o":"m 358 996 l 358 917 q 359 896 358 902 q 362 884 359 890 q 370 876 365 878 q 383 872 374 873 q 451 864 418 869 q 504 852 484 859 q 518 848 507 851 q 534 841 528 844 q 542 835 540 838 q 549 794 549 823 q 548 775 549 782 q 547 760 548 768 l 547 696 q 536 679 547 679 q 513 718 523 679 q 463 808 498 770 q 376 846 427 846 q 358 827 358 846 l 358 583 q 365 536 358 546 q 407 513 372 527 q 487 470 454 492 q 545 419 519 449 q 585 352 570 390 q 599 267 599 314 q 539 116 599 186 q 401 31 480 47 q 369 21 376 24 q 360 10 361 18 q 358 -25 358 1 l 358 -126 q 345 -135 358 -135 q 330 -132 334 -135 q 328 -96 328 -127 l 328 -25 q 323 8 328 -1 q 306 18 319 18 q 219 28 251 22 q 144 54 187 35 q 123 64 132 60 q 107 73 114 68 q 97 87 100 79 q 93 160 93 103 l 93 189 q 115 272 93 272 q 132 244 129 272 q 157 142 141 182 q 212 75 172 102 q 260 53 233 61 q 307 45 286 45 q 324 55 321 45 q 328 92 328 64 l 328 382 q 322 420 328 410 q 297 437 317 430 q 106 659 106 511 q 133 756 106 709 q 205 833 161 802 q 300 871 250 864 q 323 881 319 873 q 328 916 328 888 l 328 996 q 330 1023 328 1015 q 342 1032 332 1032 q 355 1026 353 1032 q 358 996 358 1020 m 328 596 l 328 800 q 310 843 328 843 q 222 800 260 843 q 184 708 184 758 q 212 627 184 658 q 293 564 240 595 q 315 555 313 555 q 328 596 328 555 m 358 359 l 358 62 q 370 49 358 49 q 397 57 376 49 q 425 71 417 65 q 511 218 511 121 q 482 315 511 275 q 400 386 453 355 q 372 400 378 400 q 358 359 358 400 z "},"%":{"ha":1055,"x_min":24,"x_max":1036,"o":"m 212 340 q 110 385 153 340 q 45 495 67 430 q 24 618 24 560 q 45 741 24 675 q 111 851 67 806 q 214 896 154 896 q 291 871 254 896 q 350 811 327 847 q 400 618 400 732 q 354 433 400 511 q 294 367 332 393 q 212 340 256 340 m 214 366 q 287 408 262 366 q 319 505 313 451 q 326 612 326 558 q 214 861 326 861 q 121 783 145 861 q 97 612 97 704 q 121 444 97 522 q 214 366 145 366 m 838 854 l 268 16 q 260 2 265 12 q 249 -11 254 -7 q 235 -16 243 -16 l 214 -17 q 205 -8 205 -17 q 224 22 205 4 l 791 863 q 802 879 797 871 q 814 892 808 888 q 832 896 821 896 q 852 884 852 896 q 850 874 852 878 q 843 863 848 869 q 838 854 838 857 m 850 -17 q 748 28 791 -17 q 683 138 705 73 q 661 261 661 203 q 683 385 661 319 q 748 495 705 451 q 850 539 791 539 q 928 514 892 539 q 987 453 965 490 q 1036 261 1036 378 q 991 78 1036 154 q 931 10 968 37 q 850 -17 894 -17 m 851 14 q 964 262 964 14 q 943 435 964 357 q 851 513 922 513 q 757 434 781 513 q 733 262 733 355 q 757 92 733 171 q 851 14 781 14 z "},"&":{"ha":972,"x_min":26,"x_max":960,"o":"m 696 208 l 772 119 q 821 65 802 83 q 864 37 840 47 q 926 26 888 27 q 960 8 960 23 q 928 -5 960 -5 q 844 -3 900 -5 q 761 0 789 0 q 677 -3 733 0 q 595 -5 622 -5 q 575 9 575 -5 q 599 24 575 24 q 672 60 672 24 q 633 126 672 80 q 597 160 604 160 q 586 153 595 160 q 573 140 578 146 q 564 131 568 135 q 476 53 519 86 q 386 0 434 20 q 281 -20 338 -20 q 155 11 214 -20 q 61 96 96 41 q 26 218 26 151 q 66 346 26 292 q 187 435 101 396 q 225 452 199 440 q 272 477 250 465 q 294 496 294 490 q 265 536 294 500 q 214 614 236 572 q 192 705 192 656 q 227 807 192 762 q 317 873 262 851 q 427 896 372 896 q 540 876 487 896 q 626 815 593 857 q 659 713 659 774 q 615 618 659 652 q 586 598 601 607 q 556 582 570 589 q 521 564 541 574 q 485 547 501 555 l 447 530 q 437 525 441 528 q 430 520 433 523 q 427 513 427 517 q 434 499 427 509 q 449 482 441 490 l 608 307 q 642 279 629 279 q 664 293 653 279 l 677 314 q 727 386 698 339 q 755 453 755 433 q 694 493 755 493 q 660 496 671 493 q 648 509 648 498 q 679 524 648 524 q 737 520 701 524 q 781 517 772 517 q 844 520 794 517 q 928 524 895 524 q 953 510 953 524 q 925 493 953 493 q 846 468 878 493 q 724 326 802 437 q 695 288 720 321 q 671 248 671 255 q 682 226 671 239 q 696 208 693 213 m 571 195 l 564 201 l 354 435 q 342 450 348 443 q 329 461 336 456 q 317 467 322 467 q 279 452 309 467 q 239 431 250 437 q 158 358 188 403 q 127 256 127 313 q 155 152 127 200 q 229 77 182 104 q 330 49 275 49 q 443 74 391 49 q 543 149 494 100 q 553 159 545 150 q 566 178 561 169 q 571 195 571 187 m 363 582 l 406 546 q 468 574 419 546 q 546 635 522 601 q 570 728 570 670 q 527 832 570 791 q 421 873 485 873 q 317 841 359 873 q 275 746 275 809 q 363 582 275 678 z "},"'":{"ha":278,"x_min":86,"x_max":179,"o":"m 110 497 l 87 783 q 86 822 87 808 q 131 896 86 896 q 179 818 179 896 q 176 783 179 802 l 144 497 q 144 486 144 492 q 142 473 143 480 q 137 459 141 465 q 126 453 133 453 q 116 460 119 453 q 112 478 113 468 q 110 497 111 489 z "},"(":{"ha":500,"x_min":52,"x_max":490,"o":"m 52 414 q 90 626 52 531 q 208 810 128 722 q 383 946 290 899 q 412 959 391 949 q 452 976 433 969 q 478 983 471 983 q 487 981 484 983 q 490 974 490 979 q 482 964 490 966 q 157 415 157 841 q 482 -135 157 -12 q 490 -143 490 -138 q 478 -154 490 -154 q 410 -129 459 -154 q 328 -83 360 -104 q 253 -24 288 -56 q 187 43 218 7 q 129 125 157 79 q 70 263 87 195 q 52 414 52 331 z "},")":{"ha":500,"x_min":0,"x_max":439,"o":"m 439 414 q 361 125 439 253 q 274 11 325 64 q 163 -83 224 -41 q 125 -105 157 -87 q 60 -139 94 -123 q 14 -154 26 -154 q 0 -143 0 -154 q 9 -135 0 -138 q 335 415 335 -11 q 9 964 335 840 q 0 974 0 966 q 12 983 0 983 q 38 976 20 983 q 78 959 57 969 q 107 946 99 949 q 282 810 200 899 q 400 628 361 724 q 439 414 439 532 z "},"*":{"ha":472,"x_min":46,"x_max":415,"o":"m 336 717 q 307 713 330 716 q 269 705 285 710 q 253 690 253 699 q 306 669 253 676 q 387 652 359 662 q 415 610 415 643 q 402 580 415 593 q 372 567 389 567 q 338 581 355 567 q 303 618 321 594 q 273 657 286 643 q 249 671 260 671 q 237 659 237 671 q 258 602 237 652 q 278 528 278 552 q 265 495 278 507 q 231 484 252 484 q 183 529 183 484 q 203 602 183 552 q 224 659 224 652 q 212 671 224 671 q 172 635 199 671 q 128 584 144 600 q 89 567 113 567 q 59 580 73 567 q 46 610 46 593 q 68 649 46 637 q 122 665 90 661 q 181 674 153 669 q 208 690 208 679 q 178 708 208 703 q 119 716 147 713 q 68 732 90 720 q 46 770 46 744 q 59 800 46 787 q 89 814 72 814 q 125 800 111 814 q 169 748 139 786 q 212 710 199 710 q 224 722 224 710 q 210 763 224 727 q 189 818 195 799 q 183 852 183 838 q 196 885 183 874 q 231 896 210 896 q 265 884 252 896 q 278 851 278 873 q 272 818 278 836 q 252 763 266 799 q 237 722 237 727 q 249 710 237 710 q 290 745 262 710 q 333 797 317 781 q 372 814 349 814 q 402 800 389 814 q 415 770 415 787 q 393 731 415 741 q 336 717 372 721 z "},"+":{"ha":778,"x_min":81,"x_max":696,"o":"m 81 471 l 351 471 l 351 743 l 427 743 l 427 471 l 696 471 l 696 396 l 427 396 l 427 122 l 351 122 l 351 396 l 81 396 l 81 471 z "},",":{"ha":361,"x_min":103,"x_max":257,"o":"m 172 109 q 235 74 214 109 q 257 -5 257 39 q 246 -77 257 -40 q 215 -148 235 -114 q 172 -207 196 -181 q 143 -237 162 -220 q 114 -254 125 -254 q 106 -251 110 -254 q 103 -243 103 -248 q 133 -205 103 -239 q 186 -134 163 -172 q 208 -56 208 -97 q 164 -17 208 -17 q 109 40 109 -17 q 126 90 109 71 q 172 109 143 109 z "},"-":{"ha":444,"x_min":36,"x_max":410,"o":"m 387 281 l 36 281 l 58 353 l 410 353 l 387 281 z "},".":{"ha":361,"x_min":119,"x_max":240,"o":"m 182 -17 q 137 3 154 -17 q 119 52 119 23 q 137 102 119 83 q 184 121 155 121 q 227 101 214 121 q 240 52 240 82 q 182 -17 240 -17 z "},"/":{"ha":555,"x_min":0,"x_max":545,"o":"m 3 -71 l 492 951 q 499 968 496 960 q 506 980 502 976 q 521 983 511 983 q 545 977 545 983 q 534 951 545 968 l 54 -57 q 48 -72 50 -66 q 41 -82 45 -78 q 29 -86 37 -86 l 16 -86 q 0 -79 0 -86 q 3 -71 0 -77 z "},":":{"ha":361,"x_min":119,"x_max":240,"o":"m 182 385 q 137 405 154 385 q 119 453 119 425 q 137 503 119 484 q 184 522 155 522 q 227 503 213 522 q 240 453 240 483 q 182 385 240 385 m 182 -17 q 137 3 154 -17 q 119 52 119 23 q 137 102 119 83 q 184 121 155 121 q 227 101 214 121 q 240 52 240 82 q 182 -17 240 -17 z "},";":{"ha":361,"x_min":103,"x_max":257,"o":"m 172 109 q 235 74 214 109 q 257 -5 257 39 q 246 -77 257 -40 q 215 -148 235 -114 q 172 -207 196 -181 q 143 -237 162 -220 q 114 -254 125 -254 q 106 -251 110 -254 q 103 -243 103 -248 q 133 -205 103 -239 q 186 -134 163 -172 q 208 -56 208 -97 q 164 -17 208 -17 q 109 40 109 -17 q 126 90 109 71 q 172 109 143 109 m 172 379 q 127 399 144 379 q 110 447 110 419 q 128 497 110 478 q 175 517 146 517 q 217 496 203 517 q 231 447 231 476 q 216 398 231 416 q 172 379 201 379 z "},"<":{"ha":778,"x_min":66,"x_max":722,"o":"m 722 175 l 722 98 l 66 400 l 66 469 l 722 775 l 722 697 l 151 433 l 722 175 z "},"=":{"ha":778,"x_min":81,"x_max":696,"o":"m 81 564 l 696 564 l 696 488 l 81 488 l 81 564 m 81 380 l 696 380 l 696 304 l 81 304 l 81 380 z "},">":{"ha":778,"x_min":66,"x_max":722,"o":"m 66 175 l 636 433 l 66 697 l 66 775 l 722 469 l 722 400 l 66 98 l 66 175 z "},"?":{"ha":416,"x_min":36,"x_max":386,"o":"m 122 -17 q 77 3 94 -17 q 60 52 60 23 q 77 102 60 83 q 125 121 95 121 q 167 101 154 121 q 180 52 180 82 q 122 -17 180 -17 m 110 275 l 92 376 q 89 395 90 387 q 87 408 87 403 q 105 445 87 429 q 158 488 123 461 q 279 596 237 544 q 322 721 322 648 q 293 811 322 774 q 253 846 277 833 q 205 860 229 860 q 158 844 172 860 q 118 784 145 829 q 72 739 91 739 q 44 777 53 739 q 36 842 36 815 q 39 863 36 856 q 54 878 42 871 q 161 896 87 896 q 273 864 221 896 q 355 779 325 832 q 386 664 386 725 q 371 574 386 613 q 328 503 355 535 q 258 437 300 471 l 207 397 q 178 372 191 383 q 158 350 165 361 q 146 325 150 340 q 142 286 142 309 l 142 256 q 131 239 142 239 q 119 245 123 239 q 113 261 115 251 q 110 275 111 271 z "},"@":{"ha":1028,"x_min":87,"x_max":928,"o":"m 865 240 l 917 240 q 854 134 895 182 q 760 53 813 86 q 648 1 707 19 q 526 -17 589 -17 q 354 19 435 -17 q 214 117 273 55 q 121 264 155 180 q 87 441 87 349 q 121 615 87 532 q 215 762 154 698 q 355 861 275 826 q 524 896 435 896 q 678 869 604 896 q 808 791 752 842 q 896 671 865 741 q 928 515 928 601 q 919 433 928 473 q 892 355 909 393 q 851 289 875 318 q 754 204 812 239 q 639 170 697 170 q 575 189 606 170 q 541 240 545 208 q 395 171 473 171 q 290 221 328 171 q 252 340 252 271 q 286 508 252 421 q 383 651 321 594 q 528 708 446 708 q 604 690 570 708 q 648 636 639 673 l 667 692 l 766 692 l 654 355 q 624 237 624 254 q 654 212 624 212 q 717 229 684 212 q 775 271 749 246 q 850 381 824 315 q 876 519 876 448 q 848 649 876 589 q 770 752 819 709 q 659 820 722 796 q 530 844 595 844 q 379 814 450 844 q 254 729 308 784 q 170 601 200 673 q 139 446 139 528 q 190 240 139 335 q 330 91 240 146 q 528 36 419 36 q 724 92 631 36 q 865 240 817 149 m 557 368 l 615 545 q 625 585 625 570 q 607 648 625 622 q 554 673 589 673 q 448 601 496 673 q 372 433 400 529 q 343 281 343 337 q 362 227 343 248 q 412 205 382 205 q 557 368 503 205 z "},"A":{"ha":889,"x_min":-14,"x_max":893,"o":"m 235 262 l 193 157 q 174 81 174 109 q 267 29 174 29 q 302 11 302 29 q 269 -5 302 -5 q 212 -3 250 -5 q 153 0 173 0 q 95 -3 134 0 q 36 -5 56 -5 q -3 -3 7 -5 q -14 9 -14 0 q 25 29 -14 29 q 94 52 74 29 q 147 163 116 75 l 415 865 q 425 889 421 882 q 439 896 429 896 q 458 869 450 896 l 739 165 q 755 126 745 152 q 779 77 765 100 q 811 42 793 54 q 852 29 829 29 q 893 8 893 29 q 872 -5 893 -5 q 781 -3 842 -5 q 689 0 720 0 q 612 -3 664 0 q 534 -5 561 -5 q 513 8 513 -5 q 553 29 513 29 q 617 37 593 29 q 642 72 642 44 q 623 140 642 89 l 578 248 q 554 302 559 293 q 538 315 549 312 q 492 318 528 318 l 302 318 q 265 315 275 318 q 252 304 255 311 q 235 262 248 296 m 376 642 l 281 386 q 277 370 277 374 q 286 362 277 363 q 326 361 296 361 l 486 361 q 526 372 526 361 q 522 390 526 376 q 517 403 517 404 l 422 642 q 416 655 420 645 q 408 674 413 665 q 400 684 403 684 q 391 676 395 684 q 382 656 386 668 q 376 642 378 645 z "},"B":{"ha":889,"x_min":35,"x_max":835,"o":"m 179 150 l 179 726 l 179 762 q 167 823 179 802 q 117 844 155 844 q 80 839 102 844 q 50 833 58 833 q 35 846 35 833 q 53 868 35 861 q 98 879 71 874 q 374 896 191 896 q 532 890 465 896 q 648 861 598 884 q 742 792 705 838 q 779 686 779 745 q 752 594 779 633 q 682 530 724 554 q 586 494 639 506 q 679 468 633 488 q 759 417 724 448 q 814 341 793 385 q 835 245 835 298 q 805 134 835 186 q 726 49 775 82 q 627 5 679 16 q 503 -5 576 -5 q 334 -3 446 -5 q 164 0 222 0 q 121 -3 151 0 q 77 -5 92 -5 q 53 16 53 -5 q 60 26 53 24 q 87 29 66 29 q 150 39 132 29 q 174 74 169 50 q 179 150 179 98 m 289 764 l 289 567 q 293 520 289 533 q 310 504 297 507 q 357 500 322 500 l 432 500 q 528 510 486 500 q 602 550 570 520 q 653 679 653 597 q 586 824 653 778 q 416 869 519 869 q 302 844 325 869 q 289 764 289 827 m 289 407 l 289 180 q 296 97 289 132 q 329 45 303 62 q 463 24 361 24 q 563 35 520 24 q 642 81 606 47 q 693 154 675 111 q 711 241 711 197 q 684 353 711 304 q 604 431 657 402 q 510 464 560 456 q 383 471 460 471 q 359 472 370 471 q 335 472 348 472 q 297 460 305 472 q 289 407 289 448 z "},"C":{"ha":861,"x_min":53,"x_max":810,"o":"m 793 787 l 803 696 q 787 677 803 677 q 757 713 778 677 q 715 779 736 749 q 647 832 694 808 q 525 857 600 857 q 374 823 439 857 q 265 732 309 789 q 199 599 222 674 q 176 444 176 524 q 262 170 176 291 q 380 60 314 100 q 525 21 446 21 q 647 51 600 21 q 716 115 694 81 q 761 195 738 148 q 794 241 784 241 q 810 224 810 241 l 803 110 q 799 75 802 85 q 787 58 797 65 q 758 41 778 51 q 635 -3 693 11 q 507 -17 576 -17 q 279 46 383 -17 q 114 215 174 109 q 53 443 53 321 q 92 622 53 538 q 198 766 131 705 q 353 862 265 827 q 534 896 441 896 q 645 885 583 896 q 754 859 708 874 q 784 838 779 850 q 793 787 789 827 z "},"D":{"ha":1028,"x_min":35,"x_max":965,"o":"m 165 150 l 165 729 l 165 760 q 157 812 165 794 q 119 829 148 829 q 78 822 103 829 q 50 814 54 814 q 35 829 35 814 q 113 866 35 851 q 293 888 192 881 q 433 896 394 896 q 625 870 534 896 q 790 787 716 844 q 884 692 845 745 q 944 575 922 638 q 965 446 965 513 q 926 260 965 349 q 817 110 886 172 q 655 20 744 45 q 456 -5 566 -5 q 378 -4 417 -5 q 302 -2 340 -3 q 232 -1 264 -1 q 150 0 200 0 q 106 -3 134 0 q 62 -5 77 -5 q 39 14 39 -5 q 75 29 39 29 q 136 38 117 29 q 160 64 155 46 q 165 119 165 82 l 165 150 m 275 757 l 275 175 q 287 78 275 109 q 330 34 299 46 q 424 21 361 21 q 592 45 519 21 q 724 132 665 69 q 787 221 761 172 q 826 325 812 270 q 839 433 839 380 q 807 611 839 531 q 719 747 776 690 q 584 834 662 804 q 410 864 505 864 q 290 840 314 864 q 275 757 275 823 z "},"E":{"ha":778,"x_min":35,"x_max":729,"o":"m 271 762 l 271 559 q 276 514 271 527 q 294 497 281 500 q 340 494 307 494 q 509 500 454 494 q 541 527 532 503 q 557 596 549 551 q 575 619 561 619 q 590 606 590 619 q 583 485 589 563 q 590 354 589 392 q 575 328 590 328 q 557 353 560 328 q 509 441 543 434 q 340 454 454 454 q 283 448 295 454 q 271 407 271 441 l 271 163 q 290 73 271 101 q 341 38 309 45 q 441 32 374 32 q 601 53 549 32 q 685 158 653 75 q 692 178 688 167 q 702 197 696 189 q 715 205 708 205 q 729 191 729 205 q 724 157 729 180 l 703 8 q 688 0 701 0 l 144 0 q 101 -3 130 0 q 58 -5 72 -5 q 35 16 35 -5 q 71 32 35 32 q 132 41 113 32 q 156 74 151 51 q 161 150 161 98 l 161 721 q 156 795 161 772 q 132 827 151 818 q 71 836 113 836 q 35 852 35 836 q 58 873 35 873 q 189 871 101 873 q 319 868 276 868 q 497 871 379 868 q 673 873 615 873 q 689 863 686 873 q 693 822 693 852 l 693 701 q 681 672 693 672 q 659 700 671 672 l 637 739 q 603 793 622 774 q 551 822 585 812 q 399 836 505 836 q 293 828 315 836 q 275 809 279 823 q 271 762 271 795 z "},"F":{"ha":722,"x_min":35,"x_max":688,"o":"m 161 146 l 161 724 q 156 797 161 774 q 133 828 151 819 q 71 836 114 836 q 35 856 35 836 q 58 873 35 873 q 124 871 81 873 q 189 868 167 868 q 308 869 249 869 q 427 871 368 870 q 536 873 486 872 q 665 873 585 873 q 684 863 680 873 q 688 825 688 853 l 688 726 q 685 683 688 694 q 673 672 683 672 q 652 701 660 672 q 615 779 637 751 q 563 819 593 806 q 499 833 533 831 q 407 836 466 836 q 289 827 311 836 q 271 758 271 817 l 271 559 q 276 514 271 527 q 294 497 281 500 q 340 494 307 494 q 509 500 454 494 q 541 527 532 503 q 557 596 549 551 q 575 619 561 619 q 590 606 590 619 q 583 485 589 563 q 590 354 589 392 q 575 328 590 328 q 557 353 560 328 q 509 441 543 434 q 340 454 454 454 q 283 448 295 454 q 271 407 271 441 l 271 146 q 273 88 271 111 q 284 52 276 65 q 310 35 293 39 q 361 29 327 31 q 397 12 397 29 q 374 -5 397 -5 q 296 -3 347 -5 q 218 0 244 0 q 139 -3 192 0 q 60 -5 86 -5 q 36 12 36 -5 q 71 29 36 29 q 132 37 113 29 q 156 62 151 45 q 161 115 161 79 l 161 146 z "},"G":{"ha":1028,"x_min":54,"x_max":986,"o":"m 844 761 l 847 703 q 843 683 847 691 q 827 675 838 675 q 794 714 813 675 q 759 779 776 753 q 692 831 741 806 q 559 856 644 856 q 402 825 474 856 q 281 732 330 795 q 207 592 233 674 q 180 432 180 511 q 281 146 180 262 q 366 73 320 100 q 465 33 412 45 q 581 21 518 21 q 739 60 692 21 q 765 178 765 85 l 765 294 q 758 355 765 336 q 732 379 751 373 q 671 386 713 386 q 637 403 637 386 q 669 421 637 421 q 749 418 703 421 q 819 415 795 415 q 886 418 843 415 q 962 421 930 421 q 986 404 986 421 q 960 386 986 386 l 933 383 q 917 381 926 382 q 901 379 907 380 q 890 372 895 377 q 875 294 875 357 l 875 134 q 871 85 875 98 q 850 60 867 71 q 712 2 789 20 q 554 -17 635 -17 q 215 93 348 -17 q 95 242 135 160 q 54 422 54 324 q 130 666 54 558 q 326 835 205 774 q 582 896 447 896 q 806 857 709 896 q 830 842 822 852 q 841 823 839 833 q 843 795 843 812 q 844 761 844 777 z "},"H":{"ha":1028,"x_min":35,"x_max":991,"o":"m 269 397 l 269 146 q 272 88 269 111 q 283 52 275 65 q 308 35 292 39 q 359 29 325 31 q 396 12 396 29 q 372 -5 396 -5 q 294 -3 346 -5 q 216 0 243 0 q 138 -3 191 0 q 58 -5 85 -5 q 35 12 35 -5 q 69 29 35 29 q 130 37 111 29 q 155 62 149 45 q 160 115 160 79 l 160 146 l 160 721 l 160 751 q 155 804 160 787 q 131 828 149 821 q 69 836 112 836 q 35 854 35 836 q 58 873 35 873 q 136 871 85 873 q 214 868 188 868 q 293 871 240 868 q 372 873 346 873 q 396 854 396 873 q 359 836 396 836 q 298 828 317 836 q 275 804 280 821 q 269 751 269 787 l 269 721 l 269 541 q 271 502 269 511 q 282 490 273 492 q 318 488 291 488 l 707 488 q 748 496 741 488 q 755 541 755 505 l 755 721 l 755 751 q 750 804 755 787 q 727 828 745 821 q 665 836 708 836 q 631 854 631 836 q 654 873 631 873 q 732 871 680 873 q 810 868 783 868 q 889 871 836 868 q 968 873 942 873 q 991 854 991 873 q 956 836 991 836 q 895 828 913 836 q 870 804 876 821 q 865 751 865 787 l 865 721 l 865 146 q 868 88 865 111 q 879 52 871 65 q 904 35 888 39 q 956 29 921 31 q 991 12 991 29 q 968 -5 991 -5 q 890 -3 942 -5 q 812 0 839 0 q 733 -3 786 0 q 654 -5 680 -5 q 631 12 631 -5 q 665 29 631 29 q 726 37 707 29 q 750 62 745 45 q 755 115 755 79 l 755 146 l 755 397 q 753 435 755 426 q 742 447 751 445 q 707 449 734 449 l 322 449 q 286 446 297 449 q 272 432 275 443 q 269 397 269 422 z "},"I":{"ha":444,"x_min":36,"x_max":397,"o":"m 161 146 l 161 721 l 161 751 q 156 804 161 787 q 132 828 151 821 q 71 836 113 836 q 36 854 36 836 q 60 873 36 873 q 138 871 86 873 q 215 868 189 868 q 294 871 241 868 q 374 873 347 873 q 397 854 397 873 q 361 836 397 836 q 300 828 318 836 q 276 804 281 821 q 271 751 271 787 l 271 721 l 271 146 q 273 88 271 111 q 284 52 276 65 q 310 35 293 39 q 361 29 327 31 q 397 12 397 29 q 374 -5 397 -5 q 296 -3 347 -5 q 218 0 244 0 q 139 -3 192 0 q 60 -5 86 -5 q 36 12 36 -5 q 71 29 36 29 q 132 37 113 29 q 156 62 151 45 q 161 115 161 79 l 161 146 z "},"J":{"ha":444,"x_min":-129,"x_max":418,"o":"m 292 721 l 292 165 q 286 47 292 93 q 261 -44 280 1 q 204 -138 242 -89 q 94 -235 159 -192 q -29 -278 29 -278 q -98 -258 -67 -278 q -129 -201 -129 -238 q -110 -160 -129 -177 q -66 -143 -91 -143 q -3 -186 -32 -143 q 21 -214 14 -208 q 43 -221 28 -221 q 78 -211 60 -221 q 111 -187 96 -201 q 139 -157 127 -172 q 174 -54 167 -117 q 182 94 182 9 l 182 721 l 182 751 q 177 804 182 787 q 153 828 172 821 q 92 836 134 836 q 57 854 57 836 q 81 873 57 873 q 159 871 108 873 q 236 868 210 868 q 315 871 262 868 q 395 873 368 873 q 418 854 418 873 q 382 836 418 836 q 321 828 340 836 q 297 804 302 821 q 292 751 292 787 l 292 721 z "},"K":{"ha":917,"x_min":36,"x_max":922,"o":"m 161 146 l 161 721 l 161 751 q 156 804 161 787 q 132 828 151 821 q 71 836 113 836 q 36 854 36 836 q 60 873 36 873 q 138 871 86 873 q 215 868 189 868 q 294 871 241 868 q 374 873 347 873 q 397 854 397 873 q 361 836 397 836 q 300 828 318 836 q 276 804 281 821 q 271 751 271 787 l 271 721 l 271 460 q 279 437 271 437 q 294 449 288 437 l 555 714 q 624 806 624 785 q 579 836 624 836 q 538 854 538 836 q 561 873 538 873 q 639 871 587 873 q 717 868 690 868 q 786 871 740 868 q 854 873 832 873 q 875 856 875 873 q 833 836 875 836 q 739 822 772 836 q 619 729 686 799 l 471 578 q 436 534 436 548 q 441 522 436 530 q 453 505 446 515 q 463 494 461 496 l 713 175 q 811 61 783 87 q 846 37 832 43 q 886 29 861 31 q 922 12 922 29 q 892 -5 922 -5 q 806 -3 863 -5 q 720 0 749 0 q 645 -3 694 0 q 571 -5 595 -5 q 550 -3 557 -5 q 542 9 542 0 q 581 26 542 26 q 632 33 611 26 q 653 61 653 39 q 639 96 653 77 q 604 142 625 116 l 387 421 q 382 429 385 424 q 374 440 378 434 q 364 449 369 446 q 354 453 359 453 q 335 440 348 453 q 313 418 322 428 q 293 400 302 408 q 277 381 284 391 q 271 361 271 372 l 271 146 q 273 88 271 111 q 284 52 276 65 q 310 35 293 39 q 361 29 327 31 q 397 12 397 29 q 374 -5 397 -5 q 296 -3 347 -5 q 218 0 244 0 q 139 -3 192 0 q 60 -5 86 -5 q 36 12 36 -5 q 71 29 36 29 q 132 37 113 29 q 156 62 151 45 q 161 115 161 79 l 161 146 z "},"L":{"ha":667,"x_min":35,"x_max":652,"o":"m 269 721 l 269 189 q 276 95 269 125 q 310 48 283 64 q 397 32 336 32 q 550 79 495 32 q 623 195 588 111 q 639 214 630 214 q 652 193 652 214 q 644 116 652 166 q 636 47 637 66 q 633 13 635 20 q 624 0 632 5 q 600 -5 616 -5 q 500 -4 551 -5 q 390 -2 449 -3 q 297 -1 331 -1 q 197 0 264 0 q 128 -3 174 0 q 58 -5 83 -5 q 35 14 35 -5 q 71 32 35 32 q 131 39 112 32 q 155 64 149 47 q 160 117 160 81 l 160 147 l 160 721 l 160 751 q 155 804 160 787 q 131 828 149 821 q 69 836 112 836 q 35 854 35 836 q 58 873 35 873 q 136 871 85 873 q 214 868 188 868 q 293 871 240 868 q 372 873 346 873 q 396 854 396 873 q 359 836 396 836 q 298 828 317 836 q 275 804 280 821 q 269 751 269 787 l 269 721 z "},"M":{"ha":1111,"x_min":9,"x_max":1082,"o":"m 304 833 l 557 193 l 843 856 q 880 873 851 873 l 1035 873 q 1067 871 1060 873 q 1075 859 1075 869 q 1042 836 1075 836 q 981 825 990 836 q 968 765 968 810 q 969 742 968 754 q 970 725 970 729 l 970 146 q 973 87 970 115 q 985 47 976 59 q 1039 29 1000 29 q 1082 11 1082 29 q 1055 -5 1082 -5 q 989 -3 1034 -5 q 922 0 944 0 q 840 -3 895 0 q 757 -5 785 -5 q 730 11 730 -5 q 774 29 730 29 q 807 34 787 29 q 839 49 827 39 q 860 146 860 68 l 860 782 l 850 782 l 542 52 q 521 26 532 26 q 500 53 507 26 l 227 764 l 216 764 l 176 186 q 175 138 175 170 q 195 57 175 85 q 268 29 214 29 q 311 11 311 29 q 281 -5 311 -5 q 218 -3 260 -5 q 155 0 177 0 q 94 -3 135 0 q 32 -5 52 -5 q 9 11 9 -5 q 46 29 9 29 q 114 53 99 29 q 132 135 129 76 l 175 755 q 176 789 176 768 q 162 828 176 820 q 100 836 149 836 q 66 859 66 836 q 74 871 66 869 q 107 873 82 873 l 268 873 q 291 865 286 873 q 304 833 296 857 z "},"N":{"ha":972,"x_min":35,"x_max":956,"o":"m 790 180 l 790 720 q 785 794 790 771 q 761 827 780 817 q 699 836 742 836 q 664 851 664 836 q 689 873 664 873 q 750 871 709 873 q 811 868 791 868 q 871 871 831 868 q 932 873 911 873 q 956 851 956 873 q 920 836 956 836 q 858 827 877 836 q 834 794 839 817 q 829 720 829 770 l 829 7 q 819 -20 829 -20 q 785 14 806 -20 l 201 781 l 201 146 l 201 117 q 216 46 201 64 q 292 29 231 29 q 319 27 313 29 q 326 16 326 24 q 302 -5 326 -5 q 242 -3 282 -5 q 180 0 202 0 q 121 -3 161 0 q 60 -5 80 -5 q 35 16 35 -5 q 42 27 35 24 q 71 29 50 29 q 131 37 111 29 q 156 63 151 45 q 161 117 161 80 l 161 146 l 161 720 l 161 750 q 156 804 161 787 q 132 828 151 821 q 71 836 113 836 q 36 851 36 836 q 69 873 36 873 l 241 873 q 270 860 260 869 q 298 825 280 850 l 790 180 z "},"O":{"ha":1083,"x_min":53,"x_max":1021,"o":"m 53 440 q 121 669 53 564 q 302 835 189 774 q 538 896 414 896 q 724 863 637 896 q 879 770 812 831 q 983 625 946 709 q 1021 440 1021 541 q 983 256 1021 340 q 879 111 945 172 q 725 16 812 50 q 538 -17 637 -17 q 302 44 414 -17 q 121 210 190 105 q 53 440 53 315 m 895 440 q 873 599 895 528 q 803 730 852 670 q 686 825 753 791 q 541 859 619 859 q 386 824 458 859 q 265 726 313 789 q 199 596 220 671 q 178 440 178 521 q 200 280 178 355 q 271 147 222 205 q 391 54 321 86 q 541 22 460 22 q 640 38 590 22 q 732 85 689 54 q 808 157 774 115 q 875 288 856 219 q 895 440 895 357 z "},"P":{"ha":778,"x_min":33,"x_max":714,"o":"m 158 146 l 158 721 l 158 755 q 143 821 158 805 q 69 836 128 836 q 35 854 35 836 q 58 873 35 873 q 132 871 84 873 q 205 868 180 868 q 317 871 243 868 q 427 873 390 873 q 612 827 545 873 q 686 742 659 795 q 714 635 714 689 q 677 503 714 562 q 577 411 640 444 q 444 378 515 378 q 387 387 418 378 l 321 410 q 290 416 297 416 q 272 407 275 416 q 268 378 268 397 l 268 146 q 271 88 268 111 q 282 52 273 65 q 307 35 290 39 q 358 29 323 31 q 395 12 395 29 q 371 -5 395 -5 q 293 -3 345 -5 q 215 0 241 0 q 136 -3 189 0 q 57 -5 83 -5 q 33 12 33 -5 q 68 29 33 29 q 129 37 110 29 q 153 62 148 45 q 158 115 158 79 l 158 146 m 268 728 l 268 521 q 268 506 268 511 q 267 493 267 500 q 290 446 267 460 q 343 426 309 435 q 401 418 376 418 q 503 447 457 418 q 573 524 548 476 q 599 628 599 572 q 581 723 599 677 q 526 800 563 768 q 368 848 473 848 q 300 837 321 848 q 273 801 279 825 q 268 728 268 777 z "},"Q":{"ha":1083,"x_min":53,"x_max":1023,"o":"m 469 -22 q 309 34 385 -5 q 176 132 234 73 q 85 269 118 192 q 53 433 53 346 q 122 670 53 563 q 306 836 191 777 q 546 896 420 896 q 732 861 645 896 q 884 763 819 827 q 987 614 950 699 q 1023 431 1023 529 q 970 224 1023 319 q 826 65 917 128 q 627 -17 734 1 q 597 -24 606 -20 q 589 -43 589 -27 q 612 -103 589 -70 q 661 -157 635 -136 q 762 -213 704 -192 q 872 -235 820 -235 q 982 -218 938 -235 q 1007 -207 1000 -207 q 1018 -212 1014 -207 q 1022 -225 1022 -217 q 985 -257 1022 -244 q 900 -277 947 -270 q 833 -285 852 -285 q 710 -269 774 -285 q 595 -225 645 -253 q 502 -149 542 -193 q 463 -56 463 -104 q 469 -22 463 -41 m 541 12 q 808 153 702 12 q 876 283 855 216 q 896 436 896 351 q 804 726 896 610 q 533 859 699 859 q 434 843 483 859 q 342 798 385 827 q 268 729 300 769 q 179 452 179 621 q 223 244 179 345 q 349 77 267 142 q 541 12 431 12 z "},"R":{"ha":806,"x_min":36,"x_max":818,"o":"m 161 146 l 161 720 l 161 750 q 156 804 161 787 q 132 828 151 821 q 71 836 113 836 q 36 852 36 836 q 61 873 36 873 q 130 871 84 873 q 197 868 175 868 q 317 871 238 868 q 435 873 395 873 q 534 860 486 873 q 618 821 583 846 q 675 755 654 796 q 697 661 697 714 q 667 553 697 600 q 588 479 637 507 q 478 443 538 452 q 524 416 508 438 q 562 351 540 394 l 675 132 q 724 52 705 74 q 782 29 743 29 q 818 9 818 29 q 793 -5 818 -5 l 646 -5 q 624 2 633 -5 q 612 16 616 9 q 599 41 608 24 l 463 315 q 418 395 429 379 q 385 418 407 412 q 309 425 363 425 q 278 418 285 425 q 271 363 271 408 l 271 146 q 273 88 271 111 q 284 52 276 65 q 310 35 293 39 q 361 29 327 31 q 397 12 397 29 q 374 -5 397 -5 q 296 -3 347 -5 q 218 0 244 0 q 139 -3 192 0 q 60 -5 86 -5 q 36 12 36 -5 q 71 29 36 29 q 132 37 113 29 q 156 62 151 45 q 161 115 161 79 l 161 146 m 271 732 l 271 481 q 310 454 271 454 q 326 455 319 455 q 342 456 333 456 q 438 465 399 456 q 515 503 477 473 q 579 646 579 552 q 555 754 579 710 q 486 822 530 799 q 379 844 441 844 q 303 837 324 844 q 276 809 281 829 q 271 732 271 788 z "},"S":{"ha":667,"x_min":60,"x_max":608,"o":"m 346 401 l 275 432 q 170 488 212 460 q 101 558 128 516 q 74 660 74 601 q 96 758 74 715 q 156 832 118 802 q 242 879 194 863 q 342 896 290 896 q 441 888 391 896 q 528 865 492 880 q 548 849 544 859 q 553 813 551 839 q 555 764 554 788 q 558 704 557 741 q 543 688 558 688 q 532 693 536 688 q 526 706 528 698 q 521 720 523 714 q 457 832 497 796 q 340 868 418 868 q 214 829 266 868 q 161 718 161 791 q 184 643 161 676 q 245 587 208 610 q 321 546 282 563 q 404 510 359 529 q 542 422 507 460 q 590 344 572 389 q 608 256 608 299 q 511 56 608 140 q 289 -17 423 -17 q 179 -2 235 -17 q 79 37 122 12 q 63 65 66 46 q 60 117 60 83 q 61 180 60 153 q 64 225 62 207 q 85 253 67 253 q 95 249 92 253 q 100 237 98 244 q 103 220 102 229 q 104 205 104 211 q 136 100 112 143 q 203 33 160 57 q 309 9 245 9 q 453 61 390 9 q 515 192 515 113 q 494 285 515 246 q 436 350 472 323 q 346 401 400 376 z "},"T":{"ha":806,"x_min":0,"x_max":796,"o":"m 460 766 l 460 146 q 465 71 460 94 q 488 38 469 47 q 550 29 506 29 q 586 12 586 29 q 562 -5 586 -5 q 485 -3 536 -5 q 407 0 433 0 q 328 -3 380 0 q 249 -5 275 -5 q 225 12 225 -5 q 260 29 225 29 q 321 37 302 29 q 345 62 340 45 q 350 115 350 79 l 350 146 l 350 796 q 343 830 350 823 q 319 838 336 838 q 304 837 311 838 q 289 836 298 837 q 203 832 235 836 q 144 816 170 828 q 94 779 118 804 q 45 711 71 754 q 30 687 36 696 q 14 677 23 677 q 0 694 0 677 q 8 728 0 707 l 62 909 q 81 930 67 930 q 93 916 93 930 q 96 895 94 899 q 104 885 97 890 q 174 873 117 873 l 677 873 q 738 879 721 873 q 762 905 755 885 q 770 924 766 918 q 783 930 774 930 q 794 919 791 930 q 796 879 796 908 l 787 708 q 771 685 787 685 q 755 704 762 685 q 735 764 743 744 q 715 800 728 784 q 684 825 702 817 q 649 834 667 833 q 603 836 631 836 l 522 836 q 476 833 488 836 q 463 818 465 830 q 460 766 460 805 z "},"U":{"ha":972,"x_min":37,"x_max":957,"o":"m 802 281 l 802 665 q 786 804 802 777 q 755 830 775 825 q 703 836 735 836 q 665 854 665 836 q 694 873 665 873 q 757 871 715 873 q 819 868 799 868 q 874 871 838 868 q 928 873 910 873 q 957 856 957 873 q 913 836 957 836 q 861 822 877 836 q 844 790 846 807 q 840 718 842 773 l 840 281 q 828 149 840 197 q 764 57 815 102 q 503 -17 678 -17 q 410 -11 456 -17 q 319 10 363 -5 q 244 47 275 24 q 189 110 208 74 q 166 183 170 146 q 163 281 163 220 l 163 721 l 163 751 q 157 804 163 787 q 133 828 152 821 q 72 836 115 836 q 37 854 37 836 q 61 873 37 873 q 139 871 87 873 q 216 868 191 868 q 296 871 243 868 q 375 873 349 873 q 399 854 399 873 q 363 836 399 836 q 302 828 321 836 q 277 804 283 821 q 272 751 272 787 l 272 721 l 272 325 q 277 198 272 254 q 301 110 283 143 q 394 40 330 61 q 526 18 457 18 q 751 94 677 18 q 793 171 785 130 q 802 281 802 212 z "},"V":{"ha":889,"x_min":-7,"x_max":905,"o":"m 492 161 l 720 725 q 739 798 739 782 q 722 828 739 819 q 681 836 705 836 q 635 839 650 836 q 619 852 619 842 q 650 873 619 873 q 710 871 670 873 q 770 868 750 868 q 827 871 789 868 q 886 873 866 873 q 905 856 905 873 q 872 836 905 836 q 815 818 837 836 q 762 725 790 795 l 478 22 q 468 -4 473 8 q 456 -17 463 -17 q 445 -10 450 -17 q 436 7 440 -3 q 431 22 433 17 l 132 742 q 93 813 113 790 q 31 836 73 836 q -7 857 -7 836 q 22 873 -7 873 q 96 871 47 873 q 170 868 144 868 q 232 871 190 868 q 296 873 274 873 q 315 871 309 873 q 322 857 322 868 q 315 843 322 846 q 294 838 307 839 q 268 836 283 837 q 238 829 252 834 q 225 814 225 824 q 233 782 225 802 q 243 757 241 762 l 492 161 z "},"W":{"ha":1278,"x_min":-8,"x_max":1297,"o":"m 668 367 l 504 14 q 479 -17 492 -17 q 472 -15 475 -17 q 465 -6 469 -12 q 459 4 461 0 q 456 14 458 8 l 127 726 q 83 814 94 803 q 25 836 62 836 q 0 840 9 836 q -8 857 -8 844 q 14 873 -8 873 q 81 871 36 873 q 150 868 127 868 q 217 871 173 868 q 283 873 261 873 q 309 854 309 873 q 275 836 309 836 q 221 806 221 836 q 243 739 221 786 l 519 138 l 621 357 q 637 411 637 395 q 634 432 637 419 q 622 464 630 445 q 610 493 614 483 l 494 743 q 458 814 473 791 q 412 836 443 836 q 380 840 389 836 q 371 854 371 843 q 392 873 371 873 q 460 871 414 873 q 528 868 506 868 q 595 871 551 868 q 661 873 639 873 q 678 868 671 873 q 685 852 685 862 q 642 836 685 836 q 596 804 596 836 q 618 737 596 791 l 707 542 l 799 739 q 822 808 822 789 q 810 830 822 823 q 782 836 798 836 q 743 852 743 836 q 770 873 743 873 q 819 871 786 873 q 869 868 852 868 q 919 871 886 868 q 970 873 952 873 q 983 869 978 873 q 987 856 987 865 q 947 836 987 836 q 882 810 902 836 q 833 720 862 783 l 770 585 q 745 530 753 548 q 737 496 737 513 q 764 419 737 479 l 882 150 l 1118 726 q 1139 800 1139 779 q 1120 830 1139 824 q 1069 836 1101 836 q 1046 856 1046 836 q 1069 873 1046 873 q 1120 871 1086 873 q 1173 868 1155 868 q 1223 871 1189 868 q 1274 873 1257 873 q 1297 852 1297 873 q 1260 836 1297 836 q 1210 815 1228 836 q 1191 788 1200 804 q 1175 754 1182 771 q 1160 720 1167 738 l 871 16 q 866 4 869 12 q 860 -7 863 -3 q 850 -11 856 -11 q 832 4 840 -11 q 818 32 824 19 l 668 367 z "},"X":{"ha":889,"x_min":-8,"x_max":905,"o":"m 429 393 l 261 161 q 207 60 207 88 q 254 29 207 29 l 285 29 q 334 8 334 29 q 300 -5 334 -5 q 230 -3 277 -5 q 161 0 183 0 q 90 -3 138 0 q 18 -5 43 -5 q -8 8 -8 -5 q 25 29 -8 29 q 97 40 74 29 q 215 170 134 60 l 374 382 q 397 425 397 412 q 393 443 397 433 q 383 459 389 452 q 371 475 377 466 l 207 701 q 111 818 133 802 q 39 836 87 836 q -7 856 -7 836 q 22 873 -7 873 q 89 871 44 873 q 155 868 134 868 q 262 871 192 868 q 370 873 333 873 q 390 856 390 873 q 353 836 390 836 l 328 836 q 288 831 304 836 q 272 807 272 825 q 302 751 272 791 l 472 517 l 614 711 q 661 806 661 772 q 596 836 661 836 q 551 856 551 836 q 581 873 551 873 q 669 871 610 873 q 758 868 729 868 q 820 871 780 868 q 880 873 860 873 q 897 868 890 873 q 903 851 903 863 q 867 836 903 836 q 760 808 801 836 q 608 639 707 772 l 529 529 q 504 482 504 496 q 512 459 504 470 q 528 439 520 449 l 782 86 q 823 41 808 52 q 869 29 838 29 q 905 8 905 29 q 899 -3 905 -1 q 875 -5 892 -5 q 789 -3 846 -5 q 703 0 732 0 q 636 -3 681 0 q 570 -5 591 -5 q 542 9 542 -5 q 578 29 542 29 q 592 29 586 29 q 607 28 599 28 q 657 57 657 28 q 616 129 657 82 l 429 393 z "},"Y":{"ha":917,"x_min":-8,"x_max":928,"o":"m 500 425 l 690 718 q 729 802 729 779 q 669 836 729 836 q 612 850 612 836 q 644 873 612 873 q 709 871 666 873 q 772 868 751 868 q 835 871 793 868 q 899 873 877 873 q 919 868 909 873 q 928 852 928 863 q 888 836 928 836 q 836 823 861 836 q 792 790 812 810 q 751 738 772 769 q 720 692 730 707 l 549 433 q 520 384 525 394 q 513 358 515 373 q 511 302 511 343 l 511 146 q 516 71 511 94 q 539 38 521 47 q 602 29 557 29 q 637 12 637 29 q 614 -5 637 -5 q 536 -3 587 -5 q 458 0 486 0 q 379 -3 432 0 q 300 -5 326 -5 q 277 12 277 -5 q 311 29 277 29 q 372 37 353 29 q 396 62 391 45 q 401 115 401 79 l 401 146 l 401 322 q 395 385 401 367 q 364 439 389 404 l 174 724 q 129 791 142 773 q 92 822 116 808 q 31 836 68 836 q -8 854 -8 836 q 20 873 -8 873 q 82 871 40 873 q 144 868 124 868 q 240 871 176 868 q 336 873 304 873 q 361 857 361 873 q 351 840 361 844 q 323 836 340 836 q 256 808 256 836 q 289 741 256 793 l 500 425 z "},"Z":{"ha":833,"x_min":52,"x_max":778,"o":"m 60 32 l 599 791 q 615 825 615 812 q 572 836 615 836 l 359 836 q 247 815 290 836 q 191 776 205 795 q 157 722 177 757 q 126 688 138 688 q 114 701 114 688 q 118 719 114 702 q 122 739 121 736 l 163 890 q 166 906 163 894 q 173 926 169 918 q 186 933 177 933 q 200 926 196 933 q 205 907 203 920 q 220 879 208 885 q 281 873 235 873 l 742 873 q 771 863 771 873 q 764 847 771 856 l 229 92 q 222 82 225 85 q 214 67 220 78 q 208 53 208 56 q 219 42 208 45 q 256 40 230 40 l 519 40 q 681 73 626 40 q 746 203 736 106 q 750 229 747 220 q 764 237 753 237 q 775 229 773 237 q 778 192 778 220 l 778 81 l 778 39 q 769 6 778 12 q 720 0 760 0 l 102 0 q 64 2 77 0 q 52 14 52 5 q 60 32 52 21 z "},"[":{"ha":334,"x_min":78,"x_max":317,"o":"m 78 -71 l 78 937 q 86 974 78 965 q 122 983 94 983 l 290 983 q 317 964 317 983 q 306 950 317 953 q 267 947 294 947 l 222 947 q 172 935 182 947 q 164 859 164 922 l 164 11 q 170 -60 164 -46 q 225 -75 179 -75 l 261 -75 q 306 -78 294 -75 q 317 -93 317 -81 q 310 -108 317 -104 q 290 -111 302 -111 l 122 -111 q 87 -103 96 -111 q 78 -71 78 -96 z "},"\\":{"ha":722,"x_min":98,"x_max":543,"o":"m 463 0 l 98 983 l 182 983 l 543 0 l 463 0 z "},"]":{"ha":334,"x_min":9,"x_max":249,"o":"m 249 939 l 249 -68 q 239 -101 249 -93 q 204 -110 230 -110 l 36 -110 q 17 -106 24 -110 q 9 -92 9 -102 q 21 -77 9 -79 q 65 -74 32 -74 l 102 -74 q 155 -58 147 -74 q 163 12 163 -45 l 163 860 q 154 936 163 924 q 103 947 144 947 l 60 947 q 21 951 33 947 q 9 965 9 954 q 16 980 9 976 q 36 983 22 983 l 204 983 q 240 975 231 983 q 249 939 249 966 z "},"^":{"ha":778,"x_min":60,"x_max":728,"o":"m 135 204 l 60 204 l 358 867 l 427 867 l 728 204 l 653 204 l 392 778 l 135 204 z "},"_":{"ha":694,"x_min":0,"x_max":694,"o":"m 0 -122 l 694 -122 l 694 -193 l 0 -193 l 0 -122 z "},"`":{"ha":500,"x_min":86,"x_max":406,"o":"m 193 888 l 379 749 q 389 742 382 747 q 401 732 396 737 q 406 722 406 728 q 396 711 406 711 q 375 719 391 711 q 357 726 359 726 l 155 828 q 124 843 141 835 q 97 863 108 852 q 86 890 86 874 q 96 916 86 905 q 121 926 106 926 q 193 888 146 926 z "},"a":{"ha":667,"x_min":49,"x_max":631,"o":"m 256 290 l 363 340 q 407 370 400 359 q 414 419 414 380 l 414 481 q 398 576 414 546 q 325 607 383 607 q 229 578 266 607 q 165 489 193 549 q 149 457 156 469 q 126 439 141 446 q 66 421 91 421 q 49 437 49 421 q 66 490 49 461 q 107 538 84 519 q 223 609 157 583 q 355 635 289 635 q 482 597 441 635 q 505 562 500 583 q 510 496 510 541 l 510 164 q 558 52 510 52 q 584 58 574 52 q 604 76 593 65 q 621 87 615 87 q 631 77 631 87 q 597 32 631 60 q 498 -8 541 -8 q 454 11 470 -8 q 425 60 439 29 q 404 90 410 90 q 372 67 401 90 q 319 28 342 43 q 259 -2 296 12 q 180 -17 222 -17 q 89 14 128 -17 q 50 94 50 44 q 107 202 50 159 q 256 290 165 246 m 389 326 l 262 262 q 183 207 213 238 q 154 131 154 176 q 182 70 154 92 q 250 47 210 47 q 319 63 284 47 q 379 104 354 79 q 408 148 401 128 q 414 208 414 168 l 414 293 q 404 332 414 332 q 396 329 401 332 q 389 326 391 327 z "},"b":{"ha":778,"x_min":16,"x_max":736,"o":"m 201 961 l 201 578 q 212 561 201 561 q 218 563 215 561 q 224 567 222 565 q 231 571 227 570 q 429 635 349 629 q 589 594 519 635 q 697 483 659 553 q 736 328 736 412 q 707 189 736 253 q 626 79 678 125 q 507 8 574 33 q 366 -17 439 -17 q 280 -5 317 -17 q 210 26 244 7 q 168 45 175 45 q 138 9 153 45 q 131 -4 137 9 q 119 -23 125 -16 q 106 -29 113 -29 q 92 -12 92 -29 q 94 3 92 -8 q 98 24 97 15 q 106 127 106 64 l 106 782 q 107 802 106 793 q 107 825 107 811 q 52 895 107 895 q 24 897 33 895 q 16 908 16 899 q 35 925 16 922 q 160 968 115 939 q 189 983 178 983 q 201 961 201 983 m 201 453 l 201 163 q 206 98 201 121 q 232 50 211 75 q 366 7 277 7 q 477 31 428 7 q 561 96 526 54 q 613 194 595 138 q 631 310 631 250 q 600 447 631 383 q 513 549 570 510 q 385 587 457 587 q 299 574 341 587 q 227 534 258 560 q 205 506 210 521 q 201 453 201 490 z "},"c":{"ha":639,"x_min":49,"x_max":603,"o":"m 591 526 q 592 515 592 521 q 593 497 593 510 q 575 454 593 454 q 527 504 558 454 q 468 581 496 553 q 393 608 441 608 q 321 592 360 608 q 253 551 283 576 q 179 449 205 510 q 153 323 153 388 q 186 184 153 251 q 278 76 219 117 q 412 35 338 35 q 572 97 509 35 q 593 114 587 114 q 603 103 603 114 q 587 77 603 95 q 561 52 570 59 q 359 -17 476 -17 q 204 25 276 -17 q 91 140 133 68 q 49 296 49 213 q 78 427 49 366 q 159 536 107 489 q 276 609 210 583 q 410 635 341 635 q 468 629 435 635 q 529 613 500 623 q 581 587 557 603 q 593 554 593 578 q 592 539 593 545 q 591 526 592 533 z "},"d":{"ha":778,"x_min":49,"x_max":758,"o":"m 665 961 l 665 131 q 670 76 665 94 q 686 58 674 58 q 725 83 703 58 q 751 109 747 109 q 758 92 758 109 l 757 74 q 752 57 756 60 q 733 49 748 54 l 621 5 q 591 -7 600 -7 q 582 1 585 -7 q 578 17 578 8 q 576 32 577 25 q 562 78 576 78 q 519 51 555 78 q 441 4 484 24 q 349 -17 399 -17 q 230 10 286 -17 q 133 82 174 37 q 71 187 93 128 q 49 307 49 245 q 146 533 49 438 q 255 607 195 580 q 383 635 315 635 q 532 604 467 631 q 558 596 554 596 q 570 648 570 596 l 570 782 q 571 802 570 793 q 571 825 571 811 q 515 895 571 895 q 488 897 496 895 q 479 908 479 899 q 498 925 479 922 q 624 968 578 939 q 653 983 642 983 q 665 961 665 983 m 570 179 l 570 433 q 564 511 570 479 q 536 564 558 543 q 475 597 514 585 q 393 608 437 608 q 292 579 337 604 q 215 516 246 554 q 168 430 184 477 q 151 328 151 382 q 180 190 151 256 q 263 84 208 125 q 392 43 318 43 q 484 60 439 43 q 555 110 529 77 q 567 133 565 120 q 570 179 570 146 z "},"e":{"ha":694,"x_min":47,"x_max":646,"o":"m 629 382 l 208 382 q 173 380 183 382 q 157 369 162 378 q 151 338 151 360 q 184 192 151 259 q 278 84 217 124 q 421 45 340 45 q 502 57 465 45 q 562 86 538 70 q 604 120 586 103 q 627 136 622 136 q 637 125 637 136 q 618 95 637 114 q 583 61 599 76 q 483 1 534 19 q 364 -17 431 -17 q 202 27 275 -17 q 89 145 130 71 q 47 306 47 219 q 71 436 47 380 q 147 541 94 493 q 222 592 181 570 q 306 624 262 613 q 397 635 349 635 q 510 613 457 635 q 597 547 562 591 q 631 483 616 524 q 646 406 646 442 q 629 382 646 382 m 210 415 l 322 415 q 484 427 437 415 q 534 482 534 438 q 498 566 534 527 q 378 608 458 608 q 277 584 326 608 q 197 515 229 559 q 175 476 186 503 q 163 433 163 449 q 174 418 163 422 q 210 415 185 415 z "},"f":{"ha":416,"x_min":18,"x_max":493,"o":"m 215 522 l 215 143 q 215 120 215 128 q 214 102 214 112 q 226 50 214 67 q 278 28 239 32 q 293 26 283 27 q 304 25 302 25 q 312 20 307 24 q 317 9 317 16 q 300 -5 317 -5 q 231 -3 277 -5 q 164 0 186 0 q 100 -3 143 0 q 36 -5 58 -5 q 18 8 18 -5 q 26 23 18 20 q 56 28 34 26 q 108 50 96 32 q 119 104 119 68 l 119 143 l 119 522 q 114 564 119 555 q 79 572 108 572 q 47 574 56 572 q 37 583 37 576 q 71 606 37 597 q 107 634 100 614 q 117 701 113 654 q 134 810 122 766 q 176 889 146 855 q 267 956 212 928 q 372 983 322 983 q 450 970 406 983 q 493 932 493 958 q 479 885 493 918 q 454 851 466 851 q 414 882 442 851 q 369 926 391 909 q 321 943 348 943 q 237 883 260 943 q 215 749 215 823 l 215 679 q 218 635 215 648 q 231 618 221 622 q 269 615 241 615 l 379 615 q 396 610 393 615 q 399 590 399 605 q 391 575 399 578 q 361 572 383 572 l 264 572 q 228 570 237 572 q 217 559 220 568 q 215 522 215 550 z "},"g":{"ha":722,"x_min":31,"x_max":699,"o":"m 581 582 l 650 582 q 688 577 680 582 q 699 551 696 572 q 696 529 699 533 q 644 526 688 526 q 587 515 587 526 q 597 492 587 512 q 615 403 615 452 q 546 252 615 319 q 347 184 479 189 q 290 180 306 182 q 241 164 273 177 q 210 148 221 155 q 199 126 199 140 q 227 93 199 104 q 282 82 256 82 l 432 82 q 525 78 489 82 q 596 56 562 73 q 662 5 635 37 q 688 -66 688 -26 q 627 -208 688 -152 q 477 -290 566 -264 q 309 -315 389 -315 q 125 -279 199 -315 q 58 -230 85 -260 q 31 -161 31 -199 q 51 -101 31 -125 q 107 -57 71 -77 l 146 -35 q 165 -23 153 -30 q 185 -10 177 -16 q 193 1 193 -4 q 189 13 193 7 q 177 25 185 18 q 165 36 169 33 q 132 65 148 50 q 102 96 116 79 q 87 118 87 112 q 102 132 87 130 q 243 196 243 182 q 200 230 243 201 q 124 302 157 259 q 92 407 92 345 q 130 528 92 476 q 230 607 168 579 q 357 635 292 635 q 431 626 395 635 q 497 600 467 616 q 528 587 518 590 q 547 583 537 583 q 581 582 557 582 m 419 -7 l 244 -7 q 162 -69 194 -37 q 131 -143 131 -101 q 149 -204 131 -176 q 196 -252 168 -232 q 338 -288 250 -288 q 453 -271 393 -288 q 556 -219 514 -255 q 599 -126 599 -183 q 572 -53 599 -80 q 505 -17 545 -26 q 419 -7 465 -7 m 349 212 q 439 240 402 212 q 494 314 476 269 q 511 414 511 360 q 494 503 511 457 q 440 578 476 549 q 359 608 405 608 q 240 549 284 608 q 196 412 196 490 q 236 274 196 336 q 349 212 276 212 z "},"h":{"ha":778,"x_min":31,"x_max":760,"o":"m 228 961 l 228 550 q 239 536 231 536 q 256 546 246 536 q 348 614 303 593 q 458 635 393 635 q 550 618 506 635 q 618 567 594 601 q 651 483 644 530 q 659 367 659 437 l 659 143 q 658 120 659 128 q 657 102 658 112 q 670 49 657 67 q 721 28 683 31 q 735 26 726 27 q 747 25 745 25 q 755 20 750 24 q 760 9 760 16 q 743 -5 760 -5 q 677 -3 720 -5 q 612 0 633 0 q 547 -3 591 0 q 481 -5 503 -5 q 461 8 461 -5 q 469 23 461 20 q 500 28 477 26 q 541 40 528 31 q 559 63 555 49 q 564 102 564 78 q 563 123 564 115 q 562 143 563 132 l 562 386 q 558 466 562 433 q 539 525 555 499 q 407 587 496 587 q 269 528 327 587 q 235 472 241 498 q 228 399 228 446 l 228 143 q 228 120 228 128 q 227 102 227 112 q 239 49 227 67 q 290 28 252 31 q 320 24 312 26 q 329 9 329 22 q 313 -5 329 -5 q 246 -3 290 -5 q 182 0 203 0 q 116 -3 160 0 q 50 -5 72 -5 q 31 8 31 -5 q 39 23 31 20 q 69 28 47 26 q 121 50 109 32 q 134 102 134 67 q 133 123 134 115 q 132 143 133 132 l 132 782 q 133 802 133 793 q 134 825 134 811 q 78 895 134 895 q 51 897 60 895 q 41 908 41 899 q 61 925 41 922 q 186 968 142 939 q 215 983 205 983 q 228 961 228 983 z "},"i":{"ha":361,"x_min":41,"x_max":340,"o":"m 239 611 l 239 143 q 238 120 239 128 q 237 102 238 112 q 250 49 237 67 q 301 28 263 31 q 332 24 323 26 q 340 9 340 22 q 323 -5 340 -5 q 258 -3 302 -5 q 193 0 214 0 q 126 -3 170 0 q 61 -5 82 -5 q 41 8 41 -5 q 49 23 41 20 q 81 28 57 26 q 122 40 109 31 q 140 63 136 49 q 144 102 144 78 q 144 123 144 115 q 143 143 144 132 l 143 407 q 129 497 143 481 q 89 509 119 509 l 71 509 q 54 519 54 509 q 59 531 54 527 q 73 539 64 536 q 86 543 82 542 q 149 573 111 550 q 201 615 186 597 q 209 624 205 619 q 217 632 212 629 q 227 635 221 635 q 239 611 239 635 m 191 755 q 147 775 163 755 q 131 823 131 795 q 148 872 131 852 q 193 893 165 893 q 236 873 220 893 q 252 827 252 853 q 236 777 252 798 q 191 755 220 755 z "},"j":{"ha":306,"x_min":1,"x_max":229,"o":"m 216 611 l 216 -24 q 209 -126 216 -83 q 176 -204 201 -169 q 122 -267 157 -235 q 47 -326 86 -300 q 11 -346 20 -346 q 1 -336 1 -346 q 16 -314 1 -324 q 98 -224 76 -266 q 121 -110 121 -182 l 121 407 q 107 497 121 481 q 66 509 97 509 l 49 509 q 32 519 32 509 q 37 531 32 527 q 51 539 41 536 q 64 543 60 542 q 126 573 89 550 q 179 615 164 597 q 204 635 197 635 q 216 611 216 635 m 164 755 q 124 777 138 755 q 110 823 110 798 q 126 873 110 852 q 170 893 142 893 q 213 874 197 893 q 229 827 229 854 q 212 776 229 796 q 164 755 194 755 z "},"k":{"ha":750,"x_min":29,"x_max":736,"o":"m 227 224 l 227 143 q 226 120 227 128 q 225 102 226 112 q 238 49 225 67 q 289 28 251 31 q 303 26 294 27 q 315 25 313 25 q 323 20 318 24 q 328 9 328 16 q 311 -5 328 -5 q 245 -3 288 -5 q 180 0 201 0 q 115 -3 159 0 q 49 -5 71 -5 q 29 8 29 -5 q 37 23 29 20 q 68 28 45 26 q 120 50 108 32 q 132 102 132 67 q 132 123 132 115 q 131 143 132 132 l 131 782 q 132 802 132 793 q 132 825 132 811 q 77 895 132 895 q 49 897 58 895 q 40 908 40 899 q 60 925 40 922 q 184 968 141 939 q 214 983 203 983 q 227 961 227 983 l 227 351 q 235 321 227 321 q 250 330 241 321 l 456 496 q 482 518 472 509 q 503 539 492 527 q 513 561 513 551 q 468 583 513 583 q 446 584 459 583 q 424 588 433 584 q 415 603 415 592 q 446 615 415 615 l 690 615 q 714 604 714 615 q 686 587 714 587 q 609 569 639 585 q 526 510 580 552 l 421 425 q 398 406 411 417 q 386 387 386 395 q 396 370 386 378 l 606 100 q 658 41 643 54 q 707 28 673 28 q 736 7 736 28 q 714 -5 736 -5 q 646 -3 692 -5 q 578 0 601 0 q 514 -3 557 0 q 449 -5 471 -5 q 427 5 427 -5 q 434 22 427 16 q 450 28 441 28 q 489 33 474 28 q 504 54 504 37 q 471 114 504 74 l 342 285 q 301 323 314 323 q 286 317 294 323 q 269 304 277 311 q 231 270 236 278 q 227 224 227 261 z "},"l":{"ha":361,"x_min":31,"x_max":329,"o":"m 228 961 l 228 143 q 228 120 228 128 q 227 102 227 112 q 239 49 227 67 q 290 28 252 31 q 320 24 312 26 q 329 9 329 22 q 313 -5 329 -5 q 246 -3 290 -5 q 182 0 203 0 q 116 -3 160 0 q 50 -5 72 -5 q 31 8 31 -5 q 39 23 31 20 q 69 28 47 26 q 121 50 109 32 q 134 102 134 67 q 133 123 134 115 q 132 143 133 132 l 132 782 q 133 802 133 793 q 134 825 134 811 q 78 895 134 895 q 51 897 60 895 q 41 908 41 899 q 61 925 41 922 q 186 968 142 939 q 215 983 205 983 q 228 961 228 983 z "},"m":{"ha":1139,"x_min":28,"x_max":1132,"o":"m 129 143 l 129 407 q 115 497 129 481 q 75 509 106 509 l 57 509 q 40 519 40 509 q 45 531 40 527 q 59 539 50 536 q 72 543 68 542 q 135 573 98 551 q 187 615 171 596 q 199 628 193 622 q 212 635 205 635 q 225 611 225 635 l 225 574 q 233 528 225 528 q 275 558 241 528 q 351 612 309 589 q 449 635 393 635 q 530 617 498 635 q 576 582 562 600 q 604 538 590 564 q 624 513 618 513 q 650 535 628 513 q 696 579 671 558 q 759 617 722 600 q 842 635 797 635 q 929 618 895 635 q 989 570 964 601 q 1024 491 1018 533 q 1031 383 1031 450 l 1031 143 q 1030 120 1031 128 q 1029 102 1030 112 q 1042 49 1029 67 q 1093 28 1055 31 q 1108 26 1099 27 q 1120 25 1117 25 q 1127 20 1122 24 q 1132 9 1132 16 q 1116 -5 1132 -5 q 1048 -3 1093 -5 q 985 0 1004 0 q 918 -3 962 0 q 852 -5 873 -5 q 833 8 833 -5 q 842 23 833 20 q 872 28 850 26 q 913 40 900 31 q 931 63 927 49 q 936 102 936 78 q 936 123 936 115 q 935 143 935 132 l 935 382 q 917 515 935 478 q 868 562 902 544 q 793 579 834 579 q 672 525 719 570 q 635 470 642 495 q 628 393 628 445 l 628 143 q 628 120 628 128 q 627 102 627 112 q 640 49 627 67 q 690 28 652 31 q 705 26 696 27 q 717 25 714 25 q 724 20 720 24 q 729 9 729 16 q 713 -5 729 -5 q 646 -3 690 -5 q 582 0 603 0 q 516 -3 560 0 q 450 -5 472 -5 q 431 8 431 -5 q 439 23 431 20 q 469 28 447 26 q 511 40 497 31 q 529 63 524 49 q 533 102 533 78 q 533 123 533 115 q 532 143 532 132 l 532 382 q 514 515 532 478 q 465 562 499 544 q 390 579 431 579 q 269 525 316 570 q 232 470 239 495 q 225 393 225 445 l 225 143 q 225 120 225 128 q 224 102 224 112 q 237 49 224 67 q 288 28 250 31 q 302 26 293 27 q 314 25 311 25 q 321 20 317 24 q 326 9 326 16 q 310 -5 326 -5 q 243 -3 287 -5 q 179 0 200 0 q 113 -3 157 0 q 47 -5 69 -5 q 28 8 28 -5 q 36 23 28 20 q 66 28 44 26 q 119 50 106 32 q 131 102 131 67 q 130 120 131 108 q 129 143 130 132 z "},"n":{"ha":778,"x_min":31,"x_max":762,"o":"m 132 143 l 132 407 q 118 497 132 481 q 78 509 109 509 l 60 509 q 43 519 43 509 q 47 531 43 527 q 59 538 52 536 q 75 543 66 541 q 138 573 100 550 q 191 615 176 597 q 198 624 194 619 q 206 632 201 629 q 215 635 210 635 q 228 611 228 635 l 228 519 q 274 553 235 519 q 357 611 313 587 q 456 635 401 635 q 619 558 560 635 q 655 476 648 519 q 661 366 661 433 l 661 143 q 661 120 661 128 q 660 102 661 112 q 673 49 660 67 q 724 28 686 31 q 738 26 729 27 q 750 25 747 25 q 758 20 753 24 q 762 9 762 16 q 746 -5 762 -5 q 680 -3 723 -5 q 615 0 636 0 q 549 -3 593 0 q 484 -5 505 -5 q 464 8 464 -5 q 472 23 464 20 q 503 28 480 26 q 555 50 543 32 q 567 102 567 67 q 567 123 567 115 q 566 143 566 132 l 566 367 q 541 505 566 467 q 487 551 522 534 q 410 568 452 568 q 272 509 330 568 q 236 450 243 477 q 228 379 228 424 l 228 143 q 228 120 228 128 q 227 102 227 112 q 239 49 227 67 q 290 28 252 31 q 320 24 312 26 q 329 9 329 22 q 313 -5 329 -5 q 246 -3 290 -5 q 182 0 203 0 q 116 -3 160 0 q 50 -5 72 -5 q 31 8 31 -5 q 39 23 31 20 q 69 28 47 26 q 121 50 109 32 q 134 102 134 67 q 133 123 134 115 q 132 143 133 132 z "},"o":{"ha":778,"x_min":49,"x_max":737,"o":"m 393 -17 q 221 26 301 -17 q 95 144 141 69 q 49 314 49 220 q 74 437 49 377 q 143 541 98 496 q 216 594 176 573 q 301 625 256 614 q 393 635 347 635 q 629 553 532 635 q 688 486 665 523 q 724 403 711 448 q 737 314 737 358 q 691 145 737 222 q 564 26 644 69 q 393 -17 484 -17 m 397 9 q 522 54 468 9 q 604 168 575 98 q 632 304 632 237 q 605 448 632 378 q 523 563 577 518 q 392 607 469 607 q 291 583 336 607 q 216 518 247 559 q 169 427 184 477 q 153 321 153 376 q 182 176 153 248 q 267 57 212 104 q 397 9 323 9 z "},"p":{"ha":806,"x_min":31,"x_max":757,"o":"m 132 -172 l 132 407 q 118 497 132 481 q 78 509 109 509 l 60 509 q 43 519 43 509 q 47 531 43 527 q 59 538 52 536 q 75 543 66 541 q 138 573 100 550 q 191 615 176 597 q 198 624 194 619 q 206 632 201 629 q 215 635 210 635 q 228 611 228 635 l 228 534 q 463 635 345 633 q 574 607 519 635 q 672 536 629 580 q 735 434 713 492 q 757 314 757 376 q 711 144 757 220 q 586 25 665 68 q 410 -17 507 -17 q 348 -11 377 -17 q 271 12 319 -4 q 258 16 262 14 q 248 18 254 17 q 239 20 242 20 q 228 -22 228 20 l 228 -172 q 228 -196 228 -187 q 227 -215 227 -204 q 239 -267 227 -249 q 290 -288 252 -284 q 320 -292 312 -290 q 329 -306 329 -294 q 313 -321 329 -321 q 246 -318 290 -321 q 182 -315 203 -315 q 116 -318 160 -315 q 50 -321 72 -321 q 31 -307 31 -321 q 39 -292 31 -295 q 69 -288 47 -290 q 121 -266 109 -283 q 134 -215 134 -249 q 133 -192 134 -201 q 132 -172 133 -183 m 652 296 q 633 408 652 355 q 578 501 615 461 q 500 555 545 536 q 408 574 456 574 q 320 556 362 574 q 252 501 277 538 q 232 460 237 484 q 228 404 228 437 l 228 186 q 236 109 228 142 q 272 49 245 75 q 329 19 295 31 q 393 8 363 8 q 499 32 451 8 q 582 96 547 55 q 634 189 616 138 q 652 296 652 241 z "},"q":{"ha":778,"x_min":49,"x_max":764,"o":"m 663 419 l 663 -172 q 662 -196 663 -187 q 661 -215 662 -204 q 674 -267 661 -249 q 725 -288 687 -284 q 755 -292 747 -290 q 764 -306 764 -294 q 747 -321 764 -321 q 681 -318 724 -321 q 616 -315 637 -315 q 551 -318 595 -315 q 485 -321 507 -321 q 465 -307 465 -321 q 473 -292 465 -295 q 504 -288 481 -290 q 556 -266 544 -283 q 568 -215 568 -249 q 568 -192 568 -201 q 567 -172 568 -183 l 567 -1 q 557 33 567 33 q 532 24 549 33 q 510 11 515 16 q 445 -13 473 -9 q 361 -17 416 -17 q 200 27 271 -17 q 89 148 129 71 q 49 321 49 224 q 97 480 49 408 q 228 594 145 553 q 406 635 310 635 q 546 607 461 635 q 579 586 552 605 q 614 567 607 567 q 630 575 624 567 q 646 601 636 583 q 661 627 655 619 q 675 635 666 635 q 683 630 680 635 q 686 621 686 625 q 685 614 686 619 q 682 606 684 610 q 666 515 670 555 q 663 419 663 475 m 567 170 l 567 444 q 553 547 567 519 q 498 589 538 573 q 425 606 458 606 q 281 564 344 606 q 185 452 218 523 q 151 300 151 382 q 185 162 151 226 q 279 59 218 98 q 412 21 339 21 q 492 38 450 21 q 550 82 534 54 q 567 170 567 114 z "},"r":{"ha":472,"x_min":31,"x_max":478,"o":"m 132 143 l 132 407 q 118 497 132 481 q 78 509 109 509 l 60 509 q 43 519 43 509 q 47 531 43 527 q 59 538 52 536 q 75 543 66 541 q 138 573 100 550 q 191 615 176 597 q 198 624 194 619 q 206 632 201 629 q 215 635 210 635 q 228 611 228 635 l 228 543 q 235 514 228 514 q 264 546 238 514 q 323 602 290 578 q 399 625 357 625 q 455 607 432 625 q 478 558 478 589 q 461 517 478 532 q 419 503 445 503 q 395 508 404 503 q 374 528 387 514 q 352 549 361 543 q 330 555 344 555 q 295 543 311 555 q 260 505 279 530 q 233 445 238 473 q 228 366 228 416 l 228 143 q 228 120 228 128 q 227 102 227 112 q 239 49 227 67 q 290 28 252 31 q 320 24 312 26 q 329 9 329 22 q 313 -5 329 -5 q 246 -3 290 -5 q 182 0 203 0 q 116 -3 160 0 q 50 -5 72 -5 q 31 8 31 -5 q 39 23 31 20 q 69 28 47 26 q 121 50 109 32 q 134 102 134 67 q 133 123 134 115 q 132 143 133 132 z "},"s":{"ha":555,"x_min":47,"x_max":507,"o":"m 47 77 l 52 170 q 56 192 54 183 q 69 200 59 200 q 91 174 84 200 q 111 105 98 149 q 156 35 123 61 q 252 8 189 8 q 332 24 293 8 q 396 71 372 40 q 421 146 421 102 q 385 231 421 201 q 288 281 349 261 q 175 322 210 307 q 107 371 139 337 q 75 457 75 405 q 149 587 75 534 q 313 635 214 635 q 388 627 342 635 q 456 610 433 620 q 472 576 472 602 q 472 561 472 566 q 471 547 471 555 q 472 535 471 541 q 472 515 472 529 q 457 478 472 478 q 431 510 446 478 q 408 558 416 543 q 370 591 399 573 q 288 610 340 610 q 200 581 240 610 q 160 507 160 553 q 199 429 160 452 q 327 374 239 405 q 461 304 415 343 q 507 187 507 264 q 484 101 507 138 q 422 37 461 64 q 335 -3 383 10 q 243 -17 286 -17 q 155 -5 208 -17 q 66 25 102 7 q 51 43 54 32 q 47 77 47 54 z "},"t":{"ha":389,"x_min":18,"x_max":383,"o":"m 192 555 l 192 200 q 206 83 192 130 q 273 36 220 36 q 338 61 303 36 q 374 86 372 86 q 381 83 378 86 q 383 77 383 81 q 374 54 383 65 q 355 36 365 42 q 227 -17 298 -17 q 126 26 161 -17 q 96 158 96 64 l 96 200 l 96 561 q 89 582 96 578 q 61 586 83 586 q 18 597 18 586 q 35 618 18 605 q 115 683 83 651 q 167 760 146 714 q 180 774 174 774 q 192 755 192 774 l 192 657 q 196 635 192 642 q 214 628 200 629 l 351 628 q 362 623 359 628 q 364 608 364 618 q 357 590 364 593 q 321 586 349 586 l 243 586 q 201 581 211 586 q 192 555 192 576 z "},"u":{"ha":778,"x_min":16,"x_max":734,"o":"m 643 581 l 643 168 l 643 131 q 653 90 643 103 q 699 77 663 77 l 717 78 q 734 65 734 78 q 727 55 734 58 q 705 47 720 52 q 567 -12 607 18 q 559 -17 564 -14 q 551 -21 554 -21 q 545 -9 545 -21 l 545 24 q 533 82 545 82 q 494 54 528 82 q 419 4 460 26 q 321 -17 377 -17 q 157 64 219 -17 q 122 148 129 104 q 115 262 115 193 l 115 475 q 116 497 116 487 q 117 521 117 507 q 104 571 117 554 q 53 587 92 587 q 16 607 16 587 q 33 615 16 615 l 189 615 q 207 605 203 615 q 211 566 211 594 l 211 262 q 236 106 211 146 q 294 57 256 73 q 375 40 333 40 q 524 104 468 40 q 542 137 537 119 q 547 176 547 154 l 547 207 l 547 475 q 548 497 548 487 q 549 522 549 507 q 536 571 549 555 q 486 587 524 587 q 447 606 447 587 q 467 615 447 615 l 628 615 q 641 609 638 615 q 643 581 643 603 z "},"v":{"ha":694,"x_min":-7,"x_max":699,"o":"m 366 127 l 529 489 q 536 507 531 494 q 544 531 541 519 q 547 550 547 543 q 532 578 547 568 q 493 587 516 587 q 456 603 456 587 q 476 615 456 615 l 681 615 q 699 606 699 615 q 690 592 699 594 q 664 587 681 589 q 623 571 641 585 q 594 539 606 557 q 570 494 582 520 q 550 450 558 469 l 351 16 q 345 2 349 10 q 337 -11 342 -5 q 328 -17 332 -17 q 315 -3 319 -17 l 307 16 l 106 507 q 74 569 88 552 q 20 587 59 585 q 0 590 7 587 q -7 603 -7 593 q 14 615 -7 615 l 265 615 q 292 600 292 615 q 282 590 292 592 q 253 587 273 587 q 217 577 232 587 q 201 549 201 568 q 224 478 201 531 l 366 127 z "},"w":{"ha":1083,"x_min":-8,"x_max":1090,"o":"m 543 401 l 370 8 q 365 -4 367 1 q 359 -13 363 -9 q 350 -17 355 -17 q 340 -13 344 -17 q 334 -2 337 -8 q 330 8 332 4 l 111 501 q 77 566 93 545 q 26 587 61 587 q -8 600 -8 587 q 16 615 -8 615 l 643 615 q 665 600 665 615 q 633 587 665 587 q 601 579 616 587 q 585 554 585 570 q 606 494 585 538 l 770 132 l 909 460 q 933 542 933 511 q 921 575 933 563 q 888 587 909 587 q 846 599 846 587 q 869 615 846 615 l 1071 615 q 1090 599 1090 615 q 1085 593 1090 595 q 1074 590 1080 591 q 1062 588 1067 589 q 1051 587 1057 588 q 1010 572 1027 585 q 982 542 994 560 q 961 498 970 523 q 946 460 951 473 l 755 8 q 751 -3 753 2 q 746 -13 749 -9 q 737 -17 742 -17 q 729 -13 732 -17 q 723 -1 726 -8 q 720 8 720 6 l 543 401 m 385 126 l 494 372 q 517 436 517 422 q 509 465 517 447 l 493 500 q 463 559 474 543 q 433 581 452 575 q 374 587 415 587 l 272 587 q 225 580 248 587 q 203 551 203 572 q 233 460 203 526 l 385 126 z "},"x":{"ha":722,"x_min":0,"x_max":718,"o":"m 335 271 l 244 155 q 187 56 187 84 q 244 28 187 28 q 281 8 281 28 q 258 -5 281 -5 q 200 -3 239 -5 q 142 0 161 0 q 79 -3 120 0 q 17 -5 37 -5 q 0 7 0 -5 q 35 28 0 28 q 113 59 77 28 q 187 139 149 90 l 283 260 q 292 271 286 263 q 303 288 298 279 q 309 301 309 296 q 296 325 309 308 l 158 507 q 135 539 148 521 q 111 567 121 557 q 83 582 100 577 q 43 587 66 587 q 9 600 9 587 q 20 615 9 615 l 319 615 q 342 603 342 615 q 335 590 342 593 q 315 587 328 587 q 250 561 250 587 q 288 496 250 545 l 375 376 l 452 472 q 498 553 498 532 q 483 579 498 571 q 447 587 468 587 q 412 602 412 587 q 432 615 412 615 l 684 615 q 707 600 707 615 q 669 587 707 587 q 602 576 628 587 q 557 546 575 564 q 504 482 539 527 l 433 396 q 420 380 425 386 q 410 365 415 374 q 404 347 404 356 q 431 304 404 336 l 574 111 q 640 36 616 51 q 686 28 654 28 q 718 9 718 28 q 692 -5 718 -5 q 611 -3 665 -5 q 530 0 557 0 q 469 -3 510 0 q 407 -5 427 -5 q 389 9 389 -5 q 419 28 389 28 q 471 33 454 28 q 489 53 489 37 q 452 118 489 71 l 335 271 z "},"y":{"ha":694,"x_min":-8,"x_max":704,"o":"m 374 113 l 529 478 q 549 538 549 521 q 537 568 549 557 q 510 583 526 579 q 475 587 494 587 q 443 597 443 587 q 449 610 443 606 q 463 615 454 615 l 684 615 q 704 596 704 615 q 694 590 704 592 q 673 587 684 589 q 614 555 636 583 q 538 406 587 521 l 258 -260 q 237 -306 248 -296 q 191 -315 227 -315 q 133 -307 153 -315 q 113 -271 113 -299 q 121 -230 113 -243 q 157 -216 130 -216 q 218 -214 199 -216 q 233 -205 227 -211 q 242 -194 239 -199 q 248 -181 244 -190 q 256 -163 252 -172 l 302 -52 q 315 -9 315 -22 q 311 11 315 -1 q 302 36 307 24 q 296 50 296 47 l 113 488 q 77 563 93 538 q 25 587 62 587 q -8 597 -8 587 q 18 615 -8 615 l 286 615 q 300 611 294 615 q 306 597 306 606 q 272 587 306 587 q 224 578 246 587 q 201 546 201 568 q 218 488 201 528 l 374 113 z "},"z":{"ha":639,"x_min":47,"x_max":593,"o":"m 571 566 l 212 79 q 199 62 208 75 q 191 43 191 50 q 239 32 191 32 l 359 32 q 498 53 460 32 q 535 87 522 67 q 561 143 547 108 q 581 171 569 171 q 593 118 593 171 l 590 49 q 586 11 590 22 q 570 0 583 0 l 97 0 q 59 2 71 0 q 47 14 47 5 q 52 23 47 16 q 61 37 56 31 q 66 46 66 44 l 436 541 q 453 571 453 563 q 429 581 453 581 l 290 581 l 252 581 q 179 570 205 581 q 110 513 135 549 q 105 505 110 513 q 96 493 100 496 q 86 489 92 489 q 74 501 74 489 q 83 533 74 505 l 119 640 q 144 679 132 679 q 158 657 158 679 q 176 623 158 630 q 229 615 194 615 l 568 615 q 593 606 593 615 q 571 566 593 593 z "},"{":{"ha":361,"x_min":43,"x_max":315,"o":"m 220 275 l 220 39 q 240 -57 220 -24 q 315 -110 260 -91 q 263 -108 283 -110 q 223 -100 243 -106 q 184 -79 203 -94 q 148 -21 156 -54 q 139 61 139 12 l 139 297 q 135 355 139 334 q 114 396 132 375 q 43 439 87 430 q 120 485 102 454 q 139 582 139 515 l 139 791 q 153 903 139 862 q 205 964 168 945 q 315 983 243 983 q 241 932 262 966 q 220 836 220 897 l 220 615 q 200 495 220 536 q 115 439 180 454 q 199 386 178 425 q 220 275 220 348 z "},"|":{"ha":778,"x_min":357,"x_max":432,"o":"m 357 0 l 357 983 l 432 983 l 432 0 l 357 0 z "},"}":{"ha":361,"x_min":45,"x_max":315,"o":"m 139 615 l 139 836 q 118 931 139 897 q 45 983 98 966 q 155 964 117 983 q 206 903 192 945 q 220 791 220 862 l 220 582 q 238 486 220 517 q 315 439 257 454 q 244 396 274 431 q 223 355 227 375 q 220 297 220 334 l 220 61 q 212 -22 220 9 q 175 -79 205 -54 q 119 -105 146 -100 q 45 -110 91 -110 q 120 -57 100 -91 q 139 39 139 -24 l 139 275 q 161 386 139 348 q 244 439 182 425 q 159 496 180 454 q 139 615 139 538 z "},"~":{"ha":778,"x_min":65,"x_max":725,"o":"m 668 522 l 725 486 q 645 394 684 427 q 549 361 606 361 q 509 365 530 361 q 464 378 488 369 q 427 392 440 387 l 370 414 q 308 435 339 425 q 252 446 276 446 q 179 420 207 446 q 121 347 151 395 l 65 386 q 149 485 106 450 q 254 519 191 519 q 323 508 286 519 q 421 472 360 496 q 503 440 482 448 q 547 433 523 433 q 614 456 587 433 q 668 522 642 479 z "},"‚":{"ha":306,"x_min":87,"x_max":227,"o":"m 93 35 q 109 79 93 62 q 150 96 124 96 q 206 63 186 96 q 227 -7 227 31 q 203 -105 227 -54 q 146 -193 180 -157 q 98 -231 109 -231 q 91 -227 94 -231 q 87 -220 87 -224 q 115 -185 87 -216 q 163 -121 143 -154 q 183 -52 183 -87 q 142 -17 183 -17 q 93 35 93 -17 z "},"ƒ":{"ha":694,"x_min":-170,"x_max":681,"o":"m 343 603 l 317 472 q 262 216 285 315 q 207 25 239 117 q 140 -118 180 -50 q 42 -233 100 -186 q -86 -281 -17 -281 q -144 -267 -119 -281 q -170 -222 -170 -252 q -154 -184 -170 -201 q -118 -167 -138 -167 q -89 -179 -100 -167 q -77 -207 -77 -191 q -86 -237 -77 -220 q -62 -245 -74 -245 q -3 -222 -35 -245 q 45 -172 28 -198 q 89 -73 68 -137 q 125 60 109 -9 q 153 184 142 130 l 232 575 q 233 585 233 581 q 233 596 233 589 q 204 603 233 603 l 142 603 q 105 606 115 603 q 94 621 94 610 q 103 638 94 635 q 143 642 113 642 q 199 647 180 642 q 236 675 218 652 q 285 772 254 698 q 404 950 332 878 q 574 1022 476 1022 q 649 1004 616 1022 q 681 949 681 987 q 665 905 681 926 q 627 884 650 884 q 595 894 608 884 q 582 924 582 905 q 589 952 582 935 q 596 974 596 969 q 568 990 596 990 q 500 971 534 990 q 441 922 466 953 q 398 836 413 882 q 370 724 383 790 l 351 640 l 446 640 q 483 637 474 640 q 492 623 492 635 q 482 606 492 610 q 446 603 472 603 l 343 603 z "},"„":{"ha":500,"x_min":87,"x_max":427,"o":"m 93 35 q 109 79 93 62 q 150 96 124 96 q 206 63 186 96 q 227 -7 227 31 q 203 -105 227 -54 q 146 -193 180 -157 q 98 -231 109 -231 q 91 -227 94 -231 q 87 -220 87 -224 q 115 -185 87 -216 q 163 -121 143 -154 q 183 -52 183 -87 q 142 -17 183 -17 q 93 35 93 -17 m 292 35 q 307 79 292 62 q 350 96 323 96 q 407 63 387 96 q 427 -7 427 31 q 403 -106 427 -54 q 345 -193 380 -157 q 297 -232 313 -232 q 290 -229 293 -232 q 286 -221 286 -225 q 314 -186 286 -217 q 362 -121 342 -155 q 382 -52 382 -87 q 342 -17 382 -19 q 292 35 292 -17 z "},"…":{"ha":1389,"x_min":171,"x_max":1218,"o":"m 235 121 q 277 101 264 121 q 290 52 290 82 q 276 2 290 20 q 232 -17 261 -17 q 187 2 203 -17 q 171 52 171 22 q 188 102 171 83 q 235 121 205 121 m 694 121 q 754 52 754 121 q 694 -17 754 -17 q 650 1 666 -17 q 635 49 635 18 q 694 121 635 121 m 1158 121 q 1218 52 1218 121 q 1158 -17 1218 -17 q 1114 1 1130 -17 q 1099 49 1099 18 q 1158 121 1099 121 z "},"†":{"ha":555,"x_min":32,"x_max":528,"o":"m 297 484 l 342 -165 q 330 -205 342 -199 q 282 -212 319 -212 q 232 -204 245 -212 q 220 -165 220 -196 l 264 482 q 258 516 264 505 q 231 526 252 526 q 191 522 220 526 q 154 515 163 517 l 104 504 q 58 496 73 496 q 37 513 43 496 q 32 562 32 530 q 37 588 32 579 q 58 597 43 597 q 150 582 85 597 q 233 566 214 566 q 254 575 250 566 q 258 603 258 585 l 241 770 q 237 801 239 785 q 233 832 235 816 q 231 860 231 848 q 281 896 231 896 q 330 860 330 896 q 326 816 330 848 q 319 770 321 784 l 302 602 q 306 574 302 583 q 328 566 310 566 q 412 582 347 566 q 501 597 476 597 q 523 589 517 597 q 528 562 528 581 l 528 526 q 501 496 528 496 q 465 503 484 496 l 415 513 q 330 526 342 526 q 303 515 310 526 q 297 484 297 504 z "},"‡":{"ha":555,"x_min":32,"x_max":528,"o":"m 258 604 l 241 772 q 235 819 239 794 q 231 860 231 844 q 281 896 231 896 q 330 860 330 896 q 326 816 330 848 q 319 772 321 783 l 302 602 q 306 574 302 583 q 328 566 310 566 q 412 582 347 566 q 501 597 476 597 q 523 590 517 597 q 528 564 528 582 l 528 526 q 501 496 528 496 q 465 503 492 496 l 412 514 q 335 526 351 526 q 308 515 314 526 q 301 482 301 505 l 311 325 l 301 203 q 308 171 301 181 q 335 160 314 160 q 412 172 351 160 l 457 182 q 501 191 490 191 q 522 175 517 191 q 528 123 528 159 q 523 97 528 106 q 503 89 518 89 q 464 94 487 89 q 414 104 440 98 q 364 116 388 111 q 326 121 340 121 q 307 111 311 121 q 302 83 302 102 l 319 -85 q 326 -129 321 -96 q 330 -174 330 -161 q 281 -211 330 -211 q 231 -174 231 -211 q 232 -148 231 -162 q 237 -117 234 -134 q 241 -85 239 -100 l 258 85 q 254 112 258 104 q 233 121 250 121 q 192 115 220 121 q 143 104 163 109 q 99 94 123 99 q 58 89 75 89 q 38 98 43 89 q 32 122 32 106 l 32 160 q 60 191 37 191 q 77 188 66 191 q 96 183 87 186 l 149 172 q 227 160 208 160 q 253 171 247 160 q 260 203 260 182 l 250 325 l 260 482 q 254 516 260 505 q 227 526 248 526 q 149 514 212 526 l 104 504 q 81 499 93 502 q 58 496 69 496 q 37 513 43 496 q 32 564 32 530 q 38 589 32 580 q 58 597 43 597 q 150 582 85 597 q 233 566 214 566 q 254 575 250 566 q 258 604 258 585 z "},"ˆ":{"ha":583,"x_min":86,"x_max":489,"o":"m 256 833 l 139 747 q 103 728 109 728 q 92 733 97 728 q 86 745 86 739 q 97 763 86 751 q 109 777 108 775 l 240 914 q 271 943 260 934 q 297 951 282 951 q 323 944 314 951 q 350 914 332 936 l 467 782 q 489 743 489 755 q 473 728 489 728 q 435 749 459 728 l 343 825 q 316 845 327 838 q 293 852 305 852 q 256 833 282 852 z "},"‰":{"ha":1500,"x_min":24,"x_max":1480,"o":"m 212 340 q 110 385 153 340 q 45 495 67 430 q 24 618 24 560 q 45 741 24 675 q 111 851 67 806 q 214 896 154 896 q 291 871 254 896 q 350 811 327 847 q 400 618 400 732 q 354 433 400 511 q 294 367 332 393 q 212 340 256 340 m 214 366 q 287 408 262 366 q 319 505 313 451 q 326 612 326 558 q 214 861 326 861 q 121 783 145 861 q 97 612 97 704 q 121 444 97 522 q 214 366 145 366 m 838 854 l 268 16 q 260 2 265 12 q 249 -11 254 -7 q 235 -16 243 -16 l 214 -17 q 205 -8 205 -17 q 224 22 205 4 l 791 863 q 802 879 797 871 q 814 892 808 888 q 832 896 821 896 q 852 884 852 896 q 850 874 852 878 q 843 863 848 869 q 838 854 838 857 m 850 -17 q 748 28 791 -17 q 683 138 705 73 q 661 261 661 203 q 683 385 661 319 q 748 495 705 451 q 850 539 791 539 q 928 514 892 539 q 987 453 965 490 q 1036 261 1036 378 q 991 78 1036 154 q 931 10 968 37 q 850 -17 894 -17 m 851 14 q 964 262 964 14 q 943 435 964 357 q 851 513 922 513 q 757 434 781 513 q 733 262 733 355 q 757 92 733 171 q 851 14 781 14 m 1295 -17 q 1192 28 1235 -17 q 1126 138 1148 73 q 1104 261 1104 203 q 1126 385 1104 320 q 1192 495 1149 450 q 1295 539 1235 539 q 1372 515 1335 539 q 1430 453 1409 490 q 1469 363 1457 412 q 1480 261 1480 315 q 1436 78 1480 153 q 1375 10 1413 37 q 1295 -17 1337 -17 m 1296 14 q 1387 91 1366 14 q 1407 262 1407 168 q 1387 435 1407 357 q 1296 513 1366 513 q 1202 434 1225 513 q 1178 262 1178 355 q 1296 14 1178 14 z "},"Š":{"ha":667,"x_min":60,"x_max":608,"o":"m 346 401 l 275 432 q 170 488 212 460 q 101 558 128 516 q 74 660 74 601 q 96 758 74 715 q 156 832 118 802 q 242 879 194 863 q 342 896 290 896 q 441 888 391 896 q 528 865 492 880 q 548 849 544 859 q 553 813 551 839 q 555 764 554 788 q 558 704 557 741 q 543 688 558 688 q 532 693 536 688 q 526 706 528 698 q 521 720 523 714 q 457 832 497 796 q 340 868 418 868 q 214 829 266 868 q 161 718 161 791 q 184 643 161 676 q 245 587 208 610 q 321 546 282 563 q 404 510 359 529 q 542 422 507 460 q 590 344 572 389 q 608 256 608 299 q 511 56 608 140 q 289 -17 423 -17 q 179 -2 235 -17 q 79 37 122 12 q 63 65 66 46 q 60 117 60 83 q 61 180 60 153 q 64 225 62 207 q 85 253 67 253 q 95 249 92 253 q 100 237 98 244 q 103 220 102 229 q 104 205 104 211 q 136 100 112 143 q 203 33 160 57 q 309 9 245 9 q 453 61 390 9 q 515 192 515 113 q 494 285 515 246 q 436 350 472 323 q 346 401 400 376 m 363 1076 l 479 1161 q 514 1182 500 1182 q 525 1176 520 1182 q 530 1164 530 1170 q 528 1156 530 1161 q 518 1144 525 1152 q 509 1133 511 1137 l 376 996 q 319 958 342 958 q 299 963 308 958 q 282 977 290 968 q 267 996 275 985 l 151 1128 q 127 1165 127 1152 q 144 1182 127 1182 q 183 1160 157 1182 l 275 1084 q 325 1057 306 1057 q 338 1060 332 1057 q 350 1067 344 1063 q 363 1076 356 1072 z "},"‹":{"ha":222,"x_min":43,"x_max":174,"o":"m 66 358 l 106 412 q 130 447 120 435 q 153 458 140 458 q 174 437 174 458 q 151 395 174 422 q 113 315 113 338 q 120 287 113 302 q 142 251 128 271 q 165 214 156 231 q 174 184 174 198 q 157 164 174 164 q 139 171 147 164 q 127 184 132 178 q 113 204 123 190 l 66 265 q 55 280 61 273 q 46 295 50 288 q 43 311 43 303 q 46 327 43 319 q 54 341 49 334 q 66 358 60 349 z "},"Œ":{"ha":1389,"x_min":52,"x_max":1341,"o":"m 897 775 l 897 559 q 902 514 897 527 q 920 497 907 500 q 966 494 933 494 q 1135 500 1080 494 q 1167 527 1158 503 q 1183 596 1176 551 q 1202 619 1187 619 q 1217 606 1217 619 q 1210 485 1215 563 q 1217 354 1215 392 q 1202 328 1217 328 q 1183 353 1187 328 q 1135 441 1170 433 q 1060 452 1104 449 q 966 454 1016 454 q 921 452 934 454 q 903 440 908 450 q 897 407 897 431 l 897 163 q 920 61 897 87 q 974 37 941 42 q 1051 32 1006 32 q 1177 40 1133 32 q 1253 81 1221 49 q 1308 182 1286 113 q 1329 207 1316 207 q 1341 191 1341 207 q 1337 160 1341 180 q 1321 31 1321 66 q 1316 7 1321 14 q 1297 0 1312 0 l 720 0 q 629 -8 686 0 q 542 -17 571 -17 q 456 -8 500 -17 q 367 18 412 1 q 280 60 321 35 q 204 114 239 85 q 91 263 130 180 q 52 444 52 347 q 91 616 52 534 q 200 761 131 698 q 355 860 269 825 q 528 895 440 895 q 626 889 574 895 q 730 879 678 884 q 828 873 781 873 l 1270 873 q 1296 871 1289 873 q 1304 862 1302 869 q 1305 832 1305 855 l 1305 718 q 1293 679 1305 679 q 1281 687 1286 679 q 1271 707 1275 695 q 1265 724 1267 718 q 1235 788 1253 762 q 1185 825 1217 813 q 1075 840 1147 840 l 1015 840 q 994 841 1004 841 q 962 842 983 842 q 909 833 923 842 q 897 775 897 823 m 787 195 l 787 671 l 787 701 q 779 767 787 741 q 745 814 770 793 q 656 853 710 842 q 551 865 603 865 q 395 836 463 865 q 272 739 327 806 q 202 612 226 684 q 178 465 178 540 q 288 144 178 279 q 369 68 326 98 q 462 27 413 39 q 579 16 511 16 q 761 75 713 16 q 783 125 778 98 q 787 195 787 152 z "},"‘":{"ha":306,"x_min":86,"x_max":225,"o":"m 214 896 q 222 892 218 896 q 225 885 225 889 q 198 852 225 882 q 150 788 171 823 q 129 718 129 754 q 140 691 129 699 q 171 684 151 684 q 207 669 195 682 q 220 632 220 655 q 204 587 220 605 q 163 570 189 570 q 106 601 126 570 q 86 672 86 633 q 110 770 86 718 q 167 859 133 823 q 191 883 176 869 q 214 896 207 896 z "},"’":{"ha":306,"x_min":87,"x_max":227,"o":"m 93 836 q 109 880 93 863 q 150 896 124 896 q 207 865 186 896 q 227 794 227 833 q 204 697 227 748 q 146 607 181 646 q 98 570 109 570 q 87 582 87 570 q 115 616 87 585 q 163 680 143 647 q 183 749 183 713 q 142 785 183 785 q 93 836 93 785 z "},"“":{"ha":528,"x_min":86,"x_max":441,"o":"m 431 896 q 438 892 435 896 q 441 885 441 889 q 414 851 441 882 q 366 787 386 821 q 346 718 346 753 q 387 684 346 684 q 424 669 411 682 q 436 632 436 655 q 420 587 436 605 q 379 570 405 570 q 322 601 342 570 q 302 672 302 633 q 326 770 302 719 q 383 859 349 821 q 408 883 392 869 q 431 896 425 896 m 214 896 q 222 893 219 896 q 225 886 225 891 q 198 853 225 883 q 150 789 171 823 q 129 718 129 755 q 140 691 129 699 q 171 684 151 684 q 207 670 195 684 q 220 632 220 656 q 204 587 220 605 q 163 570 189 570 q 106 601 125 570 q 86 673 86 633 q 109 771 86 719 q 167 860 132 823 q 214 896 203 896 z "},"”":{"ha":528,"x_min":87,"x_max":443,"o":"m 93 836 q 109 880 93 863 q 150 896 124 896 q 207 865 186 896 q 227 794 227 833 q 204 697 227 748 q 146 607 181 646 q 98 570 109 570 q 87 582 87 570 q 115 616 87 585 q 163 680 143 647 q 183 749 183 713 q 142 785 183 785 q 93 836 93 785 m 310 835 q 325 879 310 862 q 367 896 340 896 q 423 864 404 896 q 443 794 443 833 q 419 695 443 748 q 363 607 396 643 q 315 570 329 570 q 308 573 311 570 q 304 581 304 576 q 332 615 304 584 q 380 680 360 646 q 400 747 400 713 q 358 783 400 783 q 310 835 310 785 z "},"•":{"ha":861,"x_min":192,"x_max":669,"o":"m 192 433 q 224 542 192 492 q 312 622 256 593 q 431 652 367 652 q 549 622 494 652 q 637 542 604 593 q 669 433 669 492 q 599 280 669 344 q 431 216 528 216 q 262 280 333 216 q 192 433 192 344 z "},"–":{"ha":694,"x_min":-22,"x_max":717,"o":"m 694 281 l -22 281 l 0 353 l 717 353 l 694 281 z "},"—":{"ha":1389,"x_min":-22,"x_max":1411,"o":"m 1389 281 l -22 281 l 0 353 l 1411 353 l 1389 281 z "},"˜":{"ha":583,"x_min":87,"x_max":500,"o":"m 289 783 q 236 818 259 804 q 189 831 214 831 q 145 814 162 831 q 114 772 128 798 q 96 747 100 747 q 87 757 87 747 q 90 766 87 756 q 93 779 92 777 q 141 850 111 822 q 211 879 171 879 q 268 865 239 879 q 323 831 296 851 q 352 811 336 822 q 386 792 368 800 q 418 785 403 785 q 479 832 455 785 q 492 848 484 848 q 500 838 500 848 q 482 796 500 821 q 389 737 444 737 q 289 783 350 737 z "},"™":{"ha":1194,"x_min":60,"x_max":1133,"o":"m 688 896 l 835 542 l 975 896 l 1126 896 l 1126 871 l 1109 872 q 1074 847 1074 872 l 1074 500 q 1078 462 1074 473 q 1093 447 1082 450 q 1133 441 1104 443 l 1133 415 l 936 415 l 936 441 q 976 447 965 443 q 991 462 987 450 q 996 500 996 473 l 996 843 l 986 843 l 819 415 l 808 415 l 639 843 l 629 843 l 629 479 q 647 450 629 457 q 697 441 665 443 l 697 415 l 528 415 l 528 441 q 578 450 560 443 q 596 479 596 457 l 596 851 q 584 868 596 865 q 549 871 572 871 l 549 896 l 688 896 m 60 781 l 60 896 l 468 896 l 468 781 l 437 781 q 416 849 437 833 q 339 864 395 864 l 302 864 l 302 479 q 312 456 302 464 q 334 445 321 448 q 371 441 348 443 l 371 415 l 155 415 l 155 441 q 206 450 188 443 q 224 479 224 457 l 224 864 l 196 864 q 133 860 153 864 q 101 838 113 856 q 90 781 90 819 l 60 781 z "},"š":{"ha":570,"x_min":47,"x_max":507,"o":"m 47 77 l 52 170 q 56 192 54 183 q 69 200 59 200 q 91 174 84 200 q 111 105 98 149 q 156 35 123 61 q 252 8 189 8 q 332 24 293 8 q 396 71 372 40 q 421 146 421 102 q 385 231 421 201 q 288 281 349 261 q 175 322 210 307 q 107 371 139 337 q 75 457 75 405 q 149 587 75 534 q 313 635 214 635 q 388 627 342 635 q 456 610 433 620 q 472 576 472 602 q 472 561 472 566 q 471 547 471 555 q 472 535 471 541 q 472 515 472 529 q 457 478 472 478 q 431 510 446 478 q 408 558 416 543 q 370 591 399 573 q 288 610 340 610 q 200 581 240 610 q 160 507 160 553 q 199 429 160 452 q 327 374 239 405 q 461 304 415 343 q 507 187 507 264 q 484 101 507 138 q 422 37 461 64 q 335 -3 383 10 q 243 -17 286 -17 q 155 -5 208 -17 q 66 25 102 7 q 51 43 54 32 q 47 77 47 54 m 307 818 l 424 903 q 458 924 445 924 q 470 918 465 924 q 475 905 475 911 q 472 898 475 903 q 463 886 469 893 q 453 875 456 878 l 321 737 q 264 700 287 700 q 243 705 252 700 q 227 719 235 710 q 211 737 219 727 l 96 869 q 72 907 72 893 q 89 924 72 924 q 127 901 102 924 l 220 827 q 269 799 249 799 q 282 802 276 799 q 294 809 288 805 q 307 818 300 813 z "},"›":{"ha":222,"x_min":45,"x_max":175,"o":"m 151 265 l 106 204 q 93 186 99 195 q 79 171 87 178 q 61 164 71 164 q 45 184 45 164 q 54 213 45 196 q 77 249 64 231 q 98 284 90 268 q 106 315 106 300 q 66 395 106 340 q 45 437 45 424 q 65 458 45 458 q 89 446 79 458 q 113 412 99 434 l 151 358 q 170 332 165 340 q 175 311 175 324 q 169 289 175 298 q 151 265 162 279 z "},"œ":{"ha":1222,"x_min":49,"x_max":1166,"o":"m 1118 412 l 766 412 q 718 406 724 412 q 705 322 705 391 q 735 187 705 250 q 822 84 766 124 q 953 45 878 45 q 1046 63 1008 45 q 1115 106 1084 81 q 1150 132 1145 132 q 1158 122 1158 132 q 1153 109 1158 117 q 1138 92 1147 100 q 1126 81 1129 83 q 907 -17 1029 -17 q 808 0 854 -17 q 725 50 762 18 q 659 129 687 82 q 534 22 610 62 q 376 -17 458 -17 q 213 28 288 -17 q 93 149 137 73 q 49 310 49 224 q 73 431 49 375 q 144 532 98 487 q 257 605 192 576 q 383 635 322 635 q 540 595 467 635 q 659 486 613 555 q 732 564 688 530 q 827 616 776 597 q 930 635 879 635 q 1031 614 983 635 q 1116 554 1080 593 q 1166 440 1166 493 q 1157 417 1166 421 q 1118 412 1148 412 m 785 446 l 913 446 q 1013 457 972 446 q 1054 513 1054 469 q 1033 565 1054 543 q 980 598 1012 587 q 920 610 949 610 q 771 539 835 610 q 732 467 732 496 q 744 450 732 454 q 785 446 755 446 m 382 9 q 479 40 433 9 q 554 118 525 71 q 593 207 580 157 q 607 309 607 257 q 592 419 607 363 q 546 515 576 474 q 474 584 517 559 q 382 610 431 610 q 258 566 310 610 q 180 454 206 522 q 154 317 154 387 q 172 204 154 261 q 221 103 189 147 q 294 37 249 64 q 382 9 339 9 z "},"Ÿ":{"ha":917,"x_min":-8,"x_max":928,"o":"m 500 425 l 690 718 q 729 802 729 779 q 669 836 729 836 q 612 850 612 836 q 644 873 612 873 q 709 871 666 873 q 772 868 751 868 q 835 871 793 868 q 899 873 877 873 q 919 868 909 873 q 928 852 928 863 q 888 836 928 836 q 836 823 861 836 q 792 790 812 810 q 751 738 772 769 q 720 692 730 707 l 549 433 q 520 384 525 394 q 513 358 515 373 q 511 302 511 343 l 511 146 q 516 71 511 94 q 539 38 521 47 q 602 29 557 29 q 637 12 637 29 q 614 -5 637 -5 q 536 -3 587 -5 q 458 0 486 0 q 379 -3 432 0 q 300 -5 326 -5 q 277 12 277 -5 q 311 29 277 29 q 372 37 353 29 q 396 62 391 45 q 401 115 401 79 l 401 146 l 401 322 q 395 385 401 367 q 364 439 389 404 l 174 724 q 129 791 142 773 q 92 822 116 808 q 31 836 68 836 q -8 854 -8 836 q 20 873 -8 873 q 82 871 40 873 q 144 868 124 868 q 240 871 176 868 q 336 873 304 873 q 361 857 361 873 q 351 840 361 844 q 323 836 340 836 q 256 808 256 836 q 289 741 256 793 l 500 425 m 325 996 q 284 1016 300 996 q 268 1063 268 1036 q 284 1107 268 1090 q 328 1124 300 1124 q 370 1105 354 1124 q 386 1060 386 1086 q 369 1014 386 1032 q 325 996 352 996 m 581 996 q 540 1016 556 996 q 524 1063 524 1036 q 540 1107 524 1090 q 583 1124 556 1124 q 625 1105 609 1124 q 642 1060 642 1086 q 625 1014 642 1032 q 581 996 608 996 z "}," ":{"ha":694,"x_min":0,"x_max":0,"o":""},"¡":{"ha":306,"x_min":96,"x_max":218,"o":"m 158 635 q 202 613 185 635 q 218 562 218 592 q 201 513 218 534 q 155 492 183 492 q 112 513 128 492 q 96 562 96 535 q 113 614 96 593 q 158 635 130 635 m 96 -201 l 143 309 q 149 366 143 336 q 161 376 151 376 q 176 317 176 376 l 218 -196 q 202 -256 218 -231 q 154 -281 186 -281 q 96 -201 96 -281 z "},"¢":{"ha":694,"x_min":92,"x_max":603,"o":"m 410 697 l 410 254 q 414 217 410 227 q 433 207 418 207 q 508 223 475 207 q 566 260 541 239 q 593 282 591 282 q 603 272 603 282 q 562 224 603 257 q 446 167 514 180 q 415 153 420 161 q 410 113 410 145 l 410 43 q 407 17 410 22 q 396 11 405 11 q 383 17 386 11 q 380 45 380 24 l 380 115 q 377 150 380 140 q 361 160 373 159 q 204 221 268 169 q 123 324 154 260 q 92 452 92 388 q 125 591 92 527 q 217 700 159 655 q 349 762 276 744 q 376 779 371 770 q 380 815 380 787 l 380 879 q 385 912 380 907 q 404 918 389 918 q 410 879 410 916 l 410 817 q 414 780 410 788 q 433 770 418 772 q 561 739 488 768 q 586 723 580 732 q 593 699 593 715 q 592 684 593 691 q 591 668 592 677 q 576 603 591 603 q 557 614 567 603 q 537 642 547 625 q 522 665 527 658 q 458 732 493 714 q 425 743 441 743 q 412 733 415 743 q 410 697 410 722 m 380 260 l 380 696 q 377 730 380 721 q 364 739 374 739 q 323 724 349 739 q 282 696 298 709 q 212 597 236 656 q 187 475 187 538 q 215 354 187 414 q 290 257 243 294 q 331 232 307 245 q 367 220 355 220 q 380 260 380 220 z "},"£":{"ha":694,"x_min":4,"x_max":690,"o":"m 161 184 q 105 162 130 184 q 81 103 81 140 q 108 31 81 56 q 172 7 135 7 q 278 50 225 7 q 300 85 300 68 q 264 127 300 92 q 161 184 201 184 m 290 386 l 104 386 q 96 396 96 389 q 103 417 96 412 q 132 422 111 422 l 243 422 q 279 433 279 422 q 263 473 279 440 q 234 547 246 506 q 221 643 221 589 q 251 776 221 718 q 329 865 280 833 q 435 896 378 896 q 530 871 488 896 q 555 831 555 857 q 546 783 555 812 q 526 754 537 754 q 506 771 518 754 q 479 812 494 788 q 445 851 465 836 q 397 867 425 867 q 340 845 365 867 q 302 785 315 823 q 289 704 289 748 q 306 606 289 652 q 354 496 322 559 l 378 444 q 389 427 385 431 q 404 422 393 422 l 571 422 q 578 415 578 422 q 570 391 578 397 q 541 386 562 386 l 418 386 q 407 372 407 386 q 410 358 407 363 q 418 306 418 317 q 412 242 418 270 q 394 189 406 215 q 377 151 383 163 q 371 134 371 138 q 374 126 371 130 q 381 120 377 123 q 387 115 385 117 q 483 58 448 76 q 554 40 519 40 q 626 65 593 40 q 660 139 660 90 q 651 171 660 163 q 625 185 642 179 q 599 200 607 192 q 591 235 591 209 q 603 271 591 258 q 632 283 614 283 q 674 253 658 283 q 690 186 690 222 q 663 77 690 126 q 593 2 636 28 q 505 -25 551 -25 q 425 -5 463 -25 q 357 40 387 14 q 325 65 327 65 q 307 49 319 65 q 232 -6 275 14 q 146 -25 189 -25 q 49 3 94 -25 q 4 92 4 31 q 29 160 4 132 q 89 203 54 189 q 155 216 125 216 q 240 199 190 216 q 319 160 291 181 q 339 150 336 150 q 353 175 350 150 q 357 225 357 200 q 321 361 357 292 q 309 382 313 378 q 290 386 304 386 z "},"¤":{"ha":694,"x_min":52,"x_max":642,"o":"m 52 175 l 121 245 q 72 335 90 284 q 53 435 53 385 q 121 625 53 543 l 52 694 l 89 732 l 157 664 q 347 732 240 732 q 414 724 379 732 q 481 700 450 715 q 536 664 512 685 l 604 732 l 642 694 l 574 625 q 640 433 640 542 q 623 332 640 380 q 574 245 606 283 l 642 175 l 604 139 l 536 207 q 343 138 452 138 q 157 207 245 138 l 89 139 l 52 175 m 347 664 q 235 633 288 664 q 153 549 183 602 q 122 436 122 496 q 153 322 122 375 q 234 238 183 269 q 346 207 286 207 q 433 224 392 207 q 506 273 475 242 q 554 345 536 304 q 572 433 572 386 q 543 549 572 496 q 460 633 513 602 q 347 664 408 664 z "},"¥":{"ha":694,"x_min":0,"x_max":696,"o":"m 457 509 l 562 509 q 592 505 585 509 q 599 489 599 502 q 590 474 599 477 q 562 471 582 471 l 450 471 q 427 469 432 471 q 415 456 421 468 q 404 436 409 444 q 393 410 404 435 q 383 372 383 385 q 392 359 383 362 q 421 357 401 357 l 562 357 q 591 353 584 357 q 599 338 599 350 q 590 323 599 326 q 562 319 582 319 l 419 319 q 387 314 393 319 q 380 286 380 308 q 381 266 381 275 q 382 235 382 256 l 382 146 q 385 69 382 90 q 402 39 388 47 q 450 31 416 31 q 472 27 466 31 q 478 12 478 24 q 458 -5 478 -5 q 404 -3 439 -5 q 350 0 368 0 q 288 -3 329 0 q 228 -5 248 -5 q 211 11 211 -5 q 233 31 211 31 q 284 39 270 31 q 302 69 299 47 q 306 146 306 90 l 306 288 q 303 312 306 304 q 290 319 300 319 l 123 319 q 97 322 105 319 q 89 336 89 325 q 97 353 89 349 q 123 357 104 357 l 268 357 q 298 360 290 357 q 306 375 306 363 q 290 422 306 395 q 267 465 273 458 q 231 471 260 471 l 123 471 q 97 474 105 471 q 89 489 89 477 q 96 505 89 502 q 123 509 102 509 l 224 509 q 240 519 240 509 q 235 538 240 526 q 227 554 230 551 l 127 757 q 81 833 100 814 q 18 859 63 852 q 5 864 9 861 q 0 878 0 867 q 3 892 0 889 q 16 896 7 896 q 75 893 37 896 q 131 890 113 890 q 191 893 151 890 q 253 896 232 896 q 267 880 267 896 q 248 861 267 861 l 232 860 q 218 859 229 860 q 201 856 208 859 q 189 847 194 854 q 184 831 184 841 q 194 802 184 821 q 204 781 203 783 l 370 437 l 511 734 q 524 763 515 743 q 537 797 532 782 q 542 827 542 812 q 494 857 542 857 l 476 857 q 454 875 454 861 q 479 896 454 896 q 532 893 497 896 q 586 890 568 890 q 633 893 603 890 q 676 896 663 896 q 696 879 696 896 q 671 860 696 860 q 614 835 642 860 q 584 795 599 819 q 556 745 570 772 q 528 690 543 719 l 465 557 q 454 535 460 550 q 447 517 447 520 q 457 509 447 509 z "},"¦":{"ha":778,"x_min":357,"x_max":432,"o":"m 357 0 l 357 393 l 432 393 l 432 0 l 357 0 m 357 590 l 357 983 l 432 983 l 432 590 l 357 590 z "},"§":{"ha":500,"x_min":52,"x_max":456,"o":"m 228 119 l 153 256 q 77 428 102 349 q 52 597 52 507 q 80 744 52 675 q 166 854 109 813 q 302 896 223 896 q 418 864 376 896 q 452 811 452 838 q 439 772 452 789 q 404 755 426 755 q 365 767 385 755 q 320 800 345 779 q 280 832 296 821 q 249 843 264 843 q 203 781 203 843 q 218 711 203 752 q 252 630 233 670 q 292 555 272 591 l 338 473 q 426 285 397 371 q 456 100 456 199 q 432 -56 456 18 q 357 -178 409 -130 q 224 -227 305 -227 q 151 -215 192 -227 q 81 -179 110 -203 q 52 -122 52 -155 q 69 -80 52 -98 q 110 -61 87 -61 q 153 -76 132 -61 q 201 -119 174 -90 q 242 -157 229 -147 q 273 -167 255 -167 q 311 -151 297 -167 q 325 -113 325 -136 q 307 -42 325 -88 q 271 38 288 4 q 228 119 254 73 m 216 282 l 347 29 q 352 20 349 26 q 357 10 355 14 q 365 3 360 6 q 374 0 370 0 q 399 74 399 0 q 374 250 399 167 q 297 422 349 332 l 250 507 q 197 612 219 564 q 164 699 176 661 q 142 724 155 724 q 115 611 115 724 q 216 282 115 471 z "},"¨":{"ha":555,"x_min":87,"x_max":461,"o":"m 144 737 q 104 757 120 737 q 87 804 87 777 q 104 848 87 831 q 147 865 120 865 q 189 846 173 865 q 205 802 205 827 q 189 755 205 774 q 144 737 172 737 m 400 737 q 359 757 376 737 q 343 804 343 777 q 359 848 343 831 q 403 865 376 865 q 445 846 429 865 q 461 802 461 827 q 444 755 461 774 q 400 737 427 737 z "},"©":{"ha":1055,"x_min":87,"x_max":981,"o":"m 529 -17 q 359 19 439 -17 q 217 118 279 55 q 122 265 156 182 q 87 439 87 348 q 146 667 87 562 q 308 834 205 772 q 530 896 411 896 q 707 860 624 896 q 851 763 790 825 q 946 618 911 701 q 981 439 981 536 q 920 209 981 314 q 754 43 859 104 q 529 -17 650 -17 m 538 31 q 735 87 644 31 q 880 238 827 143 q 933 440 933 332 q 902 600 933 526 q 817 729 871 673 q 688 817 762 785 q 530 848 614 848 q 332 792 424 848 q 187 643 241 736 q 134 440 134 549 q 165 282 134 356 q 254 151 197 208 q 384 62 311 93 q 538 31 456 31 m 728 684 l 728 539 l 689 539 q 649 641 686 603 q 550 679 612 679 q 416 613 462 679 q 370 453 370 547 q 391 336 370 391 q 456 246 413 280 q 559 212 499 212 q 663 248 616 212 q 684 268 675 256 q 710 306 694 281 l 743 296 q 692 223 728 253 q 613 179 657 194 q 524 164 568 164 q 388 200 447 164 q 297 299 330 236 q 265 439 265 363 q 299 586 265 522 q 396 685 334 650 q 539 721 459 721 q 728 684 618 721 z "},"ª":{"ha":472,"x_min":31,"x_max":421,"o":"m 347 802 l 347 616 q 372 546 347 546 q 397 558 382 546 q 411 567 404 567 q 421 557 421 567 q 389 521 421 539 q 336 503 356 503 q 283 554 301 503 q 282 557 283 554 q 278 561 280 561 q 256 543 279 561 q 203 511 233 525 q 142 497 174 497 q 84 517 109 497 q 58 568 58 536 q 96 637 58 610 q 192 692 134 665 l 245 717 q 273 731 267 727 q 281 745 279 736 q 283 782 283 755 q 275 850 283 829 q 233 871 267 871 q 176 856 195 871 q 143 814 157 842 q 116 773 130 787 q 72 760 102 760 q 58 775 58 760 q 92 835 58 803 q 165 879 121 862 q 250 896 210 896 q 329 873 304 896 q 344 850 340 865 q 347 802 347 836 m 272 704 l 200 668 q 164 649 181 659 q 134 624 146 639 q 122 589 122 608 q 144 556 126 567 q 184 545 162 545 q 262 578 229 545 q 280 607 276 591 q 283 663 283 623 q 280 689 283 673 q 272 704 277 704 m 419 432 l 419 389 l 31 389 l 31 432 l 419 432 z "},"«":{"ha":361,"x_min":43,"x_max":325,"o":"m 66 358 l 106 412 q 130 447 120 435 q 153 458 140 458 q 174 437 174 458 q 151 395 174 422 q 113 315 113 338 q 120 287 113 302 q 142 251 128 271 q 165 214 156 231 q 174 184 174 198 q 157 164 174 164 q 139 171 147 164 q 127 184 132 178 q 113 204 123 190 l 66 265 q 55 280 61 273 q 46 295 50 288 q 43 311 43 303 q 46 327 43 319 q 54 341 49 334 q 66 358 60 349 m 218 358 l 257 412 q 281 446 271 434 q 304 458 292 458 q 325 439 325 458 q 302 395 325 422 q 264 315 264 338 q 272 287 264 302 q 293 251 279 271 q 316 214 307 231 q 325 184 325 198 q 309 165 325 165 q 291 172 299 165 q 277 186 283 178 q 264 204 271 195 l 218 265 q 207 280 212 273 q 198 295 201 287 q 195 313 195 304 q 198 328 195 320 q 207 344 201 336 q 218 358 213 351 z "},"¬":{"ha":778,"x_min":81,"x_max":696,"o":"m 696 564 l 696 186 l 621 186 l 621 488 l 81 488 l 81 564 l 696 564 z "},"−":{"ha":778,"x_min":81,"x_max":696,"o":"m 696 392 l 81 392 l 81 467 l 696 467 l 696 392 z "},"®":{"ha":1055,"x_min":87,"x_max":982,"o":"m 530 -17 q 361 18 441 -17 q 219 118 282 54 q 121 266 155 183 q 87 437 87 348 q 122 615 87 531 q 216 761 156 699 q 358 860 276 824 q 530 896 440 896 q 756 836 652 896 q 921 672 860 776 q 982 443 982 568 q 948 264 982 347 q 851 117 913 180 q 705 18 788 54 q 530 -17 623 -17 m 530 31 q 686 62 612 31 q 816 149 760 93 q 903 280 872 205 q 935 439 935 355 q 904 598 935 524 q 819 729 874 673 q 690 817 764 786 q 534 848 616 848 q 379 817 453 848 q 250 729 305 785 q 165 598 195 673 q 135 439 135 524 q 188 236 135 330 q 333 86 241 142 q 530 31 425 31 m 321 701 l 321 728 l 532 728 q 619 723 583 728 q 682 701 656 718 q 722 657 707 686 q 737 596 737 629 q 694 499 737 539 q 596 454 651 458 q 659 412 634 446 q 707 321 683 377 q 719 295 711 311 q 735 264 727 279 q 753 237 743 249 q 799 221 766 221 l 799 195 l 764 195 l 734 195 q 676 208 695 195 q 655 236 665 217 q 636 275 644 255 q 621 311 627 295 q 599 365 610 337 q 576 408 587 393 q 545 431 564 422 q 490 439 526 439 l 468 439 l 468 290 q 472 239 468 255 q 490 222 476 223 l 530 220 l 530 195 l 321 195 l 321 220 l 346 221 q 374 229 367 221 q 382 258 382 237 l 382 668 q 371 693 380 688 q 343 700 363 699 l 321 701 m 468 468 l 488 468 q 609 490 566 468 q 652 586 652 513 q 611 679 652 648 q 530 699 586 699 q 478 691 489 699 q 468 643 468 683 l 468 468 z "},"¯":{"ha":528,"x_min":86,"x_max":440,"o":"m 403 762 l 97 762 q 86 768 86 762 q 89 781 86 772 l 96 799 q 99 812 98 807 q 104 819 101 818 q 118 821 107 821 l 422 821 q 440 814 440 821 q 437 800 440 809 q 432 783 434 790 q 422 765 425 767 q 403 762 419 762 z "},"°":{"ha":555,"x_min":69,"x_max":486,"o":"m 486 690 q 470 609 486 648 q 426 542 454 571 q 358 496 397 512 q 278 479 319 479 q 173 508 222 479 q 97 585 125 536 q 69 690 69 633 q 97 795 69 747 q 173 871 125 843 q 278 900 222 900 q 358 884 319 900 q 425 838 396 868 q 470 770 454 808 q 486 690 486 732 m 431 690 q 410 768 431 732 q 353 824 389 804 q 277 844 318 844 q 169 799 214 844 q 125 690 125 754 q 170 581 125 626 q 278 536 214 536 q 354 557 319 536 q 410 613 389 577 q 431 690 431 648 z "},"±":{"ha":778,"x_min":81,"x_max":696,"o":"m 81 485 l 351 485 l 351 743 l 427 743 l 427 485 l 696 485 l 696 410 l 427 410 l 427 150 l 351 150 l 351 410 l 81 410 l 81 485 m 696 0 l 81 0 l 81 77 l 696 77 l 696 0 z "},"²":{"ha":416,"x_min":26,"x_max":389,"o":"m 389 475 l 389 378 q 382 366 389 368 q 364 363 376 363 l 56 363 q 26 372 26 363 q 31 382 26 376 q 39 395 35 389 l 160 529 q 270 657 230 604 q 310 761 310 709 q 295 819 310 794 q 252 858 279 844 q 189 872 224 872 q 115 852 148 872 q 61 796 81 831 q 45 781 51 781 q 36 787 36 781 q 66 840 36 804 q 215 900 121 900 q 297 884 258 900 q 359 838 336 869 q 383 768 383 808 q 369 705 383 734 q 328 649 354 676 q 273 597 302 623 l 121 460 q 103 432 103 442 q 132 428 103 428 l 301 428 q 351 436 337 428 q 370 475 365 444 q 379 496 370 496 q 389 475 389 496 z "},"³":{"ha":416,"x_min":21,"x_max":395,"o":"m 64 629 l 93 648 q 170 693 128 669 q 242 746 212 717 q 272 807 272 774 q 247 857 272 839 q 186 875 221 875 q 126 859 155 875 q 81 818 98 843 q 65 804 74 804 q 57 814 57 804 q 83 854 57 826 q 210 900 128 898 q 301 876 261 900 q 342 806 342 852 q 316 752 342 773 q 249 710 290 730 l 180 676 l 183 673 l 228 677 q 347 636 300 677 q 395 530 395 595 q 311 367 395 437 q 216 307 267 330 q 113 283 164 283 q 51 296 81 283 q 21 336 21 309 q 30 361 21 351 q 54 371 38 371 q 97 338 77 371 q 117 315 109 321 q 140 310 125 310 q 203 325 168 310 q 258 357 238 339 q 310 420 292 384 q 329 497 329 456 q 311 570 329 537 q 261 621 294 602 q 183 640 228 640 q 81 612 135 640 q 60 604 64 604 q 50 614 50 604 q 64 629 50 621 z "},"´":{"ha":500,"x_min":86,"x_max":407,"o":"m 338 828 l 136 726 q 115 718 130 724 q 96 711 100 711 q 86 722 86 711 q 91 732 86 727 q 104 742 96 737 q 114 749 111 747 l 298 888 q 314 899 307 894 q 333 912 321 905 q 354 923 345 920 q 372 926 363 926 q 397 916 387 926 q 407 890 407 905 q 400 870 407 880 q 384 853 394 861 q 361 839 374 845 q 338 828 348 833 z "},"µ":{"ha":778,"x_min":16,"x_max":734,"o":"m 643 581 l 643 168 l 643 131 q 653 90 643 103 q 699 77 663 77 l 717 78 q 734 65 734 78 q 727 55 734 58 q 705 47 720 52 q 567 -12 607 18 q 559 -17 564 -14 q 551 -21 554 -21 q 545 -9 545 -21 l 545 24 q 533 82 545 82 q 507 64 527 82 q 467 32 486 46 q 322 -17 399 -17 q 211 14 260 -17 q 204 -21 204 14 q 208 -97 204 -24 q 211 -214 211 -170 q 164 -315 211 -313 q 115 -214 115 -315 q 133 -75 115 -164 q 150 40 150 14 q 139 87 150 73 q 115 262 115 121 l 115 475 q 116 497 116 487 q 117 521 117 507 q 104 571 117 554 q 53 587 92 587 q 16 607 16 587 q 33 615 16 615 l 189 615 q 207 605 203 615 q 211 566 211 594 l 211 262 q 236 106 211 146 q 294 57 256 73 q 375 40 333 40 q 524 104 468 40 q 542 137 537 119 q 547 176 547 154 l 547 207 l 547 475 q 548 497 548 487 q 549 522 549 507 q 536 571 549 555 q 486 587 524 587 q 447 606 447 587 q 467 615 447 615 l 628 615 q 641 609 638 615 q 643 581 643 603 z "},"¶":{"ha":861,"x_min":25,"x_max":817,"o":"m 671 790 l 671 -139 q 665 -206 671 -186 q 637 -225 659 -225 q 608 -206 614 -225 q 602 -157 602 -187 l 602 802 l 507 802 l 507 -136 l 507 -165 q 473 -225 507 -225 q 445 -209 451 -225 q 439 -165 439 -193 l 439 297 q 293 326 365 304 q 160 387 221 348 q 62 485 98 426 q 25 621 25 543 q 111 810 25 743 q 211 855 156 843 q 334 867 265 867 l 761 867 q 802 859 788 867 q 817 827 817 852 q 801 798 817 805 q 745 790 785 790 l 671 790 m 439 803 l 397 803 q 135 614 135 803 q 169 493 135 542 q 269 407 203 444 q 439 353 357 358 l 439 803 z "},"∙":{"ha":361,"x_min":119,"x_max":240,"o":"m 182 366 q 137 386 154 366 q 119 433 119 406 q 137 483 119 464 q 184 503 155 503 q 227 483 213 503 q 240 433 240 463 q 182 366 240 366 z "},"¸":{"ha":444,"x_min":86,"x_max":349,"o":"m 231 0 l 168 -85 l 207 -82 q 303 -103 258 -82 q 349 -170 349 -125 q 327 -230 349 -204 q 272 -270 304 -256 q 207 -283 239 -283 q 127 -270 169 -283 q 86 -227 86 -256 q 93 -207 86 -216 q 111 -197 100 -197 q 139 -217 123 -197 q 169 -249 155 -237 q 212 -260 182 -260 q 275 -237 245 -260 q 304 -183 304 -215 q 182 -114 304 -114 q 166 -115 176 -114 q 144 -117 155 -116 q 127 -118 134 -118 q 117 -110 117 -118 q 124 -95 117 -105 q 134 -82 132 -84 l 195 0 l 231 0 z "},"¹":{"ha":416,"x_min":60,"x_max":355,"o":"m 258 886 l 258 453 q 261 411 258 425 q 276 390 264 397 q 314 382 288 382 l 340 382 q 355 371 355 382 q 340 359 355 359 l 94 359 q 79 372 79 359 q 87 381 79 380 q 126 382 95 382 q 172 388 159 382 q 188 406 185 393 q 191 452 191 419 l 191 827 q 176 842 191 842 q 150 833 166 842 l 98 812 q 90 809 96 812 q 79 805 85 807 q 69 803 74 803 q 60 814 60 803 q 86 832 60 823 l 237 893 q 249 896 241 896 q 258 886 258 896 z "},"º":{"ha":472,"x_min":17,"x_max":446,"o":"m 232 501 q 125 527 174 501 q 47 598 77 552 q 17 703 17 644 q 46 805 17 761 q 126 872 76 849 q 232 896 176 896 q 337 872 288 896 q 416 805 387 849 q 446 703 446 760 q 416 598 446 644 q 338 527 387 552 q 232 501 289 501 m 235 526 q 308 552 275 526 q 357 617 340 577 q 374 697 374 656 q 357 782 374 741 q 307 847 340 822 q 231 872 275 872 q 128 823 167 872 q 89 708 89 773 q 106 623 89 665 q 157 553 123 581 q 235 526 191 526 m 437 433 l 437 390 l 18 390 l 18 433 l 437 433 z "},"»":{"ha":361,"x_min":45,"x_max":326,"o":"m 302 265 l 257 204 q 234 173 242 182 q 212 164 227 164 q 196 184 196 164 q 205 213 196 196 q 228 249 215 231 q 249 284 241 268 q 257 315 257 300 q 218 395 257 338 q 196 437 196 422 q 216 458 196 458 q 265 412 235 458 l 304 358 q 314 343 309 352 q 323 327 320 334 q 326 311 326 319 q 320 289 326 298 q 302 265 313 279 m 151 265 l 106 204 q 92 184 96 190 q 79 171 87 178 q 61 164 71 164 q 45 184 45 164 q 54 213 45 196 q 77 249 64 231 q 98 284 90 268 q 106 315 106 300 q 66 395 106 340 q 45 439 45 424 q 65 458 45 458 q 114 412 83 458 l 153 358 q 170 333 165 341 q 175 311 175 325 q 169 289 175 298 q 151 265 162 279 z "},"¼":{"ha":1042,"x_min":56,"x_max":986,"o":"m 254 882 l 254 449 q 257 407 254 420 q 272 386 260 393 q 310 378 283 378 l 336 378 q 351 367 351 378 q 336 355 351 355 l 90 355 q 75 368 75 355 q 83 377 75 376 q 122 378 91 378 q 177 390 168 378 q 186 447 186 402 l 186 822 q 172 838 186 838 q 146 829 162 838 l 94 808 q 86 805 92 808 q 75 801 81 803 q 65 799 70 799 q 56 810 56 799 q 82 828 56 819 l 233 889 q 244 892 237 892 q 254 882 254 892 m 900 140 l 900 68 q 903 35 900 45 q 917 21 906 25 q 950 17 927 17 q 971 5 971 17 q 956 -3 971 -3 q 913 -1 941 -3 q 871 0 885 0 q 821 -1 854 0 q 772 -3 788 -3 q 758 5 758 -3 q 778 17 758 17 q 812 20 802 17 q 830 33 826 23 q 833 68 833 42 l 833 140 q 830 165 833 161 q 803 168 826 168 l 611 168 q 586 171 591 168 q 581 183 581 173 q 587 198 581 191 q 599 212 593 205 l 903 589 q 924 600 909 600 q 935 593 935 600 q 930 583 935 589 l 632 221 q 627 214 631 220 q 620 204 623 209 q 616 197 616 199 q 642 192 616 192 l 804 192 q 830 196 826 192 q 833 224 833 200 l 833 376 q 836 389 833 386 l 890 407 q 900 376 900 407 l 900 215 q 908 195 900 196 l 978 195 q 986 178 986 195 q 977 168 986 168 l 945 168 q 907 164 913 168 q 900 140 900 161 m 884 856 l 315 32 q 307 19 313 28 q 296 6 302 11 q 282 1 290 1 l 261 0 q 253 8 253 0 q 269 39 253 14 l 839 864 q 857 889 850 883 q 879 896 863 896 q 899 885 899 896 q 884 856 899 876 z "},"½":{"ha":1042,"x_min":28,"x_max":1014,"o":"m 227 886 l 227 453 q 229 411 227 425 q 244 390 232 397 q 282 382 256 382 l 309 382 q 323 371 323 382 q 309 359 323 359 l 62 359 q 47 372 47 359 q 55 381 47 380 q 94 382 63 382 q 149 394 140 382 q 158 452 158 406 l 158 827 q 144 842 158 842 q 118 833 134 842 l 66 812 q 58 809 64 812 q 47 805 53 807 q 37 803 42 803 q 28 814 28 803 q 54 832 28 823 l 205 893 q 216 896 210 896 q 227 886 227 896 m 1014 114 l 1014 16 q 1008 3 1014 5 q 989 0 1002 0 l 681 0 q 652 9 652 0 q 664 32 652 14 l 785 167 q 898 300 862 252 q 935 400 935 348 q 919 458 935 433 q 877 497 904 483 q 814 511 850 511 q 739 490 772 511 q 686 433 707 469 q 682 427 684 431 q 675 420 679 422 q 669 418 672 418 q 661 425 661 418 q 692 478 661 438 q 840 539 745 539 q 923 523 884 539 q 985 477 962 507 q 1008 407 1008 447 q 980 319 1008 357 q 899 236 952 281 l 746 98 q 728 71 728 80 q 757 65 728 65 l 926 65 q 976 74 962 65 q 994 114 989 83 q 1004 134 994 134 q 1014 114 1014 134 m 214 39 l 783 864 q 802 890 797 884 q 823 896 808 896 q 843 885 843 896 q 828 856 843 876 l 260 32 q 252 19 257 28 q 240 6 246 11 q 227 1 235 1 l 205 0 q 197 8 197 0 q 214 39 197 14 z "},"¾":{"ha":1042,"x_min":56,"x_max":986,"o":"m 900 140 l 900 68 q 903 35 900 45 q 917 21 906 25 q 950 17 927 17 q 971 5 971 17 q 956 -3 971 -3 q 913 -1 941 -3 q 871 0 885 0 q 821 -1 854 0 q 772 -3 788 -3 q 758 5 758 -3 q 778 17 758 17 q 812 20 802 17 q 830 33 826 23 q 833 68 833 42 l 833 140 q 830 165 833 161 q 803 168 826 168 l 611 168 q 586 171 591 168 q 581 183 581 173 q 587 198 581 191 q 599 212 593 205 l 903 589 q 924 600 909 600 q 935 593 935 600 q 930 583 935 589 l 632 221 q 627 214 631 220 q 620 204 623 209 q 616 197 616 199 q 642 192 616 192 l 804 192 q 830 196 826 192 q 833 224 833 200 l 833 376 q 836 389 833 386 l 890 407 q 900 376 900 407 l 900 215 q 908 195 900 196 l 978 195 q 986 178 986 195 q 977 168 986 168 l 945 168 q 907 164 913 168 q 900 140 900 161 m 884 856 l 315 32 q 307 19 313 28 q 296 6 302 11 q 282 1 290 1 l 261 0 q 253 8 253 0 q 269 39 253 14 l 839 864 q 857 889 850 883 q 879 896 863 896 q 899 885 899 896 q 884 856 899 876 m 98 625 l 127 644 q 203 688 157 661 q 278 742 248 714 q 307 803 307 770 q 281 853 307 835 q 221 871 255 871 q 161 855 189 871 q 115 814 132 839 q 100 800 109 800 q 92 810 92 800 q 118 850 92 823 q 244 896 163 894 q 336 872 296 896 q 376 802 376 848 q 362 761 376 779 q 333 733 349 743 q 283 705 318 724 l 215 672 l 218 669 l 262 673 q 382 632 334 673 q 429 526 429 591 q 408 437 429 479 q 346 363 386 396 q 250 303 302 326 q 147 279 198 279 q 86 292 116 279 q 56 332 56 304 q 64 357 56 347 q 89 367 73 367 q 132 334 110 367 q 151 312 142 317 q 175 306 160 306 q 236 320 201 306 q 293 353 271 334 q 345 415 326 380 q 364 493 364 451 q 347 566 364 533 q 296 617 329 598 q 218 636 263 636 q 115 608 170 636 q 94 600 99 600 q 85 610 85 600 q 98 625 85 616 z "},"¿":{"ha":416,"x_min":26,"x_max":376,"o":"m 289 497 q 244 517 261 497 q 227 566 227 537 q 244 615 227 596 q 292 635 262 635 q 333 614 319 635 q 347 566 347 594 q 333 516 347 534 q 289 497 318 497 m 301 349 l 319 253 q 325 220 325 230 q 253 142 325 187 q 171 79 208 111 q 112 5 134 46 q 89 -85 89 -35 q 119 -174 89 -135 q 205 -222 160 -222 q 252 -207 234 -222 q 282 -169 270 -191 q 308 -125 294 -148 q 339 -103 323 -103 q 367 -139 357 -103 q 376 -203 376 -175 q 373 -225 376 -219 q 357 -239 370 -232 q 252 -257 326 -257 q 138 -225 190 -257 q 57 -141 87 -194 q 26 -29 26 -89 q 42 59 26 20 q 85 129 57 97 q 153 191 114 160 l 204 232 q 247 268 239 260 q 262 293 255 275 q 269 338 269 310 l 269 370 q 282 385 269 385 q 292 379 288 385 q 298 363 296 374 q 301 349 300 353 z "},"À":{"ha":889,"x_min":-14,"x_max":893,"o":"m 235 262 l 193 157 q 174 81 174 109 q 267 29 174 29 q 302 11 302 29 q 269 -5 302 -5 q 212 -3 250 -5 q 153 0 173 0 q 95 -3 134 0 q 36 -5 56 -5 q -3 -3 7 -5 q -14 9 -14 0 q 25 29 -14 29 q 94 52 74 29 q 147 163 116 75 l 415 865 q 425 889 421 882 q 439 896 429 896 q 458 869 450 896 l 739 165 q 755 126 745 152 q 779 77 765 100 q 811 42 793 54 q 852 29 829 29 q 893 8 893 29 q 872 -5 893 -5 q 781 -3 842 -5 q 689 0 720 0 q 612 -3 664 0 q 534 -5 561 -5 q 513 8 513 -5 q 553 29 513 29 q 617 37 593 29 q 642 72 642 44 q 623 140 642 89 l 578 248 q 554 302 559 293 q 538 315 549 312 q 492 318 528 318 l 302 318 q 265 315 275 318 q 252 304 255 311 q 235 262 248 296 m 376 642 l 281 386 q 277 370 277 374 q 286 362 277 363 q 326 361 296 361 l 486 361 q 526 372 526 361 q 522 390 526 376 q 517 403 517 404 l 422 642 q 416 655 420 645 q 408 674 413 665 q 400 684 403 684 q 391 676 395 684 q 382 656 386 668 q 376 642 378 645 m 387 1146 l 574 1007 q 584 1000 577 1005 q 595 991 591 996 q 600 981 600 986 q 590 970 600 970 q 570 977 585 970 q 551 985 555 983 l 350 1086 q 319 1102 336 1093 q 292 1121 302 1110 q 281 1149 281 1133 q 292 1174 281 1163 q 315 1185 302 1185 q 387 1146 342 1185 z "},"Á":{"ha":889,"x_min":-14,"x_max":893,"o":"m 235 262 l 193 157 q 174 81 174 109 q 267 29 174 29 q 302 11 302 29 q 269 -5 302 -5 q 212 -3 250 -5 q 153 0 173 0 q 95 -3 134 0 q 36 -5 56 -5 q -3 -3 7 -5 q -14 9 -14 0 q 25 29 -14 29 q 94 52 74 29 q 147 163 116 75 l 415 865 q 425 889 421 882 q 439 896 429 896 q 458 869 450 896 l 739 165 q 755 126 745 152 q 779 77 765 100 q 811 42 793 54 q 852 29 829 29 q 893 8 893 29 q 872 -5 893 -5 q 781 -3 842 -5 q 689 0 720 0 q 612 -3 664 0 q 534 -5 561 -5 q 513 8 513 -5 q 553 29 513 29 q 617 37 593 29 q 642 72 642 44 q 623 140 642 89 l 578 248 q 554 302 559 293 q 538 315 549 312 q 492 318 528 318 l 302 318 q 265 315 275 318 q 252 304 255 311 q 235 262 248 296 m 376 642 l 281 386 q 277 370 277 374 q 286 362 277 363 q 326 361 296 361 l 486 361 q 526 372 526 361 q 522 390 526 376 q 517 403 517 404 l 422 642 q 416 655 420 645 q 408 674 413 665 q 400 684 403 684 q 391 676 395 684 q 382 656 386 668 q 376 642 378 645 m 532 1086 l 330 985 q 313 977 330 985 q 290 970 296 970 q 281 981 281 970 q 309 1007 281 989 l 493 1146 q 508 1158 501 1152 q 528 1171 515 1163 q 549 1182 540 1179 q 567 1185 557 1185 q 591 1174 581 1185 q 602 1149 602 1164 q 595 1126 602 1136 q 578 1110 589 1117 q 555 1097 568 1103 q 532 1086 542 1091 z "},"Â":{"ha":889,"x_min":-14,"x_max":893,"o":"m 235 262 l 193 157 q 174 81 174 109 q 267 29 174 29 q 302 11 302 29 q 269 -5 302 -5 q 212 -3 250 -5 q 153 0 173 0 q 95 -3 134 0 q 36 -5 56 -5 q -3 -3 7 -5 q -14 9 -14 0 q 25 29 -14 29 q 94 52 74 29 q 147 163 116 75 l 415 865 q 425 889 421 882 q 439 896 429 896 q 458 869 450 896 l 739 165 q 755 126 745 152 q 779 77 765 100 q 811 42 793 54 q 852 29 829 29 q 893 8 893 29 q 872 -5 893 -5 q 781 -3 842 -5 q 689 0 720 0 q 612 -3 664 0 q 534 -5 561 -5 q 513 8 513 -5 q 553 29 513 29 q 617 37 593 29 q 642 72 642 44 q 623 140 642 89 l 578 248 q 554 302 559 293 q 538 315 549 312 q 492 318 528 318 l 302 318 q 265 315 275 318 q 252 304 255 311 q 235 262 248 296 m 376 642 l 281 386 q 277 370 277 374 q 286 362 277 363 q 326 361 296 361 l 486 361 q 526 372 526 361 q 522 390 526 376 q 517 403 517 404 l 422 642 q 416 655 420 645 q 408 674 413 665 q 400 684 403 684 q 391 676 395 684 q 382 656 386 668 q 376 642 378 645 m 408 1092 l 292 1006 q 256 986 264 986 q 245 991 251 986 q 239 1003 239 997 q 248 1019 239 1009 q 261 1035 257 1029 l 393 1173 q 450 1210 427 1210 q 475 1202 467 1210 q 503 1173 484 1194 l 619 1040 q 642 1002 642 1016 q 627 986 642 986 q 613 989 620 986 q 601 996 606 992 q 587 1007 596 1000 l 496 1083 q 446 1111 463 1111 q 408 1092 435 1111 z "},"Ã":{"ha":889,"x_min":-14,"x_max":893,"o":"m 235 262 l 193 157 q 174 81 174 109 q 267 29 174 29 q 302 11 302 29 q 269 -5 302 -5 q 212 -3 250 -5 q 153 0 173 0 q 95 -3 134 0 q 36 -5 56 -5 q -3 -3 7 -5 q -14 9 -14 0 q 25 29 -14 29 q 94 52 74 29 q 147 163 116 75 l 415 865 q 425 889 421 882 q 439 896 429 896 q 458 869 450 896 l 739 165 q 755 126 745 152 q 779 77 765 100 q 811 42 793 54 q 852 29 829 29 q 893 8 893 29 q 872 -5 893 -5 q 781 -3 842 -5 q 689 0 720 0 q 612 -3 664 0 q 534 -5 561 -5 q 513 8 513 -5 q 553 29 513 29 q 617 37 593 29 q 642 72 642 44 q 623 140 642 89 l 578 248 q 554 302 559 293 q 538 315 549 312 q 492 318 528 318 l 302 318 q 265 315 275 318 q 252 304 255 311 q 235 262 248 296 m 376 642 l 281 386 q 277 370 277 374 q 286 362 277 363 q 326 361 296 361 l 486 361 q 526 372 526 361 q 522 390 526 376 q 517 403 517 404 l 422 642 q 416 655 420 645 q 408 674 413 665 q 400 684 403 684 q 391 676 395 684 q 382 656 386 668 q 376 642 378 645 m 441 1042 q 389 1076 412 1063 q 342 1089 366 1089 q 298 1072 315 1089 q 267 1030 281 1055 q 249 1006 253 1006 q 240 1015 240 1006 q 242 1025 240 1015 q 245 1038 245 1035 q 294 1109 263 1080 q 364 1137 324 1137 q 418 1125 393 1137 q 476 1089 444 1112 q 504 1070 486 1082 q 539 1051 521 1059 q 571 1043 557 1043 q 632 1090 608 1043 q 644 1107 636 1107 q 653 1096 653 1107 q 635 1054 653 1082 q 542 996 596 996 q 441 1042 503 996 z "},"Ä":{"ha":889,"x_min":-14,"x_max":893,"o":"m 235 262 l 193 157 q 174 81 174 109 q 267 29 174 29 q 302 11 302 29 q 269 -5 302 -5 q 212 -3 250 -5 q 153 0 173 0 q 95 -3 134 0 q 36 -5 56 -5 q -3 -3 7 -5 q -14 9 -14 0 q 25 29 -14 29 q 94 52 74 29 q 147 163 116 75 l 415 865 q 425 889 421 882 q 439 896 429 896 q 458 869 450 896 l 739 165 q 755 126 745 152 q 779 77 765 100 q 811 42 793 54 q 852 29 829 29 q 893 8 893 29 q 872 -5 893 -5 q 781 -3 842 -5 q 689 0 720 0 q 612 -3 664 0 q 534 -5 561 -5 q 513 8 513 -5 q 553 29 513 29 q 617 37 593 29 q 642 72 642 44 q 623 140 642 89 l 578 248 q 554 302 559 293 q 538 315 549 312 q 492 318 528 318 l 302 318 q 265 315 275 318 q 252 304 255 311 q 235 262 248 296 m 376 642 l 281 386 q 277 370 277 374 q 286 362 277 363 q 326 361 296 361 l 486 361 q 526 372 526 361 q 522 390 526 376 q 517 403 517 404 l 422 642 q 416 655 420 645 q 408 674 413 665 q 400 684 403 684 q 391 676 395 684 q 382 656 386 668 q 376 642 378 645 m 311 996 q 271 1016 287 996 q 254 1063 254 1036 q 271 1107 254 1090 q 314 1124 287 1124 q 356 1105 340 1124 q 372 1060 372 1086 q 355 1014 372 1032 q 311 996 338 996 m 567 996 q 526 1016 541 996 q 510 1063 510 1036 q 526 1107 510 1090 q 570 1124 541 1124 q 612 1105 595 1124 q 628 1060 628 1086 q 611 1014 628 1032 q 567 996 594 996 z "},"Å":{"ha":889,"x_min":-14,"x_max":893,"o":"m 235 262 l 193 157 q 174 81 174 109 q 267 29 174 29 q 302 11 302 29 q 269 -5 302 -5 q 212 -3 250 -5 q 153 0 173 0 q 95 -3 134 0 q 36 -5 56 -5 q -3 -3 7 -5 q -14 9 -14 0 q 25 29 -14 29 q 94 52 74 29 q 147 163 116 75 l 415 865 q 425 889 421 882 q 439 896 429 896 q 458 869 450 896 l 739 165 q 755 126 745 152 q 779 77 765 100 q 811 42 793 54 q 852 29 829 29 q 893 8 893 29 q 872 -5 893 -5 q 781 -3 842 -5 q 689 0 720 0 q 612 -3 664 0 q 534 -5 561 -5 q 513 8 513 -5 q 553 29 513 29 q 617 37 593 29 q 642 72 642 44 q 623 140 642 89 l 578 248 q 554 302 559 293 q 538 315 549 312 q 492 318 528 318 l 302 318 q 265 315 275 318 q 252 304 255 311 q 235 262 248 296 m 376 642 l 281 386 q 277 370 277 374 q 286 362 277 363 q 326 361 296 361 l 486 361 q 526 372 526 361 q 522 390 526 376 q 517 403 517 404 l 422 642 q 416 655 420 645 q 408 674 413 665 q 400 684 403 684 q 391 676 395 684 q 382 656 386 668 q 376 642 378 645 m 439 981 q 367 1009 397 981 q 336 1080 336 1038 q 365 1152 336 1122 q 435 1182 393 1182 q 508 1154 477 1182 q 539 1084 539 1126 q 526 1033 539 1056 q 490 995 513 1009 q 439 981 467 981 m 436 1011 q 488 1033 467 1011 q 509 1084 509 1054 q 487 1133 509 1114 q 435 1152 465 1152 q 388 1131 407 1152 q 368 1082 368 1109 q 389 1033 368 1054 q 436 1011 409 1011 z "},"Æ":{"ha":1305,"x_min":-17,"x_max":1255,"o":"m 804 407 l 804 163 q 811 93 804 119 q 846 49 817 66 q 904 35 871 37 q 982 32 937 32 q 1070 36 1036 32 q 1136 60 1104 41 q 1184 105 1169 81 q 1218 176 1198 129 q 1229 202 1224 193 q 1243 211 1234 211 q 1255 196 1255 211 q 1253 176 1255 190 q 1232 32 1234 83 q 1228 11 1232 18 q 1213 2 1223 4 q 1178 0 1203 0 l 736 0 q 665 -3 713 0 q 593 -5 618 -5 q 570 17 570 -5 q 604 32 570 32 q 665 40 646 32 q 689 64 684 47 q 694 118 694 81 l 694 149 l 694 411 q 686 448 694 441 q 642 454 678 454 l 475 454 q 431 451 446 454 q 406 438 416 448 q 379 404 395 428 l 215 149 q 176 58 176 87 q 240 32 176 32 l 265 32 q 289 29 281 32 q 297 12 297 26 q 272 -5 297 -5 q 205 -3 250 -5 q 139 0 161 0 q 72 -3 116 0 q 7 -5 28 -5 q -17 12 -17 -5 q 14 32 -17 32 q 82 49 62 32 q 158 149 107 71 l 585 775 q 604 803 592 785 q 615 828 615 821 q 610 839 615 836 q 593 843 604 842 q 576 847 582 844 q 571 860 571 850 q 591 873 571 873 l 1194 873 q 1209 866 1206 873 q 1213 833 1213 858 l 1213 722 q 1210 690 1213 698 q 1200 682 1208 682 q 1182 701 1188 682 q 1158 755 1173 724 q 1129 799 1143 787 q 1056 832 1103 825 q 951 840 1008 840 l 895 840 q 831 836 842 838 q 812 821 819 834 q 804 772 804 808 l 804 559 q 809 514 804 527 q 827 497 814 500 q 873 494 840 494 q 1042 500 987 494 q 1074 528 1065 503 q 1090 596 1084 554 q 1108 619 1095 619 q 1124 606 1124 619 q 1117 485 1122 563 q 1124 354 1122 392 q 1108 328 1124 328 q 1090 353 1094 328 q 1042 441 1076 434 q 967 452 1011 449 q 873 454 923 454 q 828 452 841 454 q 810 440 815 450 q 804 407 804 431 m 496 493 l 640 493 q 678 495 668 493 q 691 509 688 498 q 694 549 694 520 l 694 778 q 676 828 694 828 q 660 818 668 828 q 642 791 652 807 l 468 536 q 453 507 453 514 q 496 493 453 493 z "},"Ç":{"ha":861,"x_min":53,"x_max":810,"o":"m 793 787 l 803 696 q 787 677 803 677 q 757 713 778 677 q 715 779 736 749 q 647 832 694 808 q 525 857 600 857 q 374 823 439 857 q 265 732 309 789 q 199 599 222 674 q 176 444 176 524 q 262 170 176 291 q 380 60 314 100 q 525 21 446 21 q 647 51 600 21 q 716 115 694 81 q 761 195 738 148 q 794 241 784 241 q 810 224 810 241 l 803 110 q 799 75 802 85 q 787 58 797 65 q 758 41 778 51 q 635 -3 693 11 q 507 -17 576 -17 q 279 46 383 -17 q 114 215 174 109 q 53 443 53 321 q 92 622 53 538 q 198 766 131 705 q 353 862 265 827 q 534 896 441 896 q 645 885 583 896 q 754 859 708 874 q 784 838 779 850 q 793 787 789 827 m 439 0 l 376 -85 l 415 -82 q 511 -103 466 -82 q 557 -170 557 -125 q 535 -230 557 -203 q 480 -270 514 -256 q 415 -283 447 -283 q 336 -270 377 -283 q 294 -227 294 -256 q 302 -207 294 -216 q 319 -197 309 -197 q 347 -217 331 -197 q 377 -249 363 -237 q 421 -260 392 -260 q 483 -237 454 -260 q 513 -183 513 -215 q 390 -114 513 -114 q 374 -115 385 -114 q 353 -117 363 -116 q 336 -118 342 -118 q 325 -110 325 -118 q 333 -95 325 -105 q 342 -82 340 -84 l 403 0 l 439 0 z "},"È":{"ha":778,"x_min":35,"x_max":729,"o":"m 271 762 l 271 559 q 276 514 271 527 q 294 497 281 500 q 340 494 307 494 q 509 500 454 494 q 541 527 532 503 q 557 596 549 551 q 575 619 561 619 q 590 606 590 619 q 583 485 589 563 q 590 354 589 392 q 575 328 590 328 q 557 353 560 328 q 509 441 543 434 q 340 454 454 454 q 283 448 295 454 q 271 407 271 441 l 271 163 q 290 73 271 101 q 341 38 309 45 q 441 32 374 32 q 601 53 549 32 q 685 158 653 75 q 692 178 688 167 q 702 197 696 189 q 715 205 708 205 q 729 191 729 205 q 724 157 729 180 l 703 8 q 688 0 701 0 l 144 0 q 101 -3 130 0 q 58 -5 72 -5 q 35 16 35 -5 q 71 32 35 32 q 132 41 113 32 q 156 74 151 51 q 161 150 161 98 l 161 721 q 156 795 161 772 q 132 827 151 818 q 71 836 113 836 q 35 852 35 836 q 58 873 35 873 q 189 871 101 873 q 319 868 276 868 q 497 871 379 868 q 673 873 615 873 q 689 863 686 873 q 693 822 693 852 l 693 701 q 681 672 693 672 q 659 700 671 672 l 637 739 q 603 793 622 774 q 551 822 585 812 q 399 836 505 836 q 293 828 315 836 q 275 809 279 823 q 271 762 271 795 m 332 1146 l 518 1007 q 528 1000 522 1005 q 540 991 535 996 q 545 981 545 986 q 534 970 545 970 q 515 977 530 970 q 496 985 500 983 l 294 1086 q 263 1102 280 1093 q 236 1121 247 1110 q 225 1149 225 1133 q 236 1174 225 1163 q 260 1185 247 1185 q 332 1146 286 1185 z "},"É":{"ha":778,"x_min":35,"x_max":729,"o":"m 271 762 l 271 559 q 276 514 271 527 q 294 497 281 500 q 340 494 307 494 q 509 500 454 494 q 541 527 532 503 q 557 596 549 551 q 575 619 561 619 q 590 606 590 619 q 583 485 589 563 q 590 354 589 392 q 575 328 590 328 q 557 353 560 328 q 509 441 543 434 q 340 454 454 454 q 283 448 295 454 q 271 407 271 441 l 271 163 q 290 73 271 101 q 341 38 309 45 q 441 32 374 32 q 601 53 549 32 q 685 158 653 75 q 692 178 688 167 q 702 197 696 189 q 715 205 708 205 q 729 191 729 205 q 724 157 729 180 l 703 8 q 688 0 701 0 l 144 0 q 101 -3 130 0 q 58 -5 72 -5 q 35 16 35 -5 q 71 32 35 32 q 132 41 113 32 q 156 74 151 51 q 161 150 161 98 l 161 721 q 156 795 161 772 q 132 827 151 818 q 71 836 113 836 q 35 852 35 836 q 58 873 35 873 q 189 871 101 873 q 319 868 276 868 q 497 871 379 868 q 673 873 615 873 q 689 863 686 873 q 693 822 693 852 l 693 701 q 681 672 693 672 q 659 700 671 672 l 637 739 q 603 793 622 774 q 551 822 585 812 q 399 836 505 836 q 293 828 315 836 q 275 809 279 823 q 271 762 271 795 m 476 1086 l 275 985 q 256 977 271 983 q 235 970 240 970 q 225 981 225 970 q 230 990 225 985 q 243 1000 235 996 q 253 1007 250 1005 l 437 1146 q 453 1158 446 1152 q 472 1171 460 1163 q 493 1182 484 1179 q 511 1185 502 1185 q 535 1174 525 1185 q 546 1149 546 1164 q 539 1126 546 1136 q 523 1110 533 1117 q 499 1097 513 1103 q 476 1086 486 1091 z "},"Ê":{"ha":778,"x_min":35,"x_max":729,"o":"m 271 762 l 271 559 q 276 514 271 527 q 294 497 281 500 q 340 494 307 494 q 509 500 454 494 q 541 527 532 503 q 557 596 549 551 q 575 619 561 619 q 590 606 590 619 q 583 485 589 563 q 590 354 589 392 q 575 328 590 328 q 557 353 560 328 q 509 441 543 434 q 340 454 454 454 q 283 448 295 454 q 271 407 271 441 l 271 163 q 290 73 271 101 q 341 38 309 45 q 441 32 374 32 q 601 53 549 32 q 685 158 653 75 q 692 178 688 167 q 702 197 696 189 q 715 205 708 205 q 729 191 729 205 q 724 157 729 180 l 703 8 q 688 0 701 0 l 144 0 q 101 -3 130 0 q 58 -5 72 -5 q 35 16 35 -5 q 71 32 35 32 q 132 41 113 32 q 156 74 151 51 q 161 150 161 98 l 161 721 q 156 795 161 772 q 132 827 151 818 q 71 836 113 836 q 35 852 35 836 q 58 873 35 873 q 189 871 101 873 q 319 868 276 868 q 497 871 379 868 q 673 873 615 873 q 689 863 686 873 q 693 822 693 852 l 693 701 q 681 672 693 672 q 659 700 671 672 l 637 739 q 603 793 622 774 q 551 822 585 812 q 399 836 505 836 q 293 828 315 836 q 275 809 279 823 q 271 762 271 795 m 353 1092 l 236 1006 q 200 986 208 986 q 189 991 195 986 q 183 1003 183 997 q 192 1019 183 1009 q 205 1035 201 1029 l 338 1173 q 395 1210 372 1210 q 420 1202 411 1210 q 447 1173 429 1194 l 564 1040 q 586 1002 586 1016 q 571 986 586 986 q 557 989 564 986 q 545 996 550 992 q 532 1007 541 1000 l 440 1083 q 390 1111 408 1111 q 378 1108 385 1111 q 363 1099 371 1105 q 353 1092 355 1093 z "},"Ë":{"ha":778,"x_min":35,"x_max":729,"o":"m 271 762 l 271 559 q 276 514 271 527 q 294 497 281 500 q 340 494 307 494 q 509 500 454 494 q 541 527 532 503 q 557 596 549 551 q 575 619 561 619 q 590 606 590 619 q 583 485 589 563 q 590 354 589 392 q 575 328 590 328 q 557 353 560 328 q 509 441 543 434 q 340 454 454 454 q 283 448 295 454 q 271 407 271 441 l 271 163 q 290 73 271 101 q 341 38 309 45 q 441 32 374 32 q 601 53 549 32 q 685 158 653 75 q 692 178 688 167 q 702 197 696 189 q 715 205 708 205 q 729 191 729 205 q 724 157 729 180 l 703 8 q 688 0 701 0 l 144 0 q 101 -3 130 0 q 58 -5 72 -5 q 35 16 35 -5 q 71 32 35 32 q 132 41 113 32 q 156 74 151 51 q 161 150 161 98 l 161 721 q 156 795 161 772 q 132 827 151 818 q 71 836 113 836 q 35 852 35 836 q 58 873 35 873 q 189 871 101 873 q 319 868 276 868 q 497 871 379 868 q 673 873 615 873 q 689 863 686 873 q 693 822 693 852 l 693 701 q 681 672 693 672 q 659 700 671 672 l 637 739 q 603 793 622 774 q 551 822 585 812 q 399 836 505 836 q 293 828 315 836 q 275 809 279 823 q 271 762 271 795 m 256 996 q 215 1016 231 996 q 199 1063 199 1036 q 215 1107 199 1090 q 258 1124 231 1124 q 300 1105 284 1124 q 317 1060 317 1086 q 300 1014 317 1032 q 256 996 283 996 m 511 996 q 470 1016 486 996 q 454 1063 454 1036 q 470 1107 454 1090 q 514 1124 486 1124 q 556 1105 540 1124 q 572 1060 572 1086 q 555 1014 572 1032 q 511 996 538 996 z "},"Ì":{"ha":472,"x_min":36,"x_max":397,"o":"m 161 146 l 161 721 l 161 751 q 156 804 161 787 q 132 828 151 821 q 71 836 113 836 q 36 854 36 836 q 60 873 36 873 q 138 871 86 873 q 215 868 189 868 q 294 871 241 868 q 374 873 347 873 q 397 854 397 873 q 361 836 397 836 q 300 828 318 836 q 276 804 281 821 q 271 751 271 787 l 271 721 l 271 146 q 273 88 271 111 q 284 52 276 65 q 310 35 293 39 q 361 29 327 31 q 397 12 397 29 q 374 -5 397 -5 q 296 -3 347 -5 q 218 0 244 0 q 139 -3 192 0 q 60 -5 86 -5 q 36 12 36 -5 q 71 29 36 29 q 132 37 113 29 q 156 62 151 45 q 161 115 161 79 l 161 146 m 165 1146 l 351 1007 q 361 1000 355 1005 q 373 991 368 996 q 378 981 378 986 q 368 970 378 970 q 347 977 363 970 q 329 985 332 984 l 127 1086 q 97 1102 114 1093 q 69 1121 80 1110 q 58 1149 58 1133 q 69 1174 58 1164 q 93 1185 79 1185 q 165 1146 118 1185 z "},"Í":{"ha":472,"x_min":36,"x_max":397,"o":"m 161 146 l 161 721 l 161 751 q 156 804 161 787 q 132 828 151 821 q 71 836 113 836 q 36 854 36 836 q 60 873 36 873 q 138 871 86 873 q 215 868 189 868 q 294 871 241 868 q 374 873 347 873 q 397 854 397 873 q 361 836 397 836 q 300 828 318 836 q 276 804 281 821 q 271 751 271 787 l 271 721 l 271 146 q 273 88 271 111 q 284 52 276 65 q 310 35 293 39 q 361 29 327 31 q 397 12 397 29 q 374 -5 397 -5 q 296 -3 347 -5 q 218 0 244 0 q 139 -3 192 0 q 60 -5 86 -5 q 36 12 36 -5 q 71 29 36 29 q 132 37 113 29 q 156 62 151 45 q 161 115 161 79 l 161 146 m 310 1086 l 109 985 q 87 976 102 983 q 68 970 73 970 q 58 981 58 970 q 63 990 58 985 q 76 1000 68 996 q 86 1007 83 1005 l 271 1146 q 286 1158 279 1152 q 305 1171 293 1163 q 326 1182 317 1179 q 345 1185 335 1185 q 368 1174 357 1185 q 379 1149 379 1163 q 373 1127 379 1137 q 356 1111 366 1118 q 333 1097 347 1103 q 310 1086 320 1091 z "},"Î":{"ha":514,"x_min":17,"x_max":419,"o":"m 161 146 l 161 721 l 161 751 q 156 804 161 787 q 132 828 151 821 q 71 836 113 836 q 36 854 36 836 q 60 873 36 873 q 138 871 86 873 q 215 868 189 868 q 294 871 241 868 q 374 873 347 873 q 397 854 397 873 q 361 836 397 836 q 300 828 318 836 q 276 804 281 821 q 271 751 271 787 l 271 721 l 271 146 q 273 88 271 111 q 284 52 276 65 q 310 35 293 39 q 361 29 327 31 q 397 12 397 29 q 374 -5 397 -5 q 296 -3 347 -5 q 218 0 244 0 q 139 -3 192 0 q 60 -5 86 -5 q 36 12 36 -5 q 71 29 36 29 q 132 37 113 29 q 156 62 151 45 q 161 115 161 79 l 161 146 m 186 1092 l 69 1006 q 33 986 41 986 q 22 991 28 986 q 17 1003 17 997 q 26 1020 17 1009 q 39 1035 36 1031 l 171 1173 q 228 1210 205 1210 q 254 1201 244 1210 q 281 1173 264 1192 l 397 1040 q 419 1002 419 1015 q 404 986 419 986 q 366 1007 390 986 l 273 1083 q 224 1111 241 1111 q 210 1108 217 1111 q 196 1099 203 1105 q 186 1092 189 1093 z "},"Ï":{"ha":500,"x_min":32,"x_max":406,"o":"m 161 146 l 161 721 l 161 751 q 156 804 161 787 q 132 828 151 821 q 71 836 113 836 q 36 854 36 836 q 60 873 36 873 q 138 871 86 873 q 215 868 189 868 q 294 871 241 868 q 374 873 347 873 q 397 854 397 873 q 361 836 397 836 q 300 828 318 836 q 276 804 281 821 q 271 751 271 787 l 271 721 l 271 146 q 273 88 271 111 q 284 52 276 65 q 310 35 293 39 q 361 29 327 31 q 397 12 397 29 q 374 -5 397 -5 q 296 -3 347 -5 q 218 0 244 0 q 139 -3 192 0 q 60 -5 86 -5 q 36 12 36 -5 q 71 29 36 29 q 132 37 113 29 q 156 62 151 45 q 161 115 161 79 l 161 146 m 89 996 q 48 1016 64 996 q 32 1063 32 1036 q 48 1107 32 1090 q 92 1124 64 1124 q 134 1105 117 1124 q 150 1060 150 1086 q 133 1014 150 1032 q 89 996 116 996 m 345 996 q 304 1016 320 996 q 288 1063 288 1036 q 304 1107 288 1090 q 347 1124 320 1124 q 389 1105 373 1124 q 406 1060 406 1086 q 389 1014 406 1032 q 345 996 372 996 z "},"Ð":{"ha":1028,"x_min":35,"x_max":965,"o":"m 275 757 l 275 488 l 441 488 q 472 469 472 488 q 441 449 472 449 l 275 449 l 275 175 q 287 78 275 109 q 330 34 299 46 q 424 21 361 21 q 592 45 519 21 q 724 132 665 69 q 787 221 761 172 q 826 325 812 270 q 839 433 839 380 q 807 611 839 531 q 719 747 776 690 q 584 834 662 804 q 410 864 505 864 q 290 840 314 864 q 275 757 275 823 m 165 150 l 165 449 l 74 449 q 43 469 43 449 q 74 488 43 488 l 165 488 l 165 729 l 165 760 q 157 812 165 794 q 119 829 148 829 q 78 822 103 829 q 50 814 54 814 q 35 829 35 814 q 113 866 35 851 q 293 888 192 881 q 433 896 394 896 q 625 870 534 896 q 790 787 716 844 q 884 692 845 745 q 944 575 922 638 q 965 446 965 513 q 926 260 965 349 q 817 110 886 172 q 655 20 744 45 q 456 -5 566 -5 q 378 -4 417 -5 q 302 -2 340 -3 q 232 -1 264 -1 q 150 0 200 0 q 106 -3 134 0 q 62 -5 77 -5 q 39 14 39 -5 q 75 29 39 29 q 136 38 117 29 q 160 64 155 46 q 165 119 165 82 l 165 150 z "},"Ñ":{"ha":972,"x_min":35,"x_max":956,"o":"m 790 180 l 790 720 q 785 794 790 771 q 761 827 780 817 q 699 836 742 836 q 664 851 664 836 q 689 873 664 873 q 750 871 709 873 q 811 868 791 868 q 871 871 831 868 q 932 873 911 873 q 956 851 956 873 q 920 836 956 836 q 858 827 877 836 q 834 794 839 817 q 829 720 829 770 l 829 7 q 819 -20 829 -20 q 785 14 806 -20 l 201 781 l 201 146 l 201 117 q 216 46 201 64 q 292 29 231 29 q 319 27 313 29 q 326 16 326 24 q 302 -5 326 -5 q 242 -3 282 -5 q 180 0 202 0 q 121 -3 161 0 q 60 -5 80 -5 q 35 16 35 -5 q 42 27 35 24 q 71 29 50 29 q 131 37 111 29 q 156 63 151 45 q 161 117 161 80 l 161 146 l 161 720 l 161 750 q 156 804 161 787 q 132 828 151 821 q 71 836 113 836 q 36 851 36 836 q 69 873 36 873 l 241 873 q 270 860 260 869 q 298 825 280 850 l 790 180 m 484 1042 q 430 1076 454 1063 q 383 1089 407 1089 q 339 1072 356 1089 q 308 1030 322 1055 q 290 1006 294 1006 q 282 1015 282 1006 q 284 1025 282 1015 q 288 1038 287 1035 q 335 1109 305 1080 q 406 1137 366 1137 q 518 1089 449 1137 q 547 1069 530 1080 q 580 1051 563 1059 q 612 1043 597 1043 q 673 1090 650 1043 q 686 1107 677 1107 q 694 1096 694 1107 q 676 1054 694 1079 q 583 996 639 996 q 484 1042 545 996 z "},"Ò":{"ha":1083,"x_min":53,"x_max":1021,"o":"m 53 440 q 121 669 53 564 q 302 835 189 774 q 538 896 414 896 q 724 863 637 896 q 879 770 812 831 q 983 625 946 709 q 1021 440 1021 541 q 983 256 1021 340 q 879 111 945 172 q 725 16 812 50 q 538 -17 637 -17 q 302 44 414 -17 q 121 210 190 105 q 53 440 53 315 m 895 440 q 873 599 895 528 q 803 730 852 670 q 686 825 753 791 q 541 859 619 859 q 386 824 458 859 q 265 726 313 789 q 199 596 220 671 q 178 440 178 521 q 200 280 178 355 q 271 147 222 205 q 391 54 321 86 q 541 22 460 22 q 640 38 590 22 q 732 85 689 54 q 808 157 774 115 q 875 288 856 219 q 895 440 895 357 m 485 1146 l 671 1007 q 681 1000 674 1005 q 692 991 688 996 q 697 981 697 986 q 688 970 697 970 q 667 977 682 970 q 648 985 651 984 l 447 1086 q 416 1102 433 1093 q 389 1121 399 1110 q 378 1149 378 1133 q 388 1174 378 1164 q 412 1185 399 1185 q 485 1146 437 1185 z "},"Ó":{"ha":1083,"x_min":53,"x_max":1021,"o":"m 53 440 q 121 669 53 564 q 302 835 189 774 q 538 896 414 896 q 724 863 637 896 q 879 770 812 831 q 983 625 946 709 q 1021 440 1021 541 q 983 256 1021 340 q 879 111 945 172 q 725 16 812 50 q 538 -17 637 -17 q 302 44 414 -17 q 121 210 190 105 q 53 440 53 315 m 895 440 q 873 599 895 528 q 803 730 852 670 q 686 825 753 791 q 541 859 619 859 q 386 824 458 859 q 265 726 313 789 q 199 596 220 671 q 178 440 178 521 q 200 280 178 355 q 271 147 222 205 q 391 54 321 86 q 541 22 460 22 q 640 38 590 22 q 732 85 689 54 q 808 157 774 115 q 875 288 856 219 q 895 440 895 357 m 629 1086 l 428 985 q 407 976 421 983 q 387 970 392 970 q 378 981 378 970 q 383 990 378 985 q 395 1000 388 996 q 406 1007 403 1005 l 590 1146 q 605 1158 598 1152 q 625 1171 612 1163 q 646 1182 637 1179 q 664 1185 654 1185 q 688 1174 677 1185 q 699 1149 699 1163 q 692 1127 699 1137 q 676 1111 686 1118 q 653 1097 666 1103 q 629 1086 640 1091 z "},"Ô":{"ha":1083,"x_min":53,"x_max":1021,"o":"m 53 440 q 121 669 53 564 q 302 835 189 774 q 538 896 414 896 q 724 863 637 896 q 879 770 812 831 q 983 625 946 709 q 1021 440 1021 541 q 983 256 1021 340 q 879 111 945 172 q 725 16 812 50 q 538 -17 637 -17 q 302 44 414 -17 q 121 210 190 105 q 53 440 53 315 m 895 440 q 873 599 895 528 q 803 730 852 670 q 686 825 753 791 q 541 859 619 859 q 386 824 458 859 q 265 726 313 789 q 199 596 220 671 q 178 440 178 521 q 200 280 178 355 q 271 147 222 205 q 391 54 321 86 q 541 22 460 22 q 640 38 590 22 q 732 85 689 54 q 808 157 774 115 q 875 288 856 219 q 895 440 895 357 m 505 1092 l 389 1006 q 353 986 361 986 q 342 991 347 986 q 336 1003 336 997 q 346 1020 336 1009 q 358 1035 355 1031 l 490 1173 q 547 1210 524 1210 q 573 1201 564 1210 q 600 1173 583 1192 l 717 1040 q 739 1002 739 1014 q 724 986 739 986 q 685 1007 709 986 l 593 1083 q 543 1111 560 1111 q 530 1108 536 1111 q 515 1099 523 1105 q 505 1092 508 1093 z "},"Õ":{"ha":1083,"x_min":53,"x_max":1021,"o":"m 53 440 q 121 669 53 564 q 302 835 189 774 q 538 896 414 896 q 724 863 637 896 q 879 770 812 831 q 983 625 946 709 q 1021 440 1021 541 q 983 256 1021 340 q 879 111 945 172 q 725 16 812 50 q 538 -17 637 -17 q 302 44 414 -17 q 121 210 190 105 q 53 440 53 315 m 895 440 q 873 599 895 528 q 803 730 852 670 q 686 825 753 791 q 541 859 619 859 q 386 824 458 859 q 265 726 313 789 q 199 596 220 671 q 178 440 178 521 q 200 280 178 355 q 271 147 222 205 q 391 54 321 86 q 541 22 460 22 q 640 38 590 22 q 732 85 689 54 q 808 157 774 115 q 875 288 856 219 q 895 440 895 357 m 539 1042 q 486 1076 509 1063 q 439 1089 463 1089 q 395 1072 412 1089 q 364 1030 378 1055 q 346 1006 350 1006 q 338 1015 338 1006 q 340 1025 338 1015 q 343 1038 342 1035 q 391 1109 361 1080 q 461 1137 421 1137 q 574 1089 505 1137 q 602 1069 586 1080 q 636 1051 618 1059 q 668 1043 653 1043 q 729 1090 706 1043 q 742 1107 733 1107 q 750 1096 750 1107 q 732 1054 750 1079 q 639 996 694 996 q 539 1042 600 996 z "},"Ö":{"ha":1083,"x_min":53,"x_max":1021,"o":"m 53 440 q 121 669 53 564 q 302 835 189 774 q 538 896 414 896 q 724 863 637 896 q 879 770 812 831 q 983 625 946 709 q 1021 440 1021 541 q 983 256 1021 340 q 879 111 945 172 q 725 16 812 50 q 538 -17 637 -17 q 302 44 414 -17 q 121 210 190 105 q 53 440 53 315 m 895 440 q 873 599 895 528 q 803 730 852 670 q 686 825 753 791 q 541 859 619 859 q 386 824 458 859 q 265 726 313 789 q 199 596 220 671 q 178 440 178 521 q 200 280 178 355 q 271 147 222 205 q 391 54 321 86 q 541 22 460 22 q 640 38 590 22 q 732 85 689 54 q 808 157 774 115 q 875 288 856 219 q 895 440 895 357 m 408 996 q 368 1016 384 996 q 351 1063 351 1036 q 368 1107 351 1090 q 411 1124 384 1124 q 453 1105 437 1124 q 469 1060 469 1086 q 452 1014 469 1032 q 408 996 435 996 m 664 996 q 623 1016 640 996 q 607 1063 607 1036 q 623 1107 607 1090 q 667 1124 640 1124 q 709 1105 692 1124 q 725 1060 725 1086 q 708 1014 725 1032 q 664 996 691 996 z "},"×":{"ha":778,"x_min":81,"x_max":696,"o":"m 81 175 l 336 433 l 82 690 l 135 743 l 389 486 l 642 743 l 696 690 l 441 433 l 696 175 l 643 122 l 389 380 l 134 122 l 81 175 z "},"Ø":{"ha":1083,"x_min":52,"x_max":1018,"o":"m 953 940 l 873 836 q 852 800 852 810 q 868 778 852 790 q 924 720 902 746 q 964 659 945 694 q 1018 437 1018 557 q 955 204 1018 309 q 782 41 891 100 q 543 -17 672 -17 q 321 33 425 -17 q 293 43 297 43 q 272 33 281 43 q 252 7 262 23 l 164 -109 q 144 -133 149 -130 q 121 -136 139 -136 q 104 -127 104 -136 q 117 -104 104 -121 l 215 28 q 239 72 239 54 q 218 102 239 85 q 129 194 168 139 q 71 314 91 249 q 52 443 52 378 q 91 618 52 536 q 201 764 131 701 q 357 861 271 827 q 536 896 444 896 q 668 880 600 896 q 786 833 735 863 q 806 823 802 823 q 842 860 817 823 l 903 942 q 919 963 914 957 q 934 974 924 969 q 956 978 943 978 q 970 968 970 978 q 961 952 970 964 q 953 940 953 941 m 300 140 l 736 722 q 751 742 743 731 q 760 758 760 752 q 752 777 760 768 q 734 793 745 786 q 715 806 724 800 q 532 857 637 857 q 430 841 481 857 q 335 793 379 824 q 260 721 291 762 q 176 440 176 614 q 241 184 176 291 q 255 163 247 174 q 271 144 263 151 q 288 136 279 136 q 300 140 294 136 m 764 690 l 351 140 q 328 106 328 117 q 334 88 328 96 q 349 74 340 80 q 367 64 359 68 q 538 21 448 21 q 687 54 619 21 q 806 153 754 87 q 873 282 854 215 q 892 435 892 349 q 833 682 892 584 q 817 707 826 694 q 798 721 807 721 q 785 716 791 721 q 771 701 779 711 q 764 690 764 692 z "},"Ù":{"ha":972,"x_min":37,"x_max":957,"o":"m 802 281 l 802 665 q 786 804 802 777 q 755 830 775 825 q 703 836 735 836 q 665 854 665 836 q 694 873 665 873 q 757 871 715 873 q 819 868 799 868 q 874 871 838 868 q 928 873 910 873 q 957 856 957 873 q 913 836 957 836 q 861 822 877 836 q 844 790 846 807 q 840 718 842 773 l 840 281 q 828 149 840 197 q 764 57 815 102 q 503 -17 678 -17 q 410 -11 456 -17 q 319 10 363 -5 q 244 47 275 24 q 189 110 208 74 q 166 183 170 146 q 163 281 163 220 l 163 721 l 163 751 q 157 804 163 787 q 133 828 152 821 q 72 836 115 836 q 37 854 37 836 q 61 873 37 873 q 139 871 87 873 q 216 868 191 868 q 296 871 243 868 q 375 873 349 873 q 399 854 399 873 q 363 836 399 836 q 302 828 321 836 q 277 804 283 821 q 272 751 272 787 l 272 721 l 272 325 q 277 198 272 254 q 301 110 283 143 q 394 40 330 61 q 526 18 457 18 q 751 94 677 18 q 793 171 785 130 q 802 281 802 212 m 429 1146 l 615 1007 q 625 1000 618 1005 q 637 991 632 996 q 642 981 642 986 q 632 970 642 970 q 612 977 627 970 q 593 985 597 983 l 392 1086 q 361 1102 378 1093 q 333 1121 344 1110 q 322 1149 322 1133 q 333 1174 322 1164 q 357 1185 343 1185 q 429 1146 382 1185 z "},"Ú":{"ha":972,"x_min":37,"x_max":957,"o":"m 802 281 l 802 665 q 786 804 802 777 q 755 830 775 825 q 703 836 735 836 q 665 854 665 836 q 694 873 665 873 q 757 871 715 873 q 819 868 799 868 q 874 871 838 868 q 928 873 910 873 q 957 856 957 873 q 913 836 957 836 q 861 822 877 836 q 844 790 846 807 q 840 718 842 773 l 840 281 q 828 149 840 197 q 764 57 815 102 q 503 -17 678 -17 q 410 -11 456 -17 q 319 10 363 -5 q 244 47 275 24 q 189 110 208 74 q 166 183 170 146 q 163 281 163 220 l 163 721 l 163 751 q 157 804 163 787 q 133 828 152 821 q 72 836 115 836 q 37 854 37 836 q 61 873 37 873 q 139 871 87 873 q 216 868 191 868 q 296 871 243 868 q 375 873 349 873 q 399 854 399 873 q 363 836 399 836 q 302 828 321 836 q 277 804 283 821 q 272 751 272 787 l 272 721 l 272 325 q 277 198 272 254 q 301 110 283 143 q 394 40 330 61 q 526 18 457 18 q 751 94 677 18 q 793 171 785 130 q 802 281 802 212 m 574 1086 l 372 985 q 355 977 372 985 q 332 970 338 970 q 322 981 322 970 q 327 990 322 985 q 340 1000 332 996 q 350 1007 347 1005 l 534 1146 q 550 1158 543 1152 q 569 1171 557 1163 q 590 1182 581 1179 q 608 1185 599 1185 q 632 1174 621 1185 q 643 1149 643 1163 q 636 1127 643 1137 q 620 1111 630 1118 q 597 1097 610 1103 q 574 1086 584 1091 z "},"Û":{"ha":972,"x_min":37,"x_max":957,"o":"m 802 281 l 802 665 q 786 804 802 777 q 755 830 775 825 q 703 836 735 836 q 665 854 665 836 q 694 873 665 873 q 757 871 715 873 q 819 868 799 868 q 874 871 838 868 q 928 873 910 873 q 957 856 957 873 q 913 836 957 836 q 861 822 877 836 q 844 790 846 807 q 840 718 842 773 l 840 281 q 828 149 840 197 q 764 57 815 102 q 503 -17 678 -17 q 410 -11 456 -17 q 319 10 363 -5 q 244 47 275 24 q 189 110 208 74 q 166 183 170 146 q 163 281 163 220 l 163 721 l 163 751 q 157 804 163 787 q 133 828 152 821 q 72 836 115 836 q 37 854 37 836 q 61 873 37 873 q 139 871 87 873 q 216 868 191 868 q 296 871 243 868 q 375 873 349 873 q 399 854 399 873 q 363 836 399 836 q 302 828 321 836 q 277 804 283 821 q 272 751 272 787 l 272 721 l 272 325 q 277 198 272 254 q 301 110 283 143 q 394 40 330 61 q 526 18 457 18 q 751 94 677 18 q 793 171 785 130 q 802 281 802 212 m 450 1092 l 334 1006 q 297 986 304 986 q 286 991 292 986 q 281 1003 281 997 q 290 1020 281 1009 q 302 1035 300 1031 l 435 1173 q 467 1202 456 1194 q 492 1210 477 1210 q 518 1201 508 1210 q 545 1173 528 1192 l 661 1040 q 684 1002 684 1014 q 668 986 684 986 q 629 1007 654 986 l 538 1083 q 488 1111 503 1111 q 450 1092 477 1111 z "},"Ü":{"ha":972,"x_min":37,"x_max":957,"o":"m 802 281 l 802 665 q 786 804 802 777 q 755 830 775 825 q 703 836 735 836 q 665 854 665 836 q 694 873 665 873 q 757 871 715 873 q 819 868 799 868 q 874 871 838 868 q 928 873 910 873 q 957 856 957 873 q 913 836 957 836 q 861 822 877 836 q 844 790 846 807 q 840 718 842 773 l 840 281 q 828 149 840 197 q 764 57 815 102 q 503 -17 678 -17 q 410 -11 456 -17 q 319 10 363 -5 q 244 47 275 24 q 189 110 208 74 q 166 183 170 146 q 163 281 163 220 l 163 721 l 163 751 q 157 804 163 787 q 133 828 152 821 q 72 836 115 836 q 37 854 37 836 q 61 873 37 873 q 139 871 87 873 q 216 868 191 868 q 296 871 243 868 q 375 873 349 873 q 399 854 399 873 q 363 836 399 836 q 302 828 321 836 q 277 804 283 821 q 272 751 272 787 l 272 721 l 272 325 q 277 198 272 254 q 301 110 283 143 q 394 40 330 61 q 526 18 457 18 q 751 94 677 18 q 793 171 785 130 q 802 281 802 212 m 353 996 q 312 1016 328 996 q 296 1063 296 1036 q 312 1107 296 1090 q 355 1124 328 1124 q 397 1105 381 1124 q 414 1060 414 1086 q 397 1014 414 1032 q 353 996 380 996 m 608 996 q 568 1016 584 996 q 551 1063 551 1036 q 568 1107 551 1090 q 611 1124 584 1124 q 653 1105 637 1124 q 669 1060 669 1086 q 652 1014 669 1032 q 608 996 635 996 z "},"Ý":{"ha":917,"x_min":-8,"x_max":928,"o":"m 500 425 l 690 718 q 729 802 729 779 q 669 836 729 836 q 612 850 612 836 q 644 873 612 873 q 709 871 666 873 q 772 868 751 868 q 835 871 793 868 q 899 873 877 873 q 919 868 909 873 q 928 852 928 863 q 888 836 928 836 q 836 823 861 836 q 792 790 812 810 q 751 738 772 769 q 720 692 730 707 l 549 433 q 520 384 525 394 q 513 358 515 373 q 511 302 511 343 l 511 146 q 516 71 511 94 q 539 38 521 47 q 602 29 557 29 q 637 12 637 29 q 614 -5 637 -5 q 536 -3 587 -5 q 458 0 486 0 q 379 -3 432 0 q 300 -5 326 -5 q 277 12 277 -5 q 311 29 277 29 q 372 37 353 29 q 396 62 391 45 q 401 115 401 79 l 401 146 l 401 322 q 395 385 401 367 q 364 439 389 404 l 174 724 q 129 791 142 773 q 92 822 116 808 q 31 836 68 836 q -8 854 -8 836 q 20 873 -8 873 q 82 871 40 873 q 144 868 124 868 q 240 871 176 868 q 336 873 304 873 q 361 857 361 873 q 351 840 361 844 q 323 836 340 836 q 256 808 256 836 q 289 741 256 793 l 500 425 m 546 1086 l 345 985 q 327 977 344 985 q 304 970 310 970 q 294 981 294 970 q 299 990 294 985 q 312 1000 304 996 q 322 1007 319 1005 l 507 1146 q 548 1175 531 1165 q 581 1185 565 1185 q 604 1174 593 1185 q 615 1149 615 1163 q 609 1127 615 1137 q 592 1111 602 1118 q 569 1097 583 1103 q 546 1086 556 1091 z "},"Þ":{"ha":778,"x_min":33,"x_max":714,"o":"m 158 146 l 158 721 l 158 755 q 143 821 158 805 q 69 836 128 836 q 35 854 35 836 q 58 873 35 873 q 136 871 85 873 q 214 868 188 868 q 293 871 240 868 q 372 873 346 873 q 396 854 396 873 q 359 836 396 836 q 284 817 300 836 q 269 734 269 798 q 330 718 269 718 q 427 720 355 720 q 595 682 531 720 q 687 590 659 644 q 714 479 714 536 q 683 354 714 410 q 591 264 652 297 q 450 231 531 231 q 319 250 385 231 q 297 254 299 254 q 268 228 268 254 l 268 146 q 271 88 268 111 q 282 52 273 65 q 307 35 290 39 q 358 29 323 31 q 395 12 395 29 q 371 -5 395 -5 q 293 -3 345 -5 q 215 0 241 0 q 136 -3 189 0 q 57 -5 83 -5 q 33 12 33 -5 q 68 29 33 29 q 129 37 110 29 q 153 62 148 45 q 158 115 158 79 l 158 146 m 268 574 l 268 367 q 268 351 268 357 q 267 338 267 345 q 290 292 267 304 q 395 265 334 265 q 494 289 447 265 q 570 361 541 313 q 599 473 599 408 q 534 638 599 583 q 368 694 470 694 q 300 683 321 694 q 273 647 279 671 q 268 574 268 623 z "},"ß":{"ha":778,"x_min":31,"x_max":745,"o":"m 229 597 l 229 31 q 226 5 229 11 q 211 0 222 0 l 49 0 q 31 12 31 0 q 38 25 31 22 q 69 28 45 28 q 121 47 109 28 q 134 107 134 67 l 134 146 l 134 538 q 127 583 134 574 q 89 591 121 591 l 54 591 q 40 603 40 591 q 82 629 40 621 q 120 648 106 638 q 143 674 134 659 q 163 714 152 690 q 252 832 199 791 q 339 879 290 863 q 440 896 389 896 q 556 873 499 896 q 650 807 613 851 q 686 703 686 764 q 669 643 686 671 q 625 600 652 615 q 586 583 604 587 q 529 571 569 578 q 450 546 478 560 q 422 496 422 532 q 480 435 422 463 q 597 381 538 407 q 701 309 656 355 q 745 189 745 264 q 711 82 745 130 q 623 9 677 35 q 510 -17 569 -17 q 430 -5 475 -17 q 354 24 385 6 q 338 45 342 31 q 335 87 335 60 l 335 154 q 349 189 335 189 q 380 136 365 189 q 421 46 395 82 q 511 11 448 11 q 617 48 576 11 q 659 149 659 85 q 619 244 659 212 q 500 311 579 277 q 382 377 422 345 q 343 472 343 410 q 370 542 343 519 q 444 576 397 565 q 548 624 511 593 q 585 718 585 654 q 572 779 585 751 q 536 827 560 807 q 484 857 513 848 q 421 867 456 867 q 269 791 320 867 q 236 706 243 752 q 229 597 229 661 z "},"à":{"ha":667,"x_min":49,"x_max":631,"o":"m 256 290 l 363 340 q 407 370 400 359 q 414 419 414 380 l 414 481 q 398 576 414 546 q 325 607 383 607 q 229 578 266 607 q 165 489 193 549 q 149 457 156 469 q 126 439 141 446 q 66 421 91 421 q 49 437 49 421 q 66 490 49 461 q 107 538 84 519 q 223 609 157 583 q 355 635 289 635 q 482 597 441 635 q 505 562 500 583 q 510 496 510 541 l 510 164 q 558 52 510 52 q 584 58 574 52 q 604 76 593 65 q 621 87 615 87 q 631 77 631 87 q 597 32 631 60 q 498 -8 541 -8 q 454 11 470 -8 q 425 60 439 29 q 404 90 410 90 q 372 67 401 90 q 319 28 342 43 q 259 -2 296 12 q 180 -17 222 -17 q 89 14 128 -17 q 50 94 50 44 q 107 202 50 159 q 256 290 165 246 m 389 326 l 262 262 q 183 207 213 238 q 154 131 154 176 q 182 70 154 92 q 250 47 210 47 q 319 63 284 47 q 379 104 354 79 q 408 148 401 128 q 414 208 414 168 l 414 293 q 404 332 414 332 q 396 329 401 332 q 389 326 391 327 m 277 888 l 463 749 q 473 742 466 747 q 484 732 479 737 q 489 722 489 728 q 479 711 489 711 q 458 719 474 711 q 440 726 443 726 l 239 828 q 208 843 224 835 q 180 863 191 852 q 170 890 170 874 q 180 916 170 905 q 204 926 191 926 q 277 888 229 926 z "},"á":{"ha":667,"x_min":49,"x_max":631,"o":"m 256 290 l 363 340 q 407 370 400 359 q 414 419 414 380 l 414 481 q 398 576 414 546 q 325 607 383 607 q 229 578 266 607 q 165 489 193 549 q 149 457 156 469 q 126 439 141 446 q 66 421 91 421 q 49 437 49 421 q 66 490 49 461 q 107 538 84 519 q 223 609 157 583 q 355 635 289 635 q 482 597 441 635 q 505 562 500 583 q 510 496 510 541 l 510 164 q 558 52 510 52 q 584 58 574 52 q 604 76 593 65 q 621 87 615 87 q 631 77 631 87 q 597 32 631 60 q 498 -8 541 -8 q 454 11 470 -8 q 425 60 439 29 q 404 90 410 90 q 372 67 401 90 q 319 28 342 43 q 259 -2 296 12 q 180 -17 222 -17 q 89 14 128 -17 q 50 94 50 44 q 107 202 50 159 q 256 290 165 246 m 389 326 l 262 262 q 183 207 213 238 q 154 131 154 176 q 182 70 154 92 q 250 47 210 47 q 319 63 284 47 q 379 104 354 79 q 408 148 401 128 q 414 208 414 168 l 414 293 q 404 332 414 332 q 396 329 401 332 q 389 326 391 327 m 421 828 l 220 726 q 198 718 213 724 q 179 711 184 711 q 170 722 170 711 q 175 732 170 727 q 187 742 180 737 q 197 749 195 747 l 382 888 q 397 899 390 894 q 416 912 404 905 q 437 923 429 920 q 456 926 446 926 q 480 916 469 926 q 490 890 490 905 q 479 863 490 874 q 452 843 469 852 q 421 828 435 835 z "},"â":{"ha":667,"x_min":49,"x_max":631,"o":"m 256 290 l 363 340 q 407 370 400 359 q 414 419 414 380 l 414 481 q 398 576 414 546 q 325 607 383 607 q 229 578 266 607 q 165 489 193 549 q 149 457 156 469 q 126 439 141 446 q 66 421 91 421 q 49 437 49 421 q 66 490 49 461 q 107 538 84 519 q 223 609 157 583 q 355 635 289 635 q 482 597 441 635 q 505 562 500 583 q 510 496 510 541 l 510 164 q 558 52 510 52 q 584 58 574 52 q 604 76 593 65 q 621 87 615 87 q 631 77 631 87 q 597 32 631 60 q 498 -8 541 -8 q 454 11 470 -8 q 425 60 439 29 q 404 90 410 90 q 372 67 401 90 q 319 28 342 43 q 259 -2 296 12 q 180 -17 222 -17 q 89 14 128 -17 q 50 94 50 44 q 107 202 50 159 q 256 290 165 246 m 389 326 l 262 262 q 183 207 213 238 q 154 131 154 176 q 182 70 154 92 q 250 47 210 47 q 319 63 284 47 q 379 104 354 79 q 408 148 401 128 q 414 208 414 168 l 414 293 q 404 332 414 332 q 396 329 401 332 q 389 326 391 327 m 297 833 l 180 747 q 144 728 153 728 q 134 733 140 728 q 127 745 127 739 q 138 763 127 751 q 150 777 149 775 l 282 914 q 339 951 316 951 q 365 943 355 951 q 392 914 375 934 l 509 782 q 530 743 530 757 q 515 728 530 728 q 502 731 509 728 q 490 738 494 734 q 476 749 485 742 l 385 825 q 335 852 351 852 q 321 849 328 852 q 307 841 315 846 q 297 833 300 835 z "},"ã":{"ha":667,"x_min":49,"x_max":631,"o":"m 256 290 l 363 340 q 407 370 400 359 q 414 419 414 380 l 414 481 q 398 576 414 546 q 325 607 383 607 q 229 578 266 607 q 165 489 193 549 q 149 457 156 469 q 126 439 141 446 q 66 421 91 421 q 49 437 49 421 q 66 490 49 461 q 107 538 84 519 q 223 609 157 583 q 355 635 289 635 q 482 597 441 635 q 505 562 500 583 q 510 496 510 541 l 510 164 q 558 52 510 52 q 584 58 574 52 q 604 76 593 65 q 621 87 615 87 q 631 77 631 87 q 597 32 631 60 q 498 -8 541 -8 q 454 11 470 -8 q 425 60 439 29 q 404 90 410 90 q 372 67 401 90 q 319 28 342 43 q 259 -2 296 12 q 180 -17 222 -17 q 89 14 128 -17 q 50 94 50 44 q 107 202 50 159 q 256 290 165 246 m 389 326 l 262 262 q 183 207 213 238 q 154 131 154 176 q 182 70 154 92 q 250 47 210 47 q 319 63 284 47 q 379 104 354 79 q 408 148 401 128 q 414 208 414 168 l 414 293 q 404 332 414 332 q 396 329 401 332 q 389 326 391 327 m 330 783 q 278 818 300 804 q 231 831 255 831 q 186 814 203 831 q 156 772 170 797 q 138 747 142 747 q 129 757 129 747 q 132 768 129 760 q 135 779 134 777 q 182 850 151 821 q 253 879 213 879 q 309 865 281 879 q 366 831 336 852 q 395 811 380 821 q 428 792 410 800 q 460 785 446 785 q 521 832 498 785 q 533 848 525 848 q 542 838 542 848 q 524 796 542 822 q 431 737 486 737 q 330 783 391 737 z "},"ä":{"ha":667,"x_min":49,"x_max":631,"o":"m 256 290 l 363 340 q 407 370 400 359 q 414 419 414 380 l 414 481 q 398 576 414 546 q 325 607 383 607 q 229 578 266 607 q 165 489 193 549 q 149 457 156 469 q 126 439 141 446 q 66 421 91 421 q 49 437 49 421 q 66 490 49 461 q 107 538 84 519 q 223 609 157 583 q 355 635 289 635 q 482 597 441 635 q 505 562 500 583 q 510 496 510 541 l 510 164 q 558 52 510 52 q 584 58 574 52 q 604 76 593 65 q 621 87 615 87 q 631 77 631 87 q 597 32 631 60 q 498 -8 541 -8 q 454 11 470 -8 q 425 60 439 29 q 404 90 410 90 q 372 67 401 90 q 319 28 342 43 q 259 -2 296 12 q 180 -17 222 -17 q 89 14 128 -17 q 50 94 50 44 q 107 202 50 159 q 256 290 165 246 m 389 326 l 262 262 q 183 207 213 238 q 154 131 154 176 q 182 70 154 92 q 250 47 210 47 q 319 63 284 47 q 379 104 354 79 q 408 148 401 128 q 414 208 414 168 l 414 293 q 404 332 414 332 q 396 329 401 332 q 389 326 391 327 m 200 737 q 159 757 176 737 q 143 804 143 777 q 159 848 143 831 q 203 865 176 865 q 245 846 229 865 q 261 802 261 827 q 244 755 261 774 q 200 737 227 737 m 456 737 q 415 757 431 737 q 399 804 399 777 q 415 848 399 831 q 458 865 431 865 q 500 846 484 865 q 517 802 517 827 q 500 755 517 774 q 456 737 483 737 z "},"å":{"ha":667,"x_min":49,"x_max":631,"o":"m 256 290 l 363 340 q 407 370 400 359 q 414 419 414 380 l 414 481 q 398 576 414 546 q 325 607 383 607 q 229 578 266 607 q 165 489 193 549 q 149 457 156 469 q 126 439 141 446 q 66 421 91 421 q 49 437 49 421 q 66 490 49 461 q 107 538 84 519 q 223 609 157 583 q 355 635 289 635 q 482 597 441 635 q 505 562 500 583 q 510 496 510 541 l 510 164 q 558 52 510 52 q 584 58 574 52 q 604 76 593 65 q 621 87 615 87 q 631 77 631 87 q 597 32 631 60 q 498 -8 541 -8 q 454 11 470 -8 q 425 60 439 29 q 404 90 410 90 q 372 67 401 90 q 319 28 342 43 q 259 -2 296 12 q 180 -17 222 -17 q 89 14 128 -17 q 50 94 50 44 q 107 202 50 159 q 256 290 165 246 m 389 326 l 262 262 q 183 207 213 238 q 154 131 154 176 q 182 70 154 92 q 250 47 210 47 q 319 63 284 47 q 379 104 354 79 q 408 148 401 128 q 414 208 414 168 l 414 293 q 404 332 414 332 q 396 329 401 332 q 389 326 391 327 m 328 722 q 255 751 286 722 q 225 822 225 779 q 254 893 225 863 q 323 924 282 924 q 397 896 366 924 q 428 827 428 869 q 399 753 428 784 q 328 722 370 722 m 325 753 q 377 774 356 753 q 397 827 397 795 q 376 874 397 855 q 323 893 354 893 q 276 872 296 893 q 257 823 257 851 q 277 774 257 795 q 325 753 298 753 z "},"æ":{"ha":1028,"x_min":49,"x_max":985,"o":"m 945 408 l 591 408 q 551 405 561 408 q 539 390 541 401 q 536 342 536 378 q 595 142 536 218 q 783 46 668 46 q 872 64 838 46 q 935 107 907 82 q 970 132 963 132 q 979 122 979 132 q 945 77 979 106 q 726 -17 851 -17 q 598 14 657 -17 q 498 103 538 45 q 367 12 444 41 q 201 -17 290 -17 q 103 7 145 -17 q 61 81 61 31 q 90 156 61 123 q 165 218 118 188 q 378 314 252 271 q 417 331 406 323 q 432 353 429 339 q 435 401 435 366 q 432 478 435 448 q 415 536 429 509 q 304 604 382 604 q 223 574 258 604 q 167 498 189 545 q 150 462 156 474 q 129 441 143 450 q 99 429 119 435 q 66 422 79 422 q 49 440 49 422 q 76 502 49 469 q 132 558 102 535 q 339 635 231 635 q 402 622 370 635 q 460 586 435 609 q 498 533 486 562 q 602 608 538 582 q 733 635 665 635 q 937 551 868 635 q 971 495 958 528 q 985 431 985 463 q 976 412 985 416 q 945 408 967 408 m 599 441 l 778 441 q 846 455 820 441 q 872 509 872 469 q 832 578 872 553 q 745 604 791 604 q 658 584 700 604 q 585 529 616 564 q 563 496 574 517 q 551 460 551 474 q 563 445 551 448 q 599 441 574 441 m 435 258 q 432 292 435 283 q 421 301 430 301 q 414 300 420 301 q 404 297 409 298 q 395 294 398 296 q 243 225 312 269 q 174 119 174 182 q 210 49 174 75 q 293 24 246 24 q 367 42 332 24 q 416 93 401 60 q 431 160 427 116 q 435 258 435 205 z "},"ç":{"ha":639,"x_min":49,"x_max":603,"o":"m 591 526 q 592 515 592 521 q 593 497 593 510 q 575 454 593 454 q 527 504 558 454 q 468 581 496 553 q 393 608 441 608 q 321 592 360 608 q 253 551 283 576 q 179 449 205 510 q 153 323 153 388 q 186 184 153 251 q 278 76 219 117 q 412 35 338 35 q 572 97 509 35 q 593 114 587 114 q 603 103 603 114 q 587 77 603 95 q 561 52 570 59 q 359 -17 476 -17 q 204 25 276 -17 q 91 140 133 68 q 49 296 49 213 q 78 427 49 366 q 159 536 107 489 q 276 609 210 583 q 410 635 341 635 q 468 629 435 635 q 529 613 500 623 q 581 587 557 603 q 593 554 593 578 q 592 539 593 545 q 591 526 592 533 m 328 0 l 265 -85 l 304 -82 q 400 -103 355 -82 q 446 -170 446 -125 q 424 -230 446 -203 q 370 -270 403 -256 q 304 -283 337 -283 q 224 -270 266 -283 q 183 -227 183 -256 q 191 -207 183 -216 q 208 -197 198 -197 q 236 -217 220 -197 q 266 -249 252 -237 q 310 -260 281 -260 q 372 -237 342 -260 q 401 -183 401 -215 q 279 -114 401 -114 q 263 -115 273 -114 q 241 -117 252 -116 q 225 -118 231 -118 q 214 -110 214 -118 q 221 -95 214 -105 q 231 -82 229 -84 l 292 0 l 328 0 z "},"è":{"ha":694,"x_min":47,"x_max":646,"o":"m 629 382 l 208 382 q 173 380 183 382 q 157 369 162 378 q 151 338 151 360 q 184 192 151 259 q 278 84 217 124 q 421 45 340 45 q 502 57 465 45 q 562 86 538 70 q 604 120 586 103 q 627 136 622 136 q 637 125 637 136 q 618 95 637 114 q 583 61 599 76 q 483 1 534 19 q 364 -17 431 -17 q 202 27 275 -17 q 89 145 130 71 q 47 306 47 219 q 71 436 47 380 q 147 541 94 493 q 222 592 181 570 q 306 624 262 613 q 397 635 349 635 q 510 613 457 635 q 597 547 562 591 q 631 483 616 524 q 646 406 646 442 q 629 382 646 382 m 210 415 l 322 415 q 484 427 437 415 q 534 482 534 438 q 498 566 534 527 q 378 608 458 608 q 277 584 326 608 q 197 515 229 559 q 175 476 186 503 q 163 433 163 449 q 174 418 163 422 q 210 415 185 415 m 290 888 l 476 749 q 503 722 503 731 q 493 711 503 711 q 473 718 488 711 q 454 726 458 725 l 253 828 q 222 843 239 835 q 194 863 205 852 q 183 890 183 874 q 194 916 183 905 q 218 926 205 926 q 290 888 243 926 z "},"é":{"ha":694,"x_min":47,"x_max":646,"o":"m 629 382 l 208 382 q 173 380 183 382 q 157 369 162 378 q 151 338 151 360 q 184 192 151 259 q 278 84 217 124 q 421 45 340 45 q 502 57 465 45 q 562 86 538 70 q 604 120 586 103 q 627 136 622 136 q 637 125 637 136 q 618 95 637 114 q 583 61 599 76 q 483 1 534 19 q 364 -17 431 -17 q 202 27 275 -17 q 89 145 130 71 q 47 306 47 219 q 71 436 47 380 q 147 541 94 493 q 222 592 181 570 q 306 624 262 613 q 397 635 349 635 q 510 613 457 635 q 597 547 562 591 q 631 483 616 524 q 646 406 646 442 q 629 382 646 382 m 210 415 l 322 415 q 484 427 437 415 q 534 482 534 438 q 498 566 534 527 q 378 608 458 608 q 277 584 326 608 q 197 515 229 559 q 175 476 186 503 q 163 433 163 449 q 174 418 163 422 q 210 415 185 415 m 435 828 l 233 726 q 216 719 233 726 q 193 711 199 711 q 183 722 183 711 q 188 732 183 727 q 201 742 193 737 q 211 749 208 747 l 396 888 q 437 917 420 907 q 469 926 454 926 q 493 916 482 926 q 504 890 504 905 q 497 870 504 880 q 481 853 491 861 q 458 839 471 845 q 435 828 445 833 z "},"ê":{"ha":694,"x_min":47,"x_max":646,"o":"m 629 382 l 208 382 q 173 380 183 382 q 157 369 162 378 q 151 338 151 360 q 184 192 151 259 q 278 84 217 124 q 421 45 340 45 q 502 57 465 45 q 562 86 538 70 q 604 120 586 103 q 627 136 622 136 q 637 125 637 136 q 618 95 637 114 q 583 61 599 76 q 483 1 534 19 q 364 -17 431 -17 q 202 27 275 -17 q 89 145 130 71 q 47 306 47 219 q 71 436 47 380 q 147 541 94 493 q 222 592 181 570 q 306 624 262 613 q 397 635 349 635 q 510 613 457 635 q 597 547 562 591 q 631 483 616 524 q 646 406 646 442 q 629 382 646 382 m 210 415 l 322 415 q 484 427 437 415 q 534 482 534 438 q 498 566 534 527 q 378 608 458 608 q 277 584 326 608 q 197 515 229 559 q 175 476 186 503 q 163 433 163 449 q 174 418 163 422 q 210 415 185 415 m 311 833 l 195 747 q 158 728 165 728 q 147 733 153 728 q 142 745 142 739 q 145 753 142 748 q 155 766 149 759 q 164 777 162 774 l 296 914 q 328 944 317 936 q 353 951 338 951 q 379 943 369 951 q 406 914 389 934 l 522 782 q 545 743 545 755 q 529 728 545 728 q 490 749 515 728 l 399 825 q 372 845 382 838 q 349 852 361 852 q 311 833 338 852 z "},"ë":{"ha":694,"x_min":47,"x_max":646,"o":"m 629 382 l 208 382 q 173 380 183 382 q 157 369 162 378 q 151 338 151 360 q 184 192 151 259 q 278 84 217 124 q 421 45 340 45 q 502 57 465 45 q 562 86 538 70 q 604 120 586 103 q 627 136 622 136 q 637 125 637 136 q 618 95 637 114 q 583 61 599 76 q 483 1 534 19 q 364 -17 431 -17 q 202 27 275 -17 q 89 145 130 71 q 47 306 47 219 q 71 436 47 380 q 147 541 94 493 q 222 592 181 570 q 306 624 262 613 q 397 635 349 635 q 510 613 457 635 q 597 547 562 591 q 631 483 616 524 q 646 406 646 442 q 629 382 646 382 m 210 415 l 322 415 q 484 427 437 415 q 534 482 534 438 q 498 566 534 527 q 378 608 458 608 q 277 584 326 608 q 197 515 229 559 q 175 476 186 503 q 163 433 163 449 q 174 418 163 422 q 210 415 185 415 m 214 737 q 173 757 189 737 q 157 804 157 777 q 173 848 157 831 q 216 865 189 865 q 259 846 243 865 q 275 802 275 827 q 258 755 275 774 q 214 737 241 737 m 469 737 q 429 757 445 737 q 412 804 412 777 q 429 848 412 831 q 472 865 445 865 q 514 847 498 865 q 530 802 530 828 q 513 755 530 774 q 469 737 496 737 z "},"ì":{"ha":431,"x_min":17,"x_max":340,"o":"m 239 611 l 239 143 q 238 120 239 128 q 237 102 238 112 q 250 49 237 67 q 301 28 263 31 q 332 24 323 26 q 340 9 340 22 q 323 -5 340 -5 q 258 -3 302 -5 q 193 0 214 0 q 126 -3 170 0 q 61 -5 82 -5 q 41 8 41 -5 q 49 23 41 20 q 81 28 57 26 q 122 40 109 31 q 140 63 136 49 q 144 102 144 78 q 144 123 144 115 q 143 143 144 132 l 143 407 q 129 497 143 481 q 89 509 119 509 l 71 509 q 54 519 54 509 q 59 531 54 527 q 73 539 64 536 q 86 543 82 542 q 149 573 111 550 q 201 615 186 597 q 209 624 205 619 q 217 632 212 629 q 227 635 221 635 q 239 611 239 635 m 123 888 l 310 749 q 320 742 313 747 q 332 732 327 737 q 336 722 336 728 q 326 711 336 711 q 307 718 321 711 q 288 726 292 725 l 86 828 q 55 843 72 835 q 28 863 39 852 q 17 890 17 874 q 28 916 17 905 q 52 926 39 926 q 123 888 78 926 z "},"í":{"ha":431,"x_min":17,"x_max":340,"o":"m 239 611 l 239 143 q 238 120 239 128 q 237 102 238 112 q 250 49 237 67 q 301 28 263 31 q 332 24 323 26 q 340 9 340 22 q 323 -5 340 -5 q 258 -3 302 -5 q 193 0 214 0 q 126 -3 170 0 q 61 -5 82 -5 q 41 8 41 -5 q 49 23 41 20 q 81 28 57 26 q 122 40 109 31 q 140 63 136 49 q 144 102 144 78 q 144 123 144 115 q 143 143 144 132 l 143 407 q 129 497 143 481 q 89 509 119 509 l 71 509 q 54 519 54 509 q 59 531 54 527 q 73 539 64 536 q 86 543 82 542 q 149 573 111 550 q 201 615 186 597 q 209 624 205 619 q 217 632 212 629 q 227 635 221 635 q 239 611 239 635 m 268 828 l 66 726 q 49 719 66 726 q 26 711 32 711 q 17 722 17 711 q 45 749 17 730 l 229 888 q 244 899 237 894 q 262 912 252 905 q 283 923 273 919 q 302 926 293 926 q 327 916 317 926 q 338 890 338 905 q 331 869 338 879 q 315 852 325 860 q 291 839 304 845 q 268 828 278 833 z "},"î":{"ha":472,"x_min":-25,"x_max":378,"o":"m 239 611 l 239 143 q 238 120 239 128 q 237 102 238 112 q 250 49 237 67 q 301 28 263 31 q 332 24 323 26 q 340 9 340 22 q 323 -5 340 -5 q 258 -3 302 -5 q 193 0 214 0 q 126 -3 170 0 q 61 -5 82 -5 q 41 8 41 -5 q 49 23 41 20 q 81 28 57 26 q 122 40 109 31 q 140 63 136 49 q 144 102 144 78 q 144 123 144 115 q 143 143 144 132 l 143 407 q 129 497 143 481 q 89 509 119 509 l 71 509 q 54 519 54 509 q 59 531 54 527 q 73 539 64 536 q 86 543 82 542 q 149 573 111 550 q 201 615 186 597 q 209 624 205 619 q 217 632 212 629 q 227 635 221 635 q 239 611 239 635 m 144 833 l 28 747 q -8 728 0 728 q -20 733 -14 728 q -25 745 -25 739 q -14 763 -25 751 q -3 777 -3 775 l 129 914 q 160 943 149 934 q 186 951 171 951 q 212 944 203 951 q 239 914 220 936 l 355 782 q 378 743 378 758 q 363 728 378 728 q 349 731 356 728 q 337 738 342 734 q 323 749 332 742 l 232 825 q 182 852 198 852 q 144 833 171 852 z "},"ï":{"ha":458,"x_min":-9,"x_max":364,"o":"m 239 611 l 239 143 q 238 120 239 128 q 237 102 238 112 q 250 49 237 67 q 301 28 263 31 q 332 24 323 26 q 340 9 340 22 q 323 -5 340 -5 q 258 -3 302 -5 q 193 0 214 0 q 126 -3 170 0 q 61 -5 82 -5 q 41 8 41 -5 q 49 23 41 20 q 81 28 57 26 q 122 40 109 31 q 140 63 136 49 q 144 102 144 78 q 144 123 144 115 q 143 143 144 132 l 143 407 q 129 497 143 481 q 89 509 119 509 l 71 509 q 54 519 54 509 q 59 531 54 527 q 73 539 64 536 q 86 543 82 542 q 149 573 111 550 q 201 615 186 597 q 209 624 205 619 q 217 632 212 629 q 227 635 221 635 q 239 611 239 635 m 47 737 q 6 757 22 737 q -9 804 -9 777 q 6 848 -9 831 q 50 865 22 865 q 92 846 76 865 q 109 802 109 827 q 92 755 109 774 q 47 737 75 737 m 302 737 q 262 757 278 737 q 245 804 245 777 q 262 848 245 831 q 306 865 278 865 q 348 846 332 865 q 364 802 364 827 q 347 755 364 774 q 302 737 330 737 z "},"ð":{"ha":778,"x_min":28,"x_max":736,"o":"m 396 9 q 520 54 467 9 q 602 168 574 98 q 631 304 631 237 q 603 448 631 378 q 522 563 576 518 q 390 607 467 607 q 290 583 334 607 q 214 518 245 559 q 167 427 183 477 q 151 321 151 376 q 181 176 151 248 q 266 57 210 104 q 396 9 321 9 m 47 314 q 72 437 47 377 q 142 541 97 496 q 215 594 175 573 q 300 625 255 614 q 392 635 345 635 q 447 663 442 635 q 415 726 447 690 q 338 801 387 761 q 254 859 288 840 l 69 781 q 46 775 58 775 q 31 782 34 775 q 28 791 28 787 q 41 812 30 807 l 216 888 q 111 962 153 937 q 106 971 106 966 q 112 979 106 975 q 126 983 118 982 q 174 972 153 983 q 277 914 191 964 l 441 983 q 457 986 447 986 q 476 979 469 986 q 484 965 484 975 q 471 950 484 956 l 318 885 q 446 790 373 852 q 579 656 519 728 q 693 485 650 572 q 736 314 736 397 q 689 145 736 222 q 563 26 643 69 q 392 -17 483 -17 q 220 26 300 -17 q 94 144 140 69 q 47 314 47 220 z "},"ñ":{"ha":778,"x_min":31,"x_max":762,"o":"m 132 143 l 132 407 q 118 497 132 481 q 78 509 109 509 l 60 509 q 43 519 43 509 q 47 531 43 527 q 59 538 52 536 q 75 543 66 541 q 138 573 100 550 q 191 615 176 597 q 198 624 194 619 q 206 632 201 629 q 215 635 210 635 q 228 611 228 635 l 228 519 q 274 553 235 519 q 357 611 313 587 q 456 635 401 635 q 619 558 560 635 q 655 476 648 519 q 661 366 661 433 l 661 143 q 661 120 661 128 q 660 102 661 112 q 673 49 660 67 q 724 28 686 31 q 738 26 729 27 q 750 25 747 25 q 758 20 753 24 q 762 9 762 16 q 746 -5 762 -5 q 680 -3 723 -5 q 615 0 636 0 q 549 -3 593 0 q 484 -5 505 -5 q 464 8 464 -5 q 472 23 464 20 q 503 28 480 26 q 555 50 543 32 q 567 102 567 67 q 567 123 567 115 q 566 143 566 132 l 566 367 q 541 505 566 467 q 487 551 522 534 q 410 568 452 568 q 272 509 330 568 q 236 450 243 477 q 228 379 228 424 l 228 143 q 228 120 228 128 q 227 102 227 112 q 239 49 227 67 q 290 28 252 31 q 320 24 312 26 q 329 9 329 22 q 313 -5 329 -5 q 246 -3 290 -5 q 182 0 203 0 q 116 -3 160 0 q 50 -5 72 -5 q 31 8 31 -5 q 39 23 31 20 q 69 28 47 26 q 121 50 109 32 q 134 102 134 67 q 133 123 134 115 q 132 143 133 132 m 386 783 q 333 818 356 804 q 286 831 311 831 q 242 814 259 831 q 211 772 225 797 q 193 747 197 747 q 184 757 184 747 q 187 768 184 760 q 191 779 190 777 q 238 850 207 821 q 309 879 269 879 q 364 865 336 879 q 421 831 392 852 q 450 811 435 821 q 483 792 465 800 q 515 785 501 785 q 576 832 552 785 q 589 848 581 848 q 597 838 597 848 q 579 796 597 822 q 486 737 541 737 q 386 783 447 737 z "},"ò":{"ha":778,"x_min":49,"x_max":737,"o":"m 393 -17 q 221 26 301 -17 q 95 144 141 69 q 49 314 49 220 q 74 437 49 377 q 143 541 98 496 q 216 594 176 573 q 301 625 256 614 q 393 635 347 635 q 629 553 532 635 q 688 486 665 523 q 724 403 711 448 q 737 314 737 358 q 691 145 737 222 q 564 26 644 69 q 393 -17 484 -17 m 397 9 q 522 54 468 9 q 604 168 575 98 q 632 304 632 237 q 605 448 632 378 q 523 563 577 518 q 392 607 469 607 q 291 583 336 607 q 216 518 247 559 q 169 427 184 477 q 153 321 153 376 q 182 176 153 248 q 267 57 212 104 q 397 9 323 9 m 332 888 l 518 749 q 528 742 522 747 q 540 732 535 737 q 545 722 545 728 q 534 711 545 711 q 515 718 530 711 q 496 726 500 725 l 294 828 q 263 843 280 835 q 236 863 247 852 q 225 890 225 874 q 236 916 225 905 q 260 926 247 926 q 332 888 286 926 z "},"ó":{"ha":778,"x_min":49,"x_max":737,"o":"m 393 -17 q 221 26 301 -17 q 95 144 141 69 q 49 314 49 220 q 74 437 49 377 q 143 541 98 496 q 216 594 176 573 q 301 625 256 614 q 393 635 347 635 q 629 553 532 635 q 688 486 665 523 q 724 403 711 448 q 737 314 737 358 q 691 145 737 222 q 564 26 644 69 q 393 -17 484 -17 m 397 9 q 522 54 468 9 q 604 168 575 98 q 632 304 632 237 q 605 448 632 378 q 523 563 577 518 q 392 607 469 607 q 291 583 336 607 q 216 518 247 559 q 169 427 184 477 q 153 321 153 376 q 182 176 153 248 q 267 57 212 104 q 397 9 323 9 m 476 828 l 275 726 q 256 718 271 725 q 235 711 240 711 q 225 722 225 711 q 230 732 225 727 q 243 742 235 737 q 253 749 250 747 l 437 888 q 453 899 446 894 q 472 912 460 905 q 493 923 484 920 q 511 926 502 926 q 535 916 525 926 q 546 890 546 905 q 539 869 546 879 q 523 852 533 860 q 499 839 513 845 q 476 828 486 833 z "},"ô":{"ha":778,"x_min":49,"x_max":737,"o":"m 393 -17 q 221 26 301 -17 q 95 144 141 69 q 49 314 49 220 q 74 437 49 377 q 143 541 98 496 q 216 594 176 573 q 301 625 256 614 q 393 635 347 635 q 629 553 532 635 q 688 486 665 523 q 724 403 711 448 q 737 314 737 358 q 691 145 737 222 q 564 26 644 69 q 393 -17 484 -17 m 397 9 q 522 54 468 9 q 604 168 575 98 q 632 304 632 237 q 605 448 632 378 q 523 563 577 518 q 392 607 469 607 q 291 583 336 607 q 216 518 247 559 q 169 427 184 477 q 153 321 153 376 q 182 176 153 248 q 267 57 212 104 q 397 9 323 9 m 353 833 l 236 747 q 200 728 208 728 q 189 733 195 728 q 183 745 183 739 q 194 763 183 751 q 205 777 205 775 l 338 914 q 395 951 372 951 q 420 944 411 951 q 447 914 429 936 l 564 782 q 586 743 586 758 q 571 728 586 728 q 557 731 564 728 q 545 738 550 734 q 532 749 541 742 l 440 825 q 390 852 406 852 q 378 849 385 852 q 363 841 371 846 q 353 833 355 835 z "},"õ":{"ha":778,"x_min":49,"x_max":737,"o":"m 393 -17 q 221 26 301 -17 q 95 144 141 69 q 49 314 49 220 q 74 437 49 377 q 143 541 98 496 q 216 594 176 573 q 301 625 256 614 q 393 635 347 635 q 629 553 532 635 q 688 486 665 523 q 724 403 711 448 q 737 314 737 358 q 691 145 737 222 q 564 26 644 69 q 393 -17 484 -17 m 397 9 q 522 54 468 9 q 604 168 575 98 q 632 304 632 237 q 605 448 632 378 q 523 563 577 518 q 392 607 469 607 q 291 583 336 607 q 216 518 247 559 q 169 427 184 477 q 153 321 153 376 q 182 176 153 248 q 267 57 212 104 q 397 9 323 9 m 386 783 q 333 818 356 804 q 286 831 311 831 q 242 814 259 831 q 211 772 225 797 q 193 747 197 747 q 184 757 184 747 q 187 768 184 760 q 191 779 190 777 q 238 850 207 821 q 309 879 269 879 q 364 865 336 879 q 421 831 392 852 q 450 811 435 821 q 483 792 465 800 q 515 785 501 785 q 576 832 552 785 q 589 848 581 848 q 597 838 597 848 q 579 796 597 822 q 486 737 541 737 q 386 783 447 737 z "},"ö":{"ha":778,"x_min":49,"x_max":737,"o":"m 393 -17 q 221 26 301 -17 q 95 144 141 69 q 49 314 49 220 q 74 437 49 377 q 143 541 98 496 q 216 594 176 573 q 301 625 256 614 q 393 635 347 635 q 629 553 532 635 q 688 486 665 523 q 724 403 711 448 q 737 314 737 358 q 691 145 737 222 q 564 26 644 69 q 393 -17 484 -17 m 397 9 q 522 54 468 9 q 604 168 575 98 q 632 304 632 237 q 605 448 632 378 q 523 563 577 518 q 392 607 469 607 q 291 583 336 607 q 216 518 247 559 q 169 427 184 477 q 153 321 153 376 q 182 176 153 248 q 267 57 212 104 q 397 9 323 9 m 256 737 q 215 757 231 737 q 199 804 199 777 q 215 848 199 831 q 258 865 231 865 q 300 846 284 865 q 317 802 317 827 q 300 755 317 774 q 256 737 283 737 m 511 737 q 470 757 486 737 q 454 804 454 777 q 470 848 454 831 q 514 865 486 865 q 556 846 540 865 q 572 802 572 827 q 555 755 572 774 q 511 737 538 737 z "},"÷":{"ha":778,"x_min":81,"x_max":696,"o":"m 81 471 l 696 471 l 696 396 l 81 396 l 81 471 m 389 122 q 343 142 361 122 q 326 191 326 162 q 344 241 326 222 q 392 260 361 260 q 434 240 420 260 q 447 191 447 221 q 389 122 447 122 m 389 606 q 344 626 361 606 q 326 675 326 646 q 344 724 326 705 q 392 743 361 743 q 434 724 420 743 q 447 675 447 705 q 389 606 447 606 z "},"ø":{"ha":778,"x_min":47,"x_max":734,"o":"m 657 676 l 616 616 q 597 583 597 588 q 625 554 597 571 q 704 450 674 518 q 734 314 734 382 q 707 180 734 241 q 633 75 680 119 q 521 7 585 31 q 387 -17 457 -17 q 245 14 319 -17 q 218 24 228 24 q 207 19 212 24 q 197 7 202 15 q 191 -4 193 -1 l 153 -57 q 143 -73 147 -66 q 133 -84 138 -79 q 119 -89 127 -89 q 104 -81 104 -89 q 121 -47 104 -68 l 165 18 q 175 30 169 22 q 180 43 180 38 q 175 55 180 50 q 158 71 170 60 q 78 178 108 110 q 47 313 47 245 q 92 479 47 405 q 214 594 137 553 q 383 635 291 635 q 532 608 466 635 q 555 602 551 602 q 574 612 564 602 q 593 636 584 622 q 608 661 602 650 q 623 683 614 669 q 641 706 632 698 q 660 714 650 714 q 672 705 672 714 q 670 697 672 701 q 662 685 667 693 q 657 676 657 677 m 252 140 l 509 513 q 526 547 526 539 q 505 572 526 559 q 385 607 452 607 q 260 566 313 607 q 178 458 206 524 q 150 322 150 392 q 199 142 150 229 q 224 109 212 109 q 234 115 229 109 q 243 128 239 121 q 252 140 248 134 m 269 113 l 254 92 q 249 81 249 86 q 254 67 249 73 q 272 52 260 62 q 330 20 302 31 q 390 9 359 9 q 518 53 463 9 q 602 164 574 96 q 631 304 631 233 q 583 485 631 400 q 571 509 576 501 q 554 517 565 517 q 529 489 546 517 l 269 113 z "},"ù":{"ha":778,"x_min":16,"x_max":734,"o":"m 643 581 l 643 168 l 643 131 q 653 90 643 103 q 699 77 663 77 l 717 78 q 734 65 734 78 q 727 55 734 58 q 705 47 720 52 q 567 -12 607 18 q 559 -17 564 -14 q 551 -21 554 -21 q 545 -9 545 -21 l 545 24 q 533 82 545 82 q 494 54 528 82 q 419 4 460 26 q 321 -17 377 -17 q 157 64 219 -17 q 122 148 129 104 q 115 262 115 193 l 115 475 q 116 497 116 487 q 117 521 117 507 q 104 571 117 554 q 53 587 92 587 q 16 607 16 587 q 33 615 16 615 l 189 615 q 207 605 203 615 q 211 566 211 594 l 211 262 q 236 106 211 146 q 294 57 256 73 q 375 40 333 40 q 524 104 468 40 q 542 137 537 119 q 547 176 547 154 l 547 207 l 547 475 q 548 497 548 487 q 549 522 549 507 q 536 571 549 555 q 486 587 524 587 q 447 606 447 587 q 467 615 447 615 l 628 615 q 641 609 638 615 q 643 581 643 603 m 332 888 l 518 749 q 528 742 522 747 q 540 732 535 737 q 545 722 545 728 q 534 711 545 711 q 515 718 530 711 q 496 726 500 725 l 294 828 q 263 843 280 835 q 236 863 247 852 q 225 890 225 874 q 236 916 225 905 q 260 926 247 926 q 332 888 286 926 z "},"ú":{"ha":778,"x_min":16,"x_max":734,"o":"m 643 581 l 643 168 l 643 131 q 653 90 643 103 q 699 77 663 77 l 717 78 q 734 65 734 78 q 727 55 734 58 q 705 47 720 52 q 567 -12 607 18 q 559 -17 564 -14 q 551 -21 554 -21 q 545 -9 545 -21 l 545 24 q 533 82 545 82 q 494 54 528 82 q 419 4 460 26 q 321 -17 377 -17 q 157 64 219 -17 q 122 148 129 104 q 115 262 115 193 l 115 475 q 116 497 116 487 q 117 521 117 507 q 104 571 117 554 q 53 587 92 587 q 16 607 16 587 q 33 615 16 615 l 189 615 q 207 605 203 615 q 211 566 211 594 l 211 262 q 236 106 211 146 q 294 57 256 73 q 375 40 333 40 q 524 104 468 40 q 542 137 537 119 q 547 176 547 154 l 547 207 l 547 475 q 548 497 548 487 q 549 522 549 507 q 536 571 549 555 q 486 587 524 587 q 447 606 447 587 q 467 615 447 615 l 628 615 q 641 609 638 615 q 643 581 643 603 m 476 828 l 275 726 q 256 718 271 725 q 235 711 240 711 q 225 722 225 711 q 230 732 225 727 q 243 742 235 737 q 253 749 250 747 l 437 888 q 453 899 446 894 q 472 912 460 905 q 493 923 484 920 q 511 926 502 926 q 535 916 525 926 q 546 890 546 905 q 539 869 546 879 q 523 852 533 860 q 499 839 513 845 q 476 828 486 833 z "},"û":{"ha":778,"x_min":16,"x_max":734,"o":"m 643 581 l 643 168 l 643 131 q 653 90 643 103 q 699 77 663 77 l 717 78 q 734 65 734 78 q 727 55 734 58 q 705 47 720 52 q 567 -12 607 18 q 559 -17 564 -14 q 551 -21 554 -21 q 545 -9 545 -21 l 545 24 q 533 82 545 82 q 494 54 528 82 q 419 4 460 26 q 321 -17 377 -17 q 157 64 219 -17 q 122 148 129 104 q 115 262 115 193 l 115 475 q 116 497 116 487 q 117 521 117 507 q 104 571 117 554 q 53 587 92 587 q 16 607 16 587 q 33 615 16 615 l 189 615 q 207 605 203 615 q 211 566 211 594 l 211 262 q 236 106 211 146 q 294 57 256 73 q 375 40 333 40 q 524 104 468 40 q 542 137 537 119 q 547 176 547 154 l 547 207 l 547 475 q 548 497 548 487 q 549 522 549 507 q 536 571 549 555 q 486 587 524 587 q 447 606 447 587 q 467 615 447 615 l 628 615 q 641 609 638 615 q 643 581 643 603 m 353 833 l 236 747 q 200 728 208 728 q 189 733 195 728 q 183 745 183 739 q 194 763 183 751 q 205 777 205 775 l 338 914 q 395 951 372 951 q 420 944 411 951 q 447 914 429 936 l 564 782 q 586 743 586 758 q 571 728 586 728 q 557 731 564 728 q 545 738 550 734 q 532 749 541 742 l 440 825 q 390 852 406 852 q 378 849 385 852 q 363 841 371 846 q 353 833 355 835 z "},"ü":{"ha":778,"x_min":16,"x_max":734,"o":"m 643 581 l 643 168 l 643 131 q 653 90 643 103 q 699 77 663 77 l 717 78 q 734 65 734 78 q 727 55 734 58 q 705 47 720 52 q 567 -12 607 18 q 559 -17 564 -14 q 551 -21 554 -21 q 545 -9 545 -21 l 545 24 q 533 82 545 82 q 494 54 528 82 q 419 4 460 26 q 321 -17 377 -17 q 157 64 219 -17 q 122 148 129 104 q 115 262 115 193 l 115 475 q 116 497 116 487 q 117 521 117 507 q 104 571 117 554 q 53 587 92 587 q 16 607 16 587 q 33 615 16 615 l 189 615 q 207 605 203 615 q 211 566 211 594 l 211 262 q 236 106 211 146 q 294 57 256 73 q 375 40 333 40 q 524 104 468 40 q 542 137 537 119 q 547 176 547 154 l 547 207 l 547 475 q 548 497 548 487 q 549 522 549 507 q 536 571 549 555 q 486 587 524 587 q 447 606 447 587 q 467 615 447 615 l 628 615 q 641 609 638 615 q 643 581 643 603 m 256 737 q 215 757 231 737 q 199 804 199 777 q 215 848 199 831 q 258 865 231 865 q 300 846 284 865 q 317 802 317 827 q 300 755 317 774 q 256 737 283 737 m 511 737 q 470 757 486 737 q 454 804 454 777 q 470 848 454 831 q 514 865 486 865 q 556 846 540 865 q 572 802 572 827 q 555 755 572 774 q 511 737 538 737 z "},"ý":{"ha":694,"x_min":-8,"x_max":704,"o":"m 374 113 l 529 478 q 549 538 549 521 q 537 568 549 557 q 510 583 526 579 q 475 587 494 587 q 443 597 443 587 q 449 610 443 606 q 463 615 454 615 l 684 615 q 704 596 704 615 q 694 590 704 592 q 673 587 684 589 q 614 555 636 583 q 538 406 587 521 l 258 -260 q 237 -306 248 -296 q 191 -315 227 -315 q 133 -307 153 -315 q 113 -271 113 -299 q 121 -230 113 -243 q 157 -216 130 -216 q 218 -214 199 -216 q 233 -205 227 -211 q 242 -194 239 -199 q 248 -181 244 -190 q 256 -163 252 -172 l 302 -52 q 315 -9 315 -22 q 311 11 315 -1 q 302 36 307 24 q 296 50 296 47 l 113 488 q 77 563 93 538 q 25 587 62 587 q -8 597 -8 587 q 18 615 -8 615 l 286 615 q 300 611 294 615 q 306 597 306 606 q 272 587 306 587 q 224 578 246 587 q 201 546 201 568 q 218 488 201 528 l 374 113 m 435 828 l 233 726 q 216 719 233 726 q 193 711 199 711 q 183 722 183 711 q 188 732 183 727 q 201 742 193 737 q 211 749 208 747 l 396 888 q 437 917 420 907 q 469 926 454 926 q 493 916 482 926 q 504 890 504 905 q 497 870 504 880 q 481 853 491 861 q 458 839 471 845 q 435 828 445 833 z "},"þ":{"ha":806,"x_min":31,"x_max":757,"o":"m 132 -172 l 132 659 q 119 736 132 721 q 79 747 110 747 l 61 747 q 45 758 45 747 q 48 769 45 764 q 54 775 51 773 q 65 780 58 777 q 77 783 73 783 q 139 813 102 790 q 192 856 176 836 q 216 873 210 873 q 228 851 228 873 l 228 534 q 463 635 345 633 q 574 607 519 635 q 672 536 629 580 q 735 434 713 492 q 757 314 757 376 q 711 144 757 220 q 586 25 665 68 q 410 -17 507 -17 q 348 -11 377 -17 q 271 12 319 -4 q 258 16 262 14 q 248 18 254 17 q 239 20 242 20 q 228 -22 228 20 l 228 -172 q 228 -196 228 -187 q 227 -215 227 -204 q 239 -267 227 -249 q 290 -288 252 -284 q 320 -292 312 -290 q 329 -306 329 -294 q 313 -321 329 -321 q 246 -318 290 -321 q 182 -315 203 -315 q 116 -318 160 -315 q 50 -321 72 -321 q 31 -307 31 -321 q 39 -292 31 -295 q 69 -288 47 -290 q 121 -266 109 -283 q 134 -215 134 -249 q 133 -192 134 -201 q 132 -172 133 -183 m 652 296 q 633 408 652 355 q 578 501 615 461 q 500 555 545 536 q 408 574 456 574 q 320 556 362 574 q 252 501 277 538 q 232 460 237 484 q 228 404 228 437 l 228 186 q 236 109 228 142 q 272 49 245 75 q 329 19 295 31 q 393 8 363 8 q 499 32 451 8 q 582 96 547 55 q 634 189 616 138 q 652 296 652 241 z "},"ÿ":{"ha":694,"x_min":-8,"x_max":704,"o":"m 374 113 l 529 478 q 549 538 549 521 q 537 568 549 557 q 510 583 526 579 q 475 587 494 587 q 443 597 443 587 q 449 610 443 606 q 463 615 454 615 l 684 615 q 704 596 704 615 q 694 590 704 592 q 673 587 684 589 q 614 555 636 583 q 538 406 587 521 l 258 -260 q 237 -306 248 -296 q 191 -315 227 -315 q 133 -307 153 -315 q 113 -271 113 -299 q 121 -230 113 -243 q 157 -216 130 -216 q 218 -214 199 -216 q 233 -205 227 -211 q 242 -194 239 -199 q 248 -181 244 -190 q 256 -163 252 -172 l 302 -52 q 315 -9 315 -22 q 311 11 315 -1 q 302 36 307 24 q 296 50 296 47 l 113 488 q 77 563 93 538 q 25 587 62 587 q -8 597 -8 587 q 18 615 -8 615 l 286 615 q 300 611 294 615 q 306 597 306 606 q 272 587 306 587 q 224 578 246 587 q 201 546 201 568 q 218 488 201 528 l 374 113 m 214 737 q 173 757 189 737 q 157 804 157 777 q 173 848 157 831 q 216 865 189 865 q 259 846 243 865 q 275 802 275 827 q 258 755 275 774 q 214 737 241 737 m 469 737 q 429 757 445 737 q 412 804 412 777 q 429 848 412 831 q 472 865 445 865 q 514 847 498 865 q 530 802 530 828 q 513 755 530 774 q 469 737 496 737 z "}}}
